  0
SECTION
  2
HEADER
  9
$ACADVER
  1
AC1015
  9
$ACADMAINTVER
 70
     6
  9
$DWGCODEPAGE
  3
ANSI_950
  9
$INSBASE
 10
0.0
 20
0.0
 30
0.0
  9
$EXTMIN
 10
0.0
 20
0.0
 30
0.0
  9
$EXTMAX
 10
420.0
 20
297.0
 30
0.0
  9
$LIMMIN
 10
0.0
 20
0.0
  9
$LIMMAX
 10
420.0
 20
297.0
  9
$ORTHOMODE
 70
     0
  9
$REGENMODE
 70
     1
  9
$FILLMODE
 70
     1
  9
$QTEXTMODE
 70
     0
  9
$MIRRTEXT
 70
     1
  9
$LTSCALE
 40
1.0
  9
$ATTMODE
 70
     1
  9
$TEXTSIZE
 40
3.5
  9
$TRACEWID
 40
1.0
  9
$TEXTSTYLE
  7
Standard
  9
$CLAYER
  8
0
  9
$CELTYPE
  6
ByLayer
  9
$CECOLOR
 62
   256
  9
$CELTSCALE
 40
1.0
  9
$DISPSILH
 70
     0
  9
$DIMSCALE
 40
1.0
  9
$DIMASZ
 40
3.302
  9
$DIMEXO
 40
1.0
  9
$DIMDLI
 40
3.75
  9
$DIMRND
 40
0.0
  9
$DIMDLE
 40
0.0
  9
$DIMEXE
 40
1.0
  9
$DIMTP
 40
0.0
  9
$DIMTM
 40
0.0
  9
$DIMTXT
 40
3.5
  9
$DIMCEN
 40
2.5
  9
$DIMTSZ
 40
0.0
  9
$DIMTOL
 70
     0
  9
$DIMLIM
 70
     0
  9
$DIMTIH
 70
     1
  9
$DIMTOH
 70
     1
  9
$DIMSE1
 70
     0
  9
$DIMSE2
 70
     0
  9
$DIMTAD
 70
     1
  9
$DIMZIN
 70
     1
  9
$DIMBLK
  1

  9
$DIMASO
 70
     1
  9
$DIMSHO
 70
     1
  9
$DIMPOST
  1

  9
$DIMAPOST
  1

  9
$DIMALT
 70
     0
  9
$DIMALTD
 70
     3
  9
$DIMALTF
 40
0.0393700787
  9
$DIMLFAC
 40
1.0
  9
$DIMTOFL
 70
     1
  9
$DIMTVP
 40
0.0
  9
$DIMTIX
 70
     0
  9
$DIMSOXD
 70
     0
  9
$DIMSAH
 70
     0
  9
$DIMBLK1
  1

  9
$DIMBLK2
  1

  9
$DIMSTYLE
  2
ISO-25
  9
$DIMCLRD
 70
     0
  9
$DIMCLRE
 70
     0
  9
$DIMCLRT
 70
     0
  9
$DIMTFAC
 40
1.0
  9
$DIMGAP
 40
1.524
  9
$DIMJUST
 70
     0
  9
$DIMSD1
 70
     0
  9
$DIMSD2
 70
     0
  9
$DIMTOLJ
 70
     0
  9
$DIMTZIN
 70
     1
  9
$DIMALTZ
 70
     0
  9
$DIMALTTZ
 70
     0
  9
$DIMUPT
 70
     0
  9
$DIMDEC
 70
     2
  9
$DIMTDEC
 70
     2
  9
$DIMALTU
 70
     2
  9
$DIMALTTD
 70
     3
  9
$DIMTXSTY
  7
Standard
  9
$DIMAUNIT
 70
     0
  9
$DIMADEC
 70
     2
  9
$DIMALTRND
 40
0.0
  9
$DIMAZIN
 70
     0
  9
$DIMDSEP
 70
    44
  9
$DIMATFIT
 70
     3
  9
$DIMFRAC
 70
     0
  9
$DIMLDRBLK
  1

  9
$DIMLUNIT
 70
     2
  9
$DIMLWD
 70
    -2
  9
$DIMLWE
 70
    -2
  9
$DIMTMOVE
 70
     0
  9
$LUNITS
 70
     2
  9
$LUPREC
 70
     2
  9
$SKETCHINC
 40
1.0
  9
$FILLETRAD
 40
10.0
  9
$AUNITS
 70
     0
  9
$AUPREC
 70
     2
  9
$MENU
  1
.
  9
$ELEVATION
 40
0.0
  9
$PELEVATION
 40
0.0
  9
$THICKNESS
 40
0.0
  9
$LIMCHECK
 70
     0
  9
$CHAMFERA
 40
0.0
  9
$CHAMFERB
 40
0.0
  9
$CHAMFERC
 40
0.0
  9
$CHAMFERD
 40
0.0
  9
$SKPOLY
 70
     0
  9
$TDCREATE
 40
2460595.513722558
  9
$TDUCREATE
 40
2460595.180389225
  9
$TDUPDATE
 40
2460595.513723044
  9
$TDUUPDATE
 40
2460595.180389711
  9
$TDINDWG
 40
0.0000000116
  9
$TDUSRTIMER
 40
0.0000000116
  9
$USRTIMER
 70
     1
  9
$ANGBASE
 50
0.0
  9
$ANGDIR
 70
     0
  9
$PDMODE
 70
     0
  9
$PDSIZE
 40
-1.0
  9
$PLINEWID
 40
0.0
  9
$SPLFRAME
 70
     0
  9
$SPLINETYPE
 70
     6
  9
$SPLINESEGS
 70
     8
  9
$HANDSEED
  5
3A8
  9
$SURFTAB1
 70
     6
  9
$SURFTAB2
 70
     6
  9
$SURFTYPE
 70
     6
  9
$SURFU
 70
     6
  9
$SURFV
 70
     6
  9
$UCSBASE
  2

  9
$UCSNAME
  2

  9
$UCSORG
 10
0.0
 20
0.0
 30
0.0
  9
$UCSXDIR
 10
1.0
 20
0.0
 30
0.0
  9
$UCSYDIR
 10
0.0
 20
1.0
 30
0.0
  9
$UCSORTHOREF
  2

  9
$UCSORTHOVIEW
 70
     0
  9
$UCSORGTOP
 10
0.0
 20
0.0
 30
0.0
  9
$UCSORGBOTTOM
 10
0.0
 20
0.0
 30
0.0
  9
$UCSORGLEFT
 10
0.0
 20
0.0
 30
0.0
  9
$UCSORGRIGHT
 10
0.0
 20
0.0
 30
0.0
  9
$UCSORGFRONT
 10
0.0
 20
0.0
 30
0.0
  9
$UCSORGBACK
 10
0.0
 20
0.0
 30
0.0
  9
$PUCSBASE
  2

  9
$PUCSNAME
  2

  9
$PUCSORG
 10
0.0
 20
0.0
 30
0.0
  9
$PUCSXDIR
 10
1.0
 20
0.0
 30
0.0
  9
$PUCSYDIR
 10
0.0
 20
1.0
 30
0.0
  9
$PUCSORTHOREF
  2

  9
$PUCSORTHOVIEW
 70
     0
  9
$PUCSORGTOP
 10
0.0
 20
0.0
 30
0.0
  9
$PUCSORGBOTTOM
 10
0.0
 20
0.0
 30
0.0
  9
$PUCSORGLEFT
 10
0.0
 20
0.0
 30
0.0
  9
$PUCSORGRIGHT
 10
0.0
 20
0.0
 30
0.0
  9
$PUCSORGFRONT
 10
0.0
 20
0.0
 30
0.0
  9
$PUCSORGBACK
 10
0.0
 20
0.0
 30
0.0
  9
$USERI1
 70
     0
  9
$USERI2
 70
     0
  9
$USERI3
 70
     0
  9
$USERI4
 70
     0
  9
$USERI5
 70
     0
  9
$USERR1
 40
0.0
  9
$USERR2
 40
0.0
  9
$USERR3
 40
0.0
  9
$USERR4
 40
0.0
  9
$USERR5
 40
0.0
  9
$WORLDVIEW
 70
     1
  9
$SHADEDGE
 70
     3
  9
$SHADEDIF
 70
    70
  9
$TILEMODE
 70
     1
  9
$MAXACTVP
 70
    64
  9
$PINSBASE
 10
0.0
 20
0.0
 30
0.0
  9
$PLIMCHECK
 70
     0
  9
$PEXTMIN
 10
1.0000000000E+20
 20
1.0000000000E+20
 30
1.0000000000E+20
  9
$PEXTMAX
 10
-1.0000000000E+20
 20
-1.0000000000E+20
 30
-1.0000000000E+20
  9
$PLIMMIN
 10
0.0
 20
0.0
  9
$PLIMMAX
 10
420.0
 20
297.0
  9
$UNITMODE
 70
     0
  9
$VISRETAIN
 70
     1
  9
$PLINEGEN
 70
     0
  9
$PSLTSCALE
 70
     1
  9
$TREEDEPTH
 70
  3020
  9
$CMLSTYLE
  2
Standard
  9
$CMLJUST
 70
     0
  9
$CMLSCALE
 40
20.0
  9
$PROXYGRAPHICS
 70
     1
  9
$MEASUREMENT
 70
     1
  9
$CELWEIGHT
370
    -1
  9
$ENDCAPS
280
     0
  9
$JOINSTYLE
280
     0
  9
$LWDISPLAY
290
     1
  9
$INSUNITS
 70
     4
  9
$HYPERLINKBASE
  1

  9
$STYLESHEET
  1

  9
$XEDIT
290
     1
  9
$CEPSNTYPE
380
     0
  9
$PSTYLEMODE
290
     1
  9
$FINGERPRINTGUID
  2
{4a8f8cad-5bda-4a3c-9724-cf252ae9476e}
  9
$VERSIONGUID
  2
{FAEB1C32-E019-11D5-929B-00C0DF256EC4}
  9
$EXTNAMES
290
     1
  9
$PSVPSCALE
 40
0.0
  9
$OLESTARTUP
290
     0
  0
ENDSEC
  0
SECTION
  2
CLASSES
  0
CLASS
  1
ACDBDICTIONARYWDFLT
  2
AcDbDictionaryWithDefault
  3
ObjectDBX Classes
 90
        0
280
     0
281
     0
  0
CLASS
  1
VISUALSTYLE
  2
AcDbVisualStyle
  3
ObjectDBX Classes
 90
     4095
280
     0
281
     0
  0
CLASS
  1
MATERIAL
  2
AcDbMaterial
  3
ObjectDBX Classes
 90
     1153
280
     0
281
     0
  0
CLASS
  1
SCALE
  2
AcDbScale
  3
ObjectDBX Classes
 90
     1153
280
     0
281
     0
  0
CLASS
  1
TABLESTYLE
  2
AcDbTableStyle
  3
ObjectDBX Classes
 90
     4095
280
     0
281
     0
  0
CLASS
  1
MLEADERSTYLE
  2
AcDbMLeaderStyle
  3
ACDB_MLEADERSTYLE_CLASS
 90
     4095
280
     0
281
     0
  0
CLASS
  1
SUN
  2
AcDbSun
  3
SCENEOE
 90
     1153
280
     0
281
     0
  0
CLASS
  1
ACDBPLACEHOLDER
  2
AcDbPlaceHolder
  3
ObjectDBX Classes
 90
        0
280
     0
281
     0
  0
CLASS
  1
LAYOUT
  2
AcDbLayout
  3
ObjectDBX Classes
 90
        0
280
     0
281
     0
  0
ENDSEC
  0
SECTION
  2
TABLES
  0
TABLE
  2
VPORT
  5
8
330
0
100
AcDbSymbolTable
 70
     1
  0
VPORT
  5
29
330
8
100
AcDbSymbolTableRecord
100
AcDbViewportTableRecord
  2
*Active
 70
     0
 10
0.0
 20
0.0
 11
1.0
 21
1.0
 12
210.0
 22
148.5
 13
0.0
 23
0.0
 14
10.0
 24
10.0
 15
10.0
 25
10.0
 16
0.0
 26
0.0
 36
1.0
 17
0.0
 27
0.0
 37
0.0
 40
297.0
 41
1.4141414141
 42
50.0
 43
0.0
 44
0.0
 50
0.0
 51
0.0
 71
     0
 72
  2000
 73
     1
 74
     3
 75
     0
 76
     0
 77
     0
 78
     0
281
     0
 65
     1
110
0.0
120
0.0
130
0.0
111
1.0
121
0.0
131
0.0
112
0.0
122
1.0
132
0.0
 79
     0
146
0.0
  0
ENDTAB
  0
TABLE
  2
LTYPE
  5
5
330
0
100
AcDbSymbolTable
 70
     6
  0
LTYPE
  5
14
330
5
100
AcDbSymbolTableRecord
100
AcDbLinetypeTableRecord
  2
ByBlock
 70
     0
  3

 72
    65
 73
     0
 40
0.0
  0
LTYPE
  5
15
330
5
100
AcDbSymbolTableRecord
100
AcDbLinetypeTableRecord
  2
ByLayer
 70
     0
  3

 72
    65
 73
     0
 40
0.0
  0
LTYPE
  5
16
330
5
100
AcDbSymbolTableRecord
100
AcDbLinetypeTableRecord
  2
Continuous
 70
     0
  3
Solid line
 72
    65
 73
     0
 40
0.0
  0
LTYPE
  5
6E
330
5
100
AcDbSymbolTableRecord
100
AcDbLinetypeTableRecord
  2
HIDDEN
 70
     0
  3
Hidden __ __ __ __ __ __ __ __ __ __ __ __ __ __
 72
    65
 73
     2
 40
1.905
 49
1.27
 74
     0
 49
-0.635
 74
     0
  0
LTYPE
  5
6F
330
5
100
AcDbSymbolTableRecord
100
AcDbLinetypeTableRecord
  2
PHANTOM
 70
     0
  3
Phantom ______  __  __  ______  __  __  ______
 72
    65
 73
     6
 40
12.7
 49
6.35
 74
     0
 49
-1.27
 74
     0
 49
1.27
 74
     0
 49
-1.27
 74
     0
 49
1.27
 74
     0
 49
-1.27
 74
     0
  0
LTYPE
  5
70
330
5
100
AcDbSymbolTableRecord
100
AcDbLinetypeTableRecord
  2
CENTER
 70
     0
  3
Center ____ _ ____ _ ____ _ ____ _ ____ _ ____
 72
    65
 73
     4
 40
10.16
 49
6.35
 74
     0
 49
-1.27
 74
     0
 49
1.27
 74
     0
 49
-1.27
 74
     0
  0
LTYPE
  5
71
330
5
100
AcDbSymbolTableRecord
100
AcDbLinetypeTableRecord
  2
CENTERX2
 70
     0
  3
Center (2x) ________  __  ________  __  _____
 72
    65
 73
     4
 40
20.32
 49
12.7
 74
     0
 49
-2.54
 74
     0
 49
2.54
 74
     0
 49
-2.54
 74
     0
  0
LTYPE
  5
72
330
5
100
AcDbSymbolTableRecord
100
AcDbLinetypeTableRecord
  2
DOT2
 70
     0
  3
Dot (.5x) ........................................
 72
    65
 73
     2
 40
0.635
 49
0.0
 74
     0
 49
-0.635
 74
     0
  0
ENDTAB
  0
TABLE
  2
LAYER
  5
2
330
0
100
AcDbSymbolTable
 70
     2
  0
LAYER
  5
10
330
2
100
AcDbSymbolTableRecord
100
AcDbLayerTableRecord
  2
0
 70
     0
 62
     7
  6
Continuous
370
    -3
390
F
  0
LAYER
  5
73
330
2
100
AcDbSymbolTableRecord
100
AcDbLayerTableRecord
  2
FORMAT
 70
     0
 62
     7
  6
Continuous
370
    -3
390
F
  0
ENDTAB
  0
TABLE
  2
STYLE
  5
3
330
0
100
AcDbSymbolTable
 70
     1
  0
STYLE
  5
11
330
3
100
AcDbSymbolTableRecord
100
AcDbTextStyleTableRecord
  2
Standard
 70
     0
 40
0.0
 41
1.0
 50
0.0
 71
     0
 42
3.5
  3
txt
  4

  0
ENDTAB
  0
TABLE
  2
VIEW
  5
6
330
0
100
AcDbSymbolTable
 70
     0
  0
ENDTAB
  0
TABLE
  2
UCS
  5
7
330
0
100
AcDbSymbolTable
 70
     0
  0
ENDTAB
  0
TABLE
  2
APPID
  5
9
330
0
100
AcDbSymbolTable
 70
     1
  0
APPID
  5
12
330
9
100
AcDbSymbolTableRecord
100
AcDbRegAppTableRecord
  2
ACAD
 70
     0
  0
ENDTAB
  0
TABLE
  2
DIMSTYLE
  5
A
330
0
100
AcDbSymbolTable
 70
     1
100
AcDbDimStyleTable
  0
DIMSTYLE
105
27
330
A
100
AcDbSymbolTableRecord
100
AcDbDimStyleTableRecord
  2
ISO-25
 70
     0
 41
2.5
 42
0.625
 43
3.75
 44
1.25
 73
     0
 74
     0
 77
     1
 78
     8
140
2.5
141
2.5
143
0.0393700787
147
0.625
171
     3
172
     1
178
     0
271
     2
272
     2
274
     3
278
    44
283
     0
284
     8
340
11
  0
ENDTAB
  0
TABLE
  2
BLOCK_RECORD
  5
1
330
0
100
AcDbSymbolTable
 70
     1
  0
BLOCK_RECORD
  5
1F
330
1
100
AcDbSymbolTableRecord
100
AcDbBlockTableRecord
  2
*Model_Space
340
22
  0
BLOCK_RECORD
  5
1B
330
1
100
AcDbSymbolTableRecord
100
AcDbBlockTableRecord
  2
*Paper_Space
340
1E
  0
BLOCK_RECORD
  5
23
330
1
100
AcDbSymbolTableRecord
100
AcDbBlockTableRecord
  2
*Paper_Space0
340
26
  0
ENDTAB
  0
ENDSEC
  0
SECTION
  2
BLOCKS
  0
BLOCK
  5
20
330
1F
100
AcDbEntity
  8
0
100
AcDbBlockBegin
  2
*Model_Space
 70
     0
 10
0.0
 20
0.0
 30
0.0
  3
*Model_Space
  1

  0
ENDBLK
  5
21
330
1F
100
AcDbEntity
  8
0
100
AcDbBlockEnd
  0
BLOCK
  5
1C
330
1B
100
AcDbEntity
 67
     1
  8
0
100
AcDbBlockBegin
  2
*Paper_Space
 70
     0
 10
0.0
 20
0.0
 30
0.0
  3
*Paper_Space
  1

  0
ENDBLK
  5
1D
330
1B
100
AcDbEntity
 67
     1
  8
0
100
AcDbBlockEnd
  0
BLOCK
  5
24
330
23
100
AcDbEntity
  8
0
100
AcDbBlockBegin
  2
*Paper_Space0
 70
     0
 10
0.0
 20
0.0
 30
0.0
  3
*Paper_Space0
  1

  0
ENDBLK
  5
25
330
23
100
AcDbEntity
  8
0
100
AcDbBlockEnd
  0
ENDSEC
  0
SECTION
  2
ENTITIES
  0
LINE
  5
74
330
1F
100
AcDbEntity
  8
0
  6
Continuous
 62
     7
370
    25
100
AcDbLine
 10
131.8709537841
 20
-108.2251600222
 30
0.0
 11
129.2164553839
 21
-109.6228861198
 31
0.0
  0
ARC
  5
75
330
1F
100
AcDbEntity
  8
0
  6
Continuous
 62
     7
370
    25
100
AcDbCircle
 10
128.3316225839
 20
-110.088794819
 30
0.0
 40
1.00000000000001
100
AcDbArc
 50
27.7690473645
 51
297.7690473645
  0
LINE
  5
76
330
1F
100
AcDbEntity
  8
0
  6
Continuous
 62
     7
370
    25
100
AcDbLine
 10
128.7975312831
 20
-110.9736276191
 30
0.0
 11
141.8429748605
 21
-135.74894602
 31
0.0
  0
ARC
  5
77
330
1F
100
AcDbEntity
  8
0
  6
Continuous
 62
     7
370
    25
100
AcDbCircle
 10
142.3088835597
 20
-136.63377882
 30
0.0
 40
1.00000000000001
100
AcDbArc
 50
117.7690473645
 51
27.7690473645
  0
LINE
  5
78
330
1F
100
AcDbEntity
  8
0
  6
Continuous
 62
     7
370
    25
100
AcDbLine
 10
145.8482147599
 20
-134.7701440232
 30
0.0
 11
143.1937163598
 21
-136.1678701208
 31
0.0
  0
ARC
  5
79
330
1F
100
AcDbEntity
  8
0
  6
Continuous
 62
     7
370
    25
100
AcDbCircle
 10
146.73304756
 20
-134.304235324
 30
0.0
 40
1.00000000000001
100
AcDbArc
 50
207.7690473645
 51
117.7690473645
  0
LINE
  5
7A
330
1F
100
AcDbEntity
  8
0
  6
Continuous
 62
     7
370
    25
100
AcDbLine
 10
133.2216952834
 20
-108.644084123
 30
0.0
 11
146.2671388608
 21
-133.419402524
 31
0.0
  0
ARC
  5
7B
330
1F
100
AcDbEntity
  8
0
  6
Continuous
 62
     7
370
    25
100
AcDbCircle
 10
132.7557865842
 20
-107.759251323
 30
0.0
 40
1.000000000000009
100
AcDbArc
 50
297.7690473645
 51
207.7690473645
  0
LINE
  5
7C
330
1F
100
AcDbEntity
  8
0
  6
Continuous
 62
     7
370
    25
100
AcDbLine
 10
104.112599967
 20
-93.7951983672
 30
0.0
 11
104.2293828591
 21
-90.7974722695
 31
0.0
  0
ARC
  5
7D
330
1F
100
AcDbEntity
  8
0
  6
Continuous
 62
     7
370
    25
100
AcDbCircle
 10
104.2683104897
 20
-89.798230237
 30
0.0
 40
0.9999999999999954
100
AcDbArc
 50
267.7690473645
 51
177.7690473645
  0
ARC
  5
7E
330
1F
100
AcDbEntity
  8
0
  6
Continuous
 62
     7
370
    25
100
AcDbCircle
 10
74.2910495139
 20
-88.6304013169
 30
0.0
 40
1.000000000000011
100
AcDbArc
 50
357.7690473645
 51
267.7690473645
  0
LINE
  5
7F
330
1F
100
AcDbEntity
  8
0
  6
Continuous
 62
     7
370
    25
100
AcDbLine
 10
74.1353389912
 20
-92.6273694471
 30
0.0
 11
74.2521218832
 21
-89.6296433494
 31
0.0
  0
ARC
  5
80
330
1F
100
AcDbEntity
  8
0
  6
Continuous
 62
     7
370
    25
100
AcDbCircle
 10
74.0964113605
 20
-93.6266114796
 30
0.0
 40
0.999999999999996
100
AcDbArc
 50
87.7690473645
 51
357.7690473645
  0
LINE
  5
81
330
1F
100
AcDbEntity
  8
0
  6
Continuous
 62
     7
370
    25
100
AcDbLine
 10
103.0744303038
 20
-94.755512769
 30
0.0
 11
75.0956533931
 21
-93.6655391103
 31
0.0
  0
ARC
  5
82
330
1F
100
AcDbEntity
  8
0
  6
Continuous
 62
     7
370
    25
100
AcDbCircle
 10
104.0736723364
 20
-94.7944403997
 30
0.0
 40
0.9999999999999966
100
AcDbArc
 50
177.7690473645
 51
87.7690473645
  0
LINE
  5
83
330
1F
100
AcDbEntity
  8
0
  6
Continuous
 62
     7
370
    25
100
AcDbLine
 10
130.4884902445
 20
-76.9707396219
 30
0.0
 11
133.0262057526
 21
-78.5707396219
 31
0.0
  0
ARC
  5
84
330
1F
100
AcDbEntity
  8
0
  6
Continuous
 62
     7
370
    25
100
AcDbCircle
 10
133.872110922
 20
-79.1040729552
 30
0.0
 40
1.000000000000016
100
AcDbArc
 50
147.7690473645
 51
57.7690473645
  0
LINE
  5
85
330
1F
100
AcDbEntity
  8
0
  6
Continuous
 62
     7
370
    25
100
AcDbLine
 10
134.4054442553
 20
-78.2581677859
 30
0.0
 11
149.3387775887
 21
-54.5728230437
 31
0.0
  0
ARC
  5
86
330
1F
100
AcDbEntity
  8
0
  6
Continuous
 62
     7
370
    25
100
AcDbCircle
 10
149.872110922
 20
-53.7269178744
 30
0.0
 40
1.000000000000012
100
AcDbArc
 50
237.7690473645
 51
147.7690473645
  0
LINE
  5
87
330
1F
100
AcDbEntity
  8
0
  6
Continuous
 62
     7
370
    25
100
AcDbLine
 10
146.4884902445
 20
-51.593584541
 30
0.0
 11
149.0262057527
 21
-53.193584541
 31
0.0
  0
ARC
  5
88
330
1F
100
AcDbEntity
  8
0
  6
Continuous
 62
     7
370
    25
100
AcDbCircle
 10
145.6425850751
 20
-51.0602512076
 30
0.0
 40
1.000000000000016
100
AcDbArc
 50
327.7690473645
 51
237.7690473645
  0
LINE
  5
89
330
1F
100
AcDbEntity
  8
0
  6
Continuous
 62
     7
370
    25
100
AcDbLine
 10
130.1759184084
 20
-75.5915011192
 30
0.0
 11
145.1092517418
 21
-51.906156377
 31
0.0
  0
ARC
  5
8A
330
1F
100
AcDbEntity
  8
0
  6
Continuous
 62
     7
370
    25
100
AcDbCircle
 10
129.6425850751
 20
-76.4374062885
 30
0.0
 40
0.9999999999999964
100
AcDbArc
 50
57.7690473645
 51
327.7690473645
  0
CIRCLE
  5
8B
330
1F
100
AcDbEntity
  8
0
  6
Continuous
 62
     7
370
    25
100
AcDbCircle
 10
122.1573479985
 20
-92.9970326704
 30
0.0
 40
6.0
  0
ARC
  5
8C
330
1F
100
AcDbEntity
  8
0
  6
Continuous
 62
     7
370
    25
100
AcDbCircle
 10
98.672110922
 20
-51.0602512076
 30
0.0
 40
1.000000000000005
100
AcDbArc
 50
302.2309526355
 51
212.2309526355
  0
LINE
  5
8D
330
1F
100
AcDbEntity
  8
0
  6
Continuous
 62
     7
370
    25
100
AcDbLine
 10
95.2884902444
 20
-53.193584541
 30
0.0
 11
97.8262057526
 21
-51.593584541
 31
0.0
  0
ARC
  5
8E
330
1F
100
AcDbEntity
  8
0
  6
Continuous
 62
     7
370
    25
100
AcDbCircle
 10
94.4425850751
 20
-53.7269178744
 30
0.0
 40
1.000000000000001
100
AcDbArc
 50
32.2309526355
 51
302.2309526355
  0
LINE
  5
8F
330
1F
100
AcDbEntity
  8
0
  6
Continuous
 62
     7
370
    25
100
AcDbLine
 10
109.9092517418
 20
-78.2581677859
 30
0.0
 11
94.9759184084
 21
-54.5728230437
 31
0.0
  0
ARC
  5
90
330
1F
100
AcDbEntity
  8
0
  6
Continuous
 62
     7
370
    25
100
AcDbCircle
 10
110.4425850751
 20
-79.1040729552
 30
0.0
 40
1.000000000000008
100
AcDbArc
 50
122.2309526355
 51
32.2309526355
  0
LINE
  5
91
330
1F
100
AcDbEntity
  8
0
  6
Continuous
 62
     7
370
    25
100
AcDbLine
 10
111.2884902445
 20
-78.5707396219
 30
0.0
 11
113.8262057526
 21
-76.9707396219
 31
0.0
  0
ARC
  5
92
330
1F
100
AcDbEntity
  8
0
  6
Continuous
 62
     7
370
    25
100
AcDbCircle
 10
114.672110922
 20
-76.4374062885
 30
0.0
 40
1.000000000000001
100
AcDbArc
 50
212.2309526355
 51
122.2309526355
  0
LINE
  5
93
330
1F
100
AcDbEntity
  8
0
  6
Continuous
 62
     7
370
    25
100
AcDbLine
 10
114.1387775886
 20
-75.5915011192
 30
0.0
 11
99.2054442553
 21
-51.906156377
 31
0.0
  0
ARC
  5
94
330
1F
100
AcDbEntity
  8
0
  6
Continuous
 62
     7
370
    25
100
AcDbCircle
 10
97.5816484371
 20
-134.304235324
 30
0.0
 40
1.000000000000003
100
AcDbArc
 50
62.2309526355
 51
332.2309526355
  0
LINE
  5
95
330
1F
100
AcDbEntity
  8
0
  6
Continuous
 62
     7
370
    25
100
AcDbLine
 10
101.1209796373
 20
-136.1678701208
 30
0.0
 11
98.4664812371
 21
-134.7701440232
 31
0.0
  0
ARC
  5
96
330
1F
100
AcDbEntity
  8
0
  6
Continuous
 62
     7
370
    25
100
AcDbCircle
 10
102.0058124374
 20
-136.63377882
 30
0.0
 40
1.000000000000023
100
AcDbArc
 50
152.2309526355
 51
62.2309526355
  0
LINE
  5
97
330
1F
100
AcDbEntity
  8
0
  6
Continuous
 62
     7
370
    25
100
AcDbLine
 10
115.517164714
 20
-110.9736276191
 30
0.0
 11
102.4717211366
 21
-135.74894602
 31
0.0
  0
ARC
  5
98
330
1F
100
AcDbEntity
  8
0
  6
Continuous
 62
     7
370
    25
100
AcDbCircle
 10
115.9830734132
 20
-110.088794819
 30
0.0
 40
0.9999999999999974
100
AcDbArc
 50
242.2309526355
 51
152.2309526355
  0
LINE
  5
99
330
1F
100
AcDbEntity
  8
0
  6
Continuous
 62
     7
370
    25
100
AcDbLine
 10
115.0982406131
 20
-109.6228861198
 30
0.0
 11
112.443742213
 21
-108.2251600222
 31
0.0
  0
ARC
  5
9A
330
1F
100
AcDbEntity
  8
0
  6
Continuous
 62
     7
370
    25
100
AcDbCircle
 10
111.5589094129
 20
-107.759251323
 30
0.0
 40
1.000000000000003
100
AcDbArc
 50
332.2309526355
 51
242.2309526355
  0
LINE
  5
9B
330
1F
100
AcDbEntity
  8
0
  6
Continuous
 62
     7
370
    25
100
AcDbLine
 10
111.0930007137
 20
-108.6440841231
 30
0.0
 11
98.0475571363
 21
-133.419402524
 31
0.0
  0
ARC
  5
9C
330
1F
100
AcDbEntity
  8
0
  6
Continuous
 62
     7
370
    25
100
AcDbCircle
 10
170.2182846366
 20
-93.6266114796
 30
0.0
 40
1.00000000000001
100
AcDbArc
 50
182.2309526355
 51
92.2309526355
  0
LINE
  5
9D
330
1F
100
AcDbEntity
  8
0
  6
Continuous
 62
     7
370
    25
100
AcDbLine
 10
170.0625741139
 20
-89.6296433494
 30
0.0
 11
170.1793570059
 21
-92.6273694471
 31
0.0
  0
ARC
  5
9E
330
1F
100
AcDbEntity
  8
0
  6
Continuous
 62
     7
370
    25
100
AcDbCircle
 10
170.0236464832
 20
-88.6304013169
 30
0.0
 40
1.000000000000024
100
AcDbArc
 50
272.2309526355
 51
182.2309526355
  0
LINE
  5
9F
330
1F
100
AcDbEntity
  8
0
  6
Continuous
 62
     7
370
    25
100
AcDbLine
 10
141.0456275399
 20
-89.7593026063
 30
0.0
 11
169.0244044507
 21
-88.6693289475
 31
0.0
  0
ARC
  5
A0
330
1F
100
AcDbEntity
  8
0
  6
Continuous
 62
     7
370
    25
100
AcDbCircle
 10
140.0463855074
 20
-89.798230237
 30
0.0
 40
1.000000000000125
100
AcDbArc
 50
2.2309526355
 51
272.2309526355
  0
LINE
  5
A1
330
1F
100
AcDbEntity
  8
0
  6
Continuous
 62
     7
370
    25
100
AcDbLine
 10
140.085313138
 20
-90.7974722695
 30
0.0
 11
140.2020960301
 21
-93.7951983672
 31
0.0
  0
ARC
  5
A2
330
1F
100
AcDbEntity
  8
0
  6
Continuous
 62
     7
370
    25
100
AcDbCircle
 10
140.2410236607
 20
-94.7944403997
 30
0.0
 40
1.00000000000003
100
AcDbArc
 50
92.2309526355
 51
2.2309526356
  0
LINE
  5
A3
330
1F
100
AcDbEntity
  8
0
  6
Continuous
 62
     7
370
    25
100
AcDbLine
 10
141.2402656933
 20
-94.755512769
 30
0.0
 11
169.219042604
 21
-93.6655391103
 31
0.0
  0
ARC
  5
A4
330
1F
100
AcDbEntity
  8
0
  6
Continuous
 62
     7
370
    25
100
AcDbCircle
 10
57.2054427147
 20
-130.4970326704
 30
0.0
 40
37.50000000000002
100
AcDbArc
 50
345.0
 51
120.0
  0
ARC
  5
A5
330
1F
100
AcDbEntity
  8
0
  6
Continuous
 62
     7
370
    25
100
AcDbCircle
 10
33.057715442
 20
-88.6719421467
 30
0.0
 40
10.79545454545456
100
AcDbArc
 50
177.2209193319
 51
300.0
  0
ARC
  5
A6
330
1F
100
AcDbEntity
  8
0
  6
Continuous
 62
     7
370
    25
100
AcDbCircle
 10
122.1573479985
 20
-92.9970326704
 30
0.0
 40
100.0
100
AcDbArc
 50
160.7542889843
 51
177.2209193319
  0
ARC
  5
A7
330
1F
100
AcDbEntity
  8
0
  6
Continuous
 62
     7
370
    25
100
AcDbCircle
 10
66.5660348669
 20
-73.5883458021
 30
0.0
 40
41.1179889808943
100
AcDbArc
 50
45.0
 51
160.7542889843
  0
ARC
  5
A8
330
1F
100
AcDbEntity
  8
0
  6
Continuous
 62
     7
370
    25
100
AcDbCircle
 10
122.1573479985
 20
-17.9970326704
 30
0.0
 40
37.50000000000002
100
AcDbArc
 50
225.0
 51
0.0
  0
ARC
  5
A9
330
1F
100
AcDbEntity
  8
0
  6
Continuous
 62
     7
370
    25
100
AcDbCircle
 10
170.452802544
 20
-17.9970326704
 30
0.0
 40
10.79545454545456
100
AcDbArc
 50
57.2209193319
 51
180.0
  0
ARC
  5
AA
330
1F
100
AcDbEntity
  8
0
  6
Continuous
 62
     7
370
    25
100
AcDbCircle
 10
122.1573479985
 20
-92.9970326704
 30
0.0
 40
100.0000000000001
100
AcDbArc
 50
40.7542889843
 51
57.2209193319
  0
ARC
  5
AB
330
1F
100
AcDbEntity
  8
0
  6
Continuous
 62
     7
370
    25
100
AcDbCircle
 10
166.7614204465
 20
-54.5578867029
 30
0.0
 40
41.11798898089433
100
AcDbArc
 50
285.0
 51
40.7542889843
  0
ARC
  5
AC
330
1F
100
AcDbEntity
  8
0
  6
Continuous
 62
     7
370
    25
100
AcDbCircle
 10
187.1092532824
 20
-130.4970326704
 30
0.0
 40
37.5
100
AcDbArc
 50
105.0
 51
240.0
  0
ARC
  5
AD
330
1F
100
AcDbEntity
  8
0
  6
Continuous
 62
     7
370
    25
100
AcDbCircle
 10
162.9615260097
 20
-172.3221231941
 30
0.0
 40
10.79545454545457
100
AcDbArc
 50
297.2209193319
 51
60.0
  0
ARC
  5
AE
330
1F
100
AcDbEntity
  8
0
  6
Continuous
 62
     7
370
    25
100
AcDbCircle
 10
122.1573479985
 20
-92.9970326704
 30
0.0
 40
100.0
100
AcDbArc
 50
280.7542889843
 51
297.2209193319
  0
ARC
  5
AF
330
1F
100
AcDbEntity
  8
0
  6
Continuous
 62
     7
370
    25
100
AcDbCircle
 10
133.1445886823
 20
-150.8448655063
 30
0.0
 40
41.11798898089434
100
AcDbArc
 50
165.0
 51
280.7542889843
  0
CIRCLE
  5
B0
330
1F
100
AcDbEntity
  8
0
  6
Continuous
 62
     7
370
    25
100
AcDbCircle
 10
110.1573479985
 20
-92.9970326704
 30
0.0
 40
1.649999999999991
  0
CIRCLE
  5
B1
330
1F
100
AcDbEntity
  8
0
  6
Continuous
 62
     7
370
    25
100
AcDbCircle
 10
122.1573479985
 20
-104.9970326704
 30
0.0
 40
1.650000000000006
  0
CIRCLE
  5
B2
330
1F
100
AcDbEntity
  8
0
  6
Continuous
 62
     7
370
    25
100
AcDbCircle
 10
134.1573479985
 20
-92.9970326704
 30
0.0
 40
1.649999999999991
  0
CIRCLE
  5
B3
330
1F
100
AcDbEntity
  8
0
  6
Continuous
 62
     7
370
    25
100
AcDbCircle
 10
122.1573479985
 20
-80.9970326704
 30
0.0
 40
1.649999999999991
  0
LINE
  5
B4
330
1F
100
AcDbEntity
  8
0
  6
Continuous
 62
     7
370
    25
100
AcDbLine
 10
103.2690684572
 20
-89.7593026063
 30
0.0
 11
75.2902915464
 21
-88.6693289475
 31
0.0
  0
LINE
  5
B5
330
1F
100
AcDbEntity
  8
0
  6
Continuous
 62
     7
370
    25
100
AcDbLine
 10
64.9800697262
 20
169.3092617609
 30
0.0
 11
68.5156036321
 21
165.7737278549
 31
0.0
  0
LINE
  5
B6
330
1F
100
AcDbEntity
  8
0
  6
Continuous
 62
     7
370
    25
100
AcDbLine
 10
68.5156036321
 20
165.7737278549
 30
0.0
 11
103.8709426914
 21
201.1290669143
 31
0.0
  0
LINE
  5
B7
330
1F
100
AcDbEntity
  8
0
  6
Continuous
 62
     7
370
    25
100
AcDbLine
 10
100.3354087855
 20
204.6646008202
 30
0.0
 11
103.8709426914
 21
201.1290669143
 31
0.0
  0
LINE
  5
B8
330
1F
100
AcDbEntity
  8
0
  6
Continuous
 62
     7
370
    25
100
AcDbLine
 10
100.3354087855
 20
204.6646008202
 30
0.0
 11
64.9800697262
 21
169.3092617609
 31
0.0
  0
LINE
  5
B9
330
1F
100
AcDbEntity
  8
0
  6
Continuous
 62
     7
370
    25
100
AcDbLine
 10
117.0578953601
 20
277.9556298897
 30
0.0
 11
113.5223614541
 21
281.4911637956
 31
0.0
  0
LINE
  5
BA
330
1F
100
AcDbEntity
  8
0
  6
Continuous
 62
     7
370
    25
100
AcDbLine
 10
117.0578953601
 20
277.9556298897
 30
0.0
 11
152.4132344194
 21
313.310968949
 31
0.0
  0
LINE
  5
BB
330
1F
100
AcDbEntity
  8
0
  6
Continuous
 62
     7
370
    25
100
AcDbLine
 10
152.4132344194
 20
313.310968949
 30
0.0
 11
148.8777005135
 21
316.846502855
 31
0.0
  0
LINE
  5
BC
330
1F
100
AcDbEntity
  8
0
  6
Continuous
 62
     7
370
    25
100
AcDbLine
 10
148.8777005135
 20
316.846502855
 30
0.0
 11
113.5223614541
 21
281.4911637956
 31
0.0
  0
ARC
  5
BD
330
1F
100
AcDbEntity
  8
0
  6
Continuous
 62
     7
370
    25
100
AcDbCircle
 10
87.9925543016
 20
307.0209709482
 30
0.0
 40
31.10459951990076
100
AcDbArc
 50
160.763144591
 51
315.0
  0
LINE
  5
BE
330
1F
100
AcDbEntity
  8
0
  6
Continuous
 62
     7
370
    25
100
AcDbLine
 10
109.9868275482
 20
285.0266977016
 30
0.0
 11
154.9371364534
 21
329.9770066067
 31
0.0
  0
ARC
  5
BF
330
1F
100
AcDbEntity
  8
0
  6
Continuous
 62
     7
370
    25
100
AcDbCircle
 10
108.6966520728
 20
241.3101153549
 30
0.0
 40
100.0
100
AcDbArc
 50
125.2234104002
 51
62.4576031237
  0
ARC
  5
C0
330
1F
100
AcDbEntity
  8
0
  6
Continuous
 62
     7
370
    25
100
AcDbCircle
 10
53.9038683829
 20
318.9164994706
 30
0.0
 40
4.999999999999995
100
AcDbArc
 50
340.763144591
 51
125.2234104002
  0
LINE
  5
C1
330
1F
100
AcDbEntity
  8
0
  6
Continuous
 62
     7
370
    25
100
AcDbLine
 10
79.596652423
 20
231.3101153549
 30
0.0
 11
79.596652423
 21
225.4112020689
 31
0.0
  0
ARC
  5
C2
330
1F
100
AcDbEntity
  8
0
  6
Continuous
 62
     7
370
    25
100
AcDbCircle
 10
83.596652423
 20
225.4112020689
 30
0.0
 40
4.000000000000046
100
AcDbArc
 50
180.0
 51
269.9999912787
  0
LINE
  5
C3
330
1F
100
AcDbEntity
  8
0
  6
Continuous
 62
     7
370
    25
100
AcDbLine
 10
85.1966526209
 20
221.4112018254
 30
0.0
 11
83.5966518141
 21
221.4112020689
 31
0.0
  0
ARC
  5
C4
330
1F
100
AcDbEntity
  8
0
  6
Continuous
 62
     7
370
    25
100
AcDbCircle
 10
85.1966520728
 20
217.8101153549
 30
0.0
 40
3.60108647042567
100
AcDbArc
 50
0.0000087213
 51
89.9999912787
  0
LINE
  5
C5
330
1F
100
AcDbEntity
  8
0
  6
Continuous
 62
     7
370
    25
100
AcDbLine
 10
88.7977387868
 20
216.2101150963
 30
0.0
 11
88.7977385432
 21
217.8101159031
 31
0.0
  0
ARC
  5
C6
330
1F
100
AcDbEntity
  8
0
  6
Continuous
 62
     7
370
    25
100
AcDbCircle
 10
92.7977387868
 20
216.2101157051
 30
0.0
 40
4.0
100
AcDbArc
 50
180.0000087213
 51
270.0
  0
LINE
  5
C7
330
1F
100
AcDbEntity
  8
0
  6
Continuous
 62
     7
370
    25
100
AcDbLine
 10
92.7977387868
 20
212.2101157051
 30
0.0
 11
124.5955653588
 21
212.2101157051
 31
0.0
  0
ARC
  5
C8
330
1F
100
AcDbEntity
  8
0
  6
Continuous
 62
     7
370
    25
100
AcDbCircle
 10
124.5955653588
 20
216.2101157051
 30
0.0
 40
4.000000000000032
100
AcDbArc
 50
270.0
 51
359.9999912787
  0
LINE
  5
C9
330
1F
100
AcDbEntity
  8
0
  6
Continuous
 62
     7
370
    25
100
AcDbLine
 10
128.5955656024
 20
217.8101159031
 30
0.0
 11
128.5955653588
 21
216.2101150963
 31
0.0
  0
ARC
  5
CA
330
1F
100
AcDbEntity
  8
0
  6
Continuous
 62
     7
370
    25
100
AcDbCircle
 10
132.1966520728
 20
217.8101153549
 30
0.0
 40
3.60108647042567
100
AcDbArc
 50
90.0000087213
 51
179.9999912787
  0
LINE
  5
CB
330
1F
100
AcDbEntity
  8
0
  6
Continuous
 62
     7
370
    25
100
AcDbLine
 10
133.7966523315
 20
221.4112020689
 30
0.0
 11
132.1966515247
 21
221.4112018254
 31
0.0
  0
ARC
  5
CC
330
1F
100
AcDbEntity
  8
0
  6
Continuous
 62
     7
370
    25
100
AcDbCircle
 10
133.7966517226
 20
225.4112020689
 30
0.0
 40
4.0
100
AcDbArc
 50
270.0000087213
 51
0.0
  0
LINE
  5
CD
330
1F
100
AcDbEntity
  8
0
  6
Continuous
 62
     7
370
    25
100
AcDbLine
 10
137.7966517226
 20
257.209028641
 30
0.0
 11
137.7966517226
 21
225.4112020689
 31
0.0
  0
ARC
  5
CE
330
1F
100
AcDbEntity
  8
0
  6
Continuous
 62
     7
370
    25
100
AcDbCircle
 10
133.7966517226
 20
257.209028641
 30
0.0
 40
4.000000000000046
100
AcDbArc
 50
0.0
 51
89.9999912787
  0
LINE
  5
CF
330
1F
100
AcDbEntity
  8
0
  6
Continuous
 62
     7
370
    25
100
AcDbLine
 10
132.1966515247
 20
261.2090288845
 30
0.0
 11
133.7966523315
 21
261.209028641
 31
0.0
  0
ARC
  5
D0
330
1F
100
AcDbEntity
  8
0
  6
Continuous
 62
     7
370
    25
100
AcDbCircle
 10
132.1966520728
 20
264.8101153549
 30
0.0
 40
3.60108647042567
100
AcDbArc
 50
180.0000087213
 51
269.9999912787
  0
LINE
  5
D1
330
1F
100
AcDbEntity
  8
0
  6
Continuous
 62
     7
370
    25
100
AcDbLine
 10
128.5955653588
 20
266.4101156136
 30
0.0
 11
128.5955656024
 21
264.8101148068
 31
0.0
  0
ARC
  5
D2
330
1F
100
AcDbEntity
  8
0
  6
Continuous
 62
     7
370
    25
100
AcDbCircle
 10
124.5955653588
 20
266.4101150048
 30
0.0
 40
4.0
100
AcDbArc
 50
0.0000087213
 51
90.0
  0
LINE
  5
D3
330
1F
100
AcDbEntity
  8
0
  6
Continuous
 62
     7
370
    25
100
AcDbLine
 10
92.7977387868
 20
270.4101150048
 30
0.0
 11
124.5955653588
 21
270.4101150048
 31
0.0
  0
ARC
  5
D4
330
1F
100
AcDbEntity
  8
0
  6
Continuous
 62
     7
370
    25
100
AcDbCircle
 10
92.7977387868
 20
266.4101150048
 30
0.0
 40
4.000000000000032
100
AcDbArc
 50
90.0
 51
179.9999912787
  0
LINE
  5
D5
330
1F
100
AcDbEntity
  8
0
  6
Continuous
 62
     7
370
    25
100
AcDbLine
 10
88.7977385432
 20
264.8101148068
 30
0.0
 11
88.7977387868
 21
266.4101156136
 31
0.0
  0
ARC
  5
D6
330
1F
100
AcDbEntity
  8
0
  6
Continuous
 62
     7
370
    25
100
AcDbCircle
 10
85.1966520728
 20
264.8101153549
 30
0.0
 40
3.60108647042567
100
AcDbArc
 50
270.0000087213
 51
359.9999912787
  0
LINE
  5
D7
330
1F
100
AcDbEntity
  8
0
  6
Continuous
 62
     7
370
    25
100
AcDbLine
 10
83.5966518141
 20
261.209028641
 30
0.0
 11
85.1966526209
 21
261.2090288845
 31
0.0
  0
ARC
  5
D8
330
1F
100
AcDbEntity
  8
0
  6
Continuous
 62
     7
370
    25
100
AcDbCircle
 10
83.596652423
 20
257.209028641
 30
0.0
 40
4.0
100
AcDbArc
 50
90.0000087213
 51
180.0
  0
LINE
  5
D9
330
1F
100
AcDbEntity
  8
0
  6
Continuous
 62
     7
370
    25
100
AcDbLine
 10
79.596652423
 20
257.209028641
 30
0.0
 11
79.596652423
 21
251.3101153549
 31
0.0
  0
ARC
  5
DA
330
1F
100
AcDbEntity
  8
0
  6
Continuous
 62
     7
370
    25
100
AcDbCircle
 10
79.596652423
 20
246.3101153549
 30
0.0
 40
5.0
100
AcDbArc
 50
90.0
 51
180.0
  0
LINE
  5
DB
330
1F
100
AcDbEntity
  8
0
  6
Continuous
 62
     7
370
    25
100
AcDbLine
 10
74.596652423
 20
236.3101153549
 30
0.0
 11
74.596652423
 21
246.3101153549
 31
0.0
  0
ARC
  5
DC
330
1F
100
AcDbEntity
  8
0
  6
Continuous
 62
     7
370
    25
100
AcDbCircle
 10
79.596652423
 20
236.3101153549
 30
0.0
 40
5.0
100
AcDbArc
 50
180.0
 51
270.0
  0
CIRCLE
  5
DD
330
1F
100
AcDbEntity
  8
0
  6
Continuous
 62
     7
370
    25
100
AcDbCircle
 10
85.1966520728
 20
264.8101153549
 30
0.0
 40
2.099999999999966
  0
CIRCLE
  5
DE
330
1F
100
AcDbEntity
  8
0
  6
Continuous
 62
     7
370
    25
100
AcDbCircle
 10
85.1966520728
 20
217.8101153549
 30
0.0
 40
2.100000000000023
  0
CIRCLE
  5
DF
330
1F
100
AcDbEntity
  8
0
  6
Continuous
 62
     7
370
    25
100
AcDbCircle
 10
132.1966520728
 20
217.8101153549
 30
0.0
 40
2.100000000000023
  0
CIRCLE
  5
E0
330
1F
100
AcDbEntity
  8
0
  6
Continuous
 62
     7
370
    25
100
AcDbCircle
 10
132.1966520728
 20
264.8101153549
 30
0.0
 40
2.099999999999966
  0
CIRCLE
  5
E1
330
1F
100
AcDbEntity
  8
0
  6
Continuous
 62
     7
370
    25
100
AcDbCircle
 10
177.9786843755
 20
281.3101153549
 30
0.0
 40
1.249999999999943
  0
CIRCLE
  5
E2
330
1F
100
AcDbEntity
  8
0
  6
Continuous
 62
     7
370
    25
100
AcDbCircle
 10
108.6966520728
 20
161.3101153549
 30
0.0
 40
1.25
  0
CIRCLE
  5
E3
330
1F
100
AcDbEntity
  8
0
  6
Continuous
 62
     7
370
    25
100
AcDbCircle
 10
39.41461977
 20
281.3101153549
 30
0.0
 40
1.249999999999943
  0
LINE
  5
E4
330
1F
100
AcDbEntity
  8
0
  6
Continuous
 62
     7
370
    25
100
AcDbLine
 10
125.6436413944
 20
326.1031168406
 30
0.0
 11
134.6436413944
 21
326.1031168406
 31
0.0
  0
ARC
  5
E5
330
1F
100
AcDbEntity
  8
0
  6
Continuous
 62
     7
370
    25
100
AcDbCircle
 10
124.6436413944
 20
326.1031168406
 30
0.0
 40
1.0
100
AcDbArc
 50
0.0
 51
270.0
  0
LINE
  5
E6
330
1F
100
AcDbEntity
  8
0
  6
Continuous
 62
     7
370
    25
100
AcDbLine
 10
124.6436413944
 20
323.1031168406
 30
0.0
 11
124.6436413944
 21
325.1031168406
 31
0.0
  0
LINE
  5
E7
330
1F
100
AcDbEntity
  8
0
  6
Continuous
 62
     7
370
    25
100
AcDbLine
 10
122.6436413944
 20
321.1031168406
 30
0.0
 11
124.6436413944
 21
323.1031168406
 31
0.0
  0
LINE
  5
E8
330
1F
100
AcDbEntity
  8
0
  6
Continuous
 62
     7
370
    25
100
AcDbLine
 10
76.6436413944
 20
321.1031168406
 30
0.0
 11
122.6436413944
 21
321.1031168406
 31
0.0
  0
LINE
  5
E9
330
1F
100
AcDbEntity
  8
0
  6
Continuous
 62
     7
370
    25
100
AcDbLine
 10
74.6436413944
 20
323.1031168406
 30
0.0
 11
76.6436413944
 21
321.1031168406
 31
0.0
  0
LINE
  5
EA
330
1F
100
AcDbEntity
  8
0
  6
Continuous
 62
     7
370
    25
100
AcDbLine
 10
74.6436413944
 20
323.1031168406
 30
0.0
 11
74.6436413944
 21
325.1031168406
 31
0.0
  0
ARC
  5
EB
330
1F
100
AcDbEntity
  8
0
  6
Continuous
 62
     7
370
    25
100
AcDbCircle
 10
74.6436413944
 20
326.1031168406
 30
0.0
 40
1.0
100
AcDbArc
 50
270.0
 51
180.0
  0
LINE
  5
EC
330
1F
100
AcDbEntity
  8
0
  6
Continuous
 62
     7
370
    25
100
AcDbLine
 10
73.6436413944
 20
326.1031168406
 30
0.0
 11
64.6436413944
 21
326.1031168406
 31
0.0
  0
LINE
  5
ED
330
1F
100
AcDbEntity
  8
0
  6
Continuous
 62
     7
370
    25
100
AcDbLine
 10
64.6436413944
 20
326.1031168406
 30
0.0
 11
64.6436413944
 21
351.1031168406
 31
0.0
  0
LINE
  5
EE
330
1F
100
AcDbEntity
  8
0
  6
Continuous
 62
     7
370
    25
100
AcDbLine
 10
134.6436413944
 20
351.1031168406
 30
0.0
 11
64.6436413944
 21
351.1031168406
 31
0.0
  0
LINE
  5
EF
330
1F
100
AcDbEntity
  8
0
  6
Continuous
 62
     7
370
    25
100
AcDbLine
 10
134.6436413944
 20
326.1031168406
 30
0.0
 11
134.6436413944
 21
351.1031168406
 31
0.0
  0
ARC
  5
F0
330
1F
100
AcDbEntity
  8
0
  6
Continuous
 62
     7
370
    25
100
AcDbCircle
 10
-12.4584968495
 20
280.0996153094
 30
0.0
 40
2.0
100
AcDbArc
 50
270.0
 51
0.0
  0
ARC
  5
F1
330
1F
100
AcDbEntity
  8
0
  6
Continuous
 62
     7
370
    25
100
AcDbCircle
 10
-30.4584968495
 20
276.0996153094
 30
0.0
 40
2.000000000000004
100
AcDbArc
 50
90.0
 51
180.0
  0
ARC
  5
F2
330
1F
100
AcDbEntity
  8
0
  6
Continuous
 62
     7
370
    25
100
AcDbCircle
 10
-30.4584968495
 20
275.0996153094
 30
0.0
 40
2.000000000000004
100
AcDbArc
 50
180.0
 51
270.0
  0
ARC
  5
F3
330
1F
100
AcDbEntity
  8
0
  6
Continuous
 62
     7
370
    25
100
AcDbCircle
 10
-12.4584968495
 20
271.0996153094
 30
0.0
 40
2.0
100
AcDbArc
 50
0.0
 51
90.0
  0
ARC
  5
F4
330
1F
100
AcDbEntity
  8
0
  6
Continuous
 62
     7
370
    25
100
AcDbCircle
 10
-12.4584968495
 20
240.0996153094
 30
0.0
 40
2.0
100
AcDbArc
 50
270.0
 51
0.0
  0
ARC
  5
F5
330
1F
100
AcDbEntity
  8
0
  6
Continuous
 62
     7
370
    25
100
AcDbCircle
 10
-30.4584968495
 20
236.0996153094
 30
0.0
 40
2.000000000000004
100
AcDbArc
 50
90.0
 51
180.0
  0
ARC
  5
F6
330
1F
100
AcDbEntity
  8
0
  6
Continuous
 62
     7
370
    25
100
AcDbCircle
 10
-30.4584968495
 20
235.0996153094
 30
0.0
 40
2.0
100
AcDbArc
 50
180.0
 51
270.0
  0
ARC
  5
F7
330
1F
100
AcDbEntity
  8
0
  6
Continuous
 62
     7
370
    25
100
AcDbCircle
 10
-12.4584968495
 20
231.0996153094
 30
0.0
 40
2.000000000000002
100
AcDbArc
 50
0.0
 51
90.0
  0
ARC
  5
F8
330
1F
100
AcDbEntity
  8
0
  6
Continuous
 62
     7
370
    25
100
AcDbCircle
 10
-12.4584968495
 20
200.0996153094
 30
0.0
 40
2.000000000000002
100
AcDbArc
 50
270.0
 51
0.0
  0
ARC
  5
F9
330
1F
100
AcDbEntity
  8
0
  6
Continuous
 62
     7
370
    25
100
AcDbCircle
 10
-30.4584968495
 20
196.0996153094
 30
0.0
 40
2.0
100
AcDbArc
 50
90.0
 51
180.0
  0
ARC
  5
FA
330
1F
100
AcDbEntity
  8
0
  6
Continuous
 62
     7
370
    25
100
AcDbCircle
 10
-30.4584968495
 20
195.0996153094
 30
0.0
 40
2.0
100
AcDbArc
 50
180.0
 51
270.0
  0
ARC
  5
FB
330
1F
100
AcDbEntity
  8
0
  6
Continuous
 62
     7
370
    25
100
AcDbCircle
 10
-12.4584968495
 20
191.0996153094
 30
0.0
 40
2.000000000000005
100
AcDbArc
 50
0.0
 51
90.0
  0
ARC
  5
FC
330
1F
100
AcDbEntity
  8
0
  6
Continuous
 62
     7
370
    25
100
AcDbCircle
 10
-12.4584968495
 20
160.0996153094
 30
0.0
 40
2.000000000000028
100
AcDbArc
 50
270.0
 51
0.0
  0
ARC
  5
FD
330
1F
100
AcDbEntity
  8
0
  6
Continuous
 62
     7
370
    25
100
AcDbCircle
 10
-30.4584968495
 20
156.0996153094
 30
0.0
 40
2.0
100
AcDbArc
 50
90.0
 51
180.0
  0
ARC
  5
FE
330
1F
100
AcDbEntity
  8
0
  6
Continuous
 62
     7
370
    25
100
AcDbCircle
 10
-30.4584968495
 20
155.0996153094
 30
0.0
 40
2.0
100
AcDbArc
 50
180.0
 51
270.0
  0
ARC
  5
FF
330
1F
100
AcDbEntity
  8
0
  6
Continuous
 62
     7
370
    25
100
AcDbCircle
 10
-12.4584968495
 20
151.0996153094
 30
0.0
 40
2.000000000000002
100
AcDbArc
 50
0.0
 51
90.0
  0
ARC
  5
100
330
1F
100
AcDbEntity
  8
0
  6
Continuous
 62
     7
370
    25
100
AcDbCircle
 10
-12.4584968495
 20
120.0996153094
 30
0.0
 40
2.000000000000002
100
AcDbArc
 50
270.0
 51
0.0
  0
ARC
  5
101
330
1F
100
AcDbEntity
  8
0
  6
Continuous
 62
     7
370
    25
100
AcDbCircle
 10
-30.4584968495
 20
116.0996153094
 30
0.0
 40
2.000000000000014
100
AcDbArc
 50
90.0
 51
180.0
  0
ARC
  5
102
330
1F
100
AcDbEntity
  8
0
  6
Continuous
 62
     7
370
    25
100
AcDbCircle
 10
-30.4584968495
 20
115.0996153094
 30
0.0
 40
2.000000000000004
100
AcDbArc
 50
180.0
 51
270.0
  0
ARC
  5
103
330
1F
100
AcDbEntity
  8
0
  6
Continuous
 62
     7
370
    25
100
AcDbCircle
 10
-12.4584968495
 20
111.0996153094
 30
0.0
 40
2.000000000000002
100
AcDbArc
 50
0.0
 51
90.0
  0
ARC
  5
104
330
1F
100
AcDbEntity
  8
0
  6
Continuous
 62
     7
370
    25
100
AcDbCircle
 10
-53.4584968495
 20
320.5996153094
 30
0.0
 40
1.0
100
AcDbArc
 50
180.0
 51
89.9999999994
  0
LINE
  5
105
330
1F
100
AcDbEntity
  8
0
  6
Continuous
 62
     7
370
    25
100
AcDbLine
 10
-53.4584968495
 20
323.5996153094
 30
0.0
 11
-53.4584968495
 21
321.5996153094
 31
0.0
  0
LINE
  5
106
330
1F
100
AcDbEntity
  8
0
  6
Continuous
 62
     7
370
    25
100
AcDbLine
 10
-53.4584968495
 20
323.5996153094
 30
0.0
 11
-51.4584968495
 21
325.5996153094
 31
0.0
  0
LINE
  5
107
330
1F
100
AcDbEntity
  8
0
  6
Continuous
 62
     7
370
    25
100
AcDbLine
 10
-51.4584968495
 20
325.5996153094
 30
0.0
 11
-25.4584968495
 21
325.5996153094
 31
0.0
  0
LINE
  5
108
330
1F
100
AcDbEntity
  8
0
  6
Continuous
 62
     7
370
    25
100
AcDbLine
 10
-25.4584968495
 20
325.5996153094
 30
0.0
 11
-23.4584968495
 21
323.5996153094
 31
0.0
  0
LINE
  5
109
330
1F
100
AcDbEntity
  8
0
  6
Continuous
 62
     7
370
    25
100
AcDbLine
 10
-23.4584968495
 20
323.5996153094
 30
0.0
 11
-23.4584968495
 21
321.5996153094
 31
0.0
  0
ARC
  5
10A
330
1F
100
AcDbEntity
  8
0
  6
Continuous
 62
     7
370
    25
100
AcDbCircle
 10
-23.4584968495
 20
320.5996153094
 30
0.0
 40
1.0
100
AcDbArc
 50
90.0
 51
359.9999999998
  0
LINE
  5
10B
330
1F
100
AcDbEntity
  8
0
  6
Continuous
 62
     7
370
    25
100
AcDbLine
 10
-22.4584968495
 20
320.5996153094
 30
0.0
 11
-10.4584968495
 21
320.5996153094
 31
0.0
  0
LINE
  5
10C
330
1F
100
AcDbEntity
  8
0
  6
Continuous
 62
     7
370
    25
100
AcDbLine
 10
-10.4584968495
 20
280.0996153094
 30
0.0
 11
-10.4584968495
 21
320.5996153094
 31
0.0
  0
LINE
  5
10D
330
1F
100
AcDbEntity
  8
0
  6
Continuous
 62
     7
370
    25
100
AcDbLine
 10
-30.4584968495
 20
278.0996153094
 30
0.0
 11
-12.4584968495
 21
278.0996153094
 31
0.0
  0
LINE
  5
10E
330
1F
100
AcDbEntity
  8
0
  6
Continuous
 62
     7
370
    25
100
AcDbLine
 10
-32.4584968495
 20
276.0996153094
 30
0.0
 11
-32.4584968495
 21
275.0996153094
 31
0.0
  0
LINE
  5
10F
330
1F
100
AcDbEntity
  8
0
  6
Continuous
 62
     7
370
    25
100
AcDbLine
 10
-30.4584968495
 20
273.0996153094
 30
0.0
 11
-12.4584968495
 21
273.0996153094
 31
0.0
  0
LINE
  5
110
330
1F
100
AcDbEntity
  8
0
  6
Continuous
 62
     7
370
    25
100
AcDbLine
 10
-10.4584968495
 20
240.0996153094
 30
0.0
 11
-10.4584968495
 21
271.0996153094
 31
0.0
  0
LINE
  5
111
330
1F
100
AcDbEntity
  8
0
  6
Continuous
 62
     7
370
    25
100
AcDbLine
 10
-30.4584968495
 20
238.0996153094
 30
0.0
 11
-12.4584968495
 21
238.0996153094
 31
0.0
  0
LINE
  5
112
330
1F
100
AcDbEntity
  8
0
  6
Continuous
 62
     7
370
    25
100
AcDbLine
 10
-32.4584968495
 20
236.0996153094
 30
0.0
 11
-32.4584968495
 21
235.0996153094
 31
0.0
  0
LINE
  5
113
330
1F
100
AcDbEntity
  8
0
  6
Continuous
 62
     7
370
    25
100
AcDbLine
 10
-30.4584968495
 20
233.0996153094
 30
0.0
 11
-12.4584968495
 21
233.0996153094
 31
0.0
  0
LINE
  5
114
330
1F
100
AcDbEntity
  8
0
  6
Continuous
 62
     7
370
    25
100
AcDbLine
 10
-10.4584968495
 20
200.0996153094
 30
0.0
 11
-10.4584968495
 21
231.0996153094
 31
0.0
  0
LINE
  5
115
330
1F
100
AcDbEntity
  8
0
  6
Continuous
 62
     7
370
    25
100
AcDbLine
 10
-30.4584968495
 20
198.0996153094
 30
0.0
 11
-12.4584968495
 21
198.0996153094
 31
0.0
  0
LINE
  5
116
330
1F
100
AcDbEntity
  8
0
  6
Continuous
 62
     7
370
    25
100
AcDbLine
 10
-32.4584968495
 20
196.0996153094
 30
0.0
 11
-32.4584968495
 21
195.0996153094
 31
0.0
  0
LINE
  5
117
330
1F
100
AcDbEntity
  8
0
  6
Continuous
 62
     7
370
    25
100
AcDbLine
 10
-30.4584968495
 20
193.0996153094
 30
0.0
 11
-12.4584968495
 21
193.0996153094
 31
0.0
  0
LINE
  5
118
330
1F
100
AcDbEntity
  8
0
  6
Continuous
 62
     7
370
    25
100
AcDbLine
 10
-10.4584968495
 20
160.0996153094
 30
0.0
 11
-10.4584968495
 21
191.0996153094
 31
0.0
  0
LINE
  5
119
330
1F
100
AcDbEntity
  8
0
  6
Continuous
 62
     7
370
    25
100
AcDbLine
 10
-30.4584968495
 20
158.0996153094
 30
0.0
 11
-12.4584968495
 21
158.0996153094
 31
0.0
  0
LINE
  5
11A
330
1F
100
AcDbEntity
  8
0
  6
Continuous
 62
     7
370
    25
100
AcDbLine
 10
-32.4584968495
 20
156.0996153094
 30
0.0
 11
-32.4584968495
 21
155.0996153094
 31
0.0
  0
LINE
  5
11B
330
1F
100
AcDbEntity
  8
0
  6
Continuous
 62
     7
370
    25
100
AcDbLine
 10
-30.4584968495
 20
153.0996153094
 30
0.0
 11
-12.4584968495
 21
153.0996153094
 31
0.0
  0
LINE
  5
11C
330
1F
100
AcDbEntity
  8
0
  6
Continuous
 62
     7
370
    25
100
AcDbLine
 10
-10.4584968495
 20
120.0996153094
 30
0.0
 11
-10.4584968495
 21
151.0996153094
 31
0.0
  0
LINE
  5
11D
330
1F
100
AcDbEntity
  8
0
  6
Continuous
 62
     7
370
    25
100
AcDbLine
 10
-30.4584968495
 20
118.0996153094
 30
0.0
 11
-12.4584968495
 21
118.0996153094
 31
0.0
  0
LINE
  5
11E
330
1F
100
AcDbEntity
  8
0
  6
Continuous
 62
     7
370
    25
100
AcDbLine
 10
-32.4584968495
 20
116.0996153094
 30
0.0
 11
-32.4584968495
 21
115.0996153094
 31
0.0
  0
LINE
  5
11F
330
1F
100
AcDbEntity
  8
0
  6
Continuous
 62
     7
370
    25
100
AcDbLine
 10
-30.4584968495
 20
113.0996153094
 30
0.0
 11
-12.4584968495
 21
113.0996153094
 31
0.0
  0
LINE
  5
120
330
1F
100
AcDbEntity
  8
0
  6
Continuous
 62
     7
370
    25
100
AcDbLine
 10
-10.4584968495
 20
70.5996153094
 30
0.0
 11
-10.4584968495
 21
111.0996153094
 31
0.0
  0
LINE
  5
121
330
1F
100
AcDbEntity
  8
0
  6
Continuous
 62
     7
370
    25
100
AcDbLine
 10
-22.4584968495
 20
70.5996153094
 30
0.0
 11
-10.4584968495
 21
70.5996153094
 31
0.0
  0
ARC
  5
122
330
1F
100
AcDbEntity
  8
0
  6
Continuous
 62
     7
370
    25
100
AcDbCircle
 10
-23.4584968495
 20
70.5996153094
 30
0.0
 40
1.0
100
AcDbArc
 50
0.0000000002
 51
270.0
  0
LINE
  5
123
330
1F
100
AcDbEntity
  8
0
  6
Continuous
 62
     7
370
    25
100
AcDbLine
 10
-23.4584968495
 20
67.5996153094
 30
0.0
 11
-23.4584968495
 21
69.5996153094
 31
0.0
  0
LINE
  5
124
330
1F
100
AcDbEntity
  8
0
  6
Continuous
 62
     7
370
    25
100
AcDbLine
 10
-25.4584968495
 20
65.5996153094
 30
0.0
 11
-23.4584968495
 21
67.5996153094
 31
0.0
  0
LINE
  5
125
330
1F
100
AcDbEntity
  8
0
  6
Continuous
 62
     7
370
    25
100
AcDbLine
 10
-51.4584968495
 20
65.5996153094
 30
0.0
 11
-25.4584968495
 21
65.5996153094
 31
0.0
  0
LINE
  5
126
330
1F
100
AcDbEntity
  8
0
  6
Continuous
 62
     7
370
    25
100
AcDbLine
 10
-53.4584968495
 20
67.5996153094
 30
0.0
 11
-51.4584968495
 21
65.5996153094
 31
0.0
  0
LINE
  5
127
330
1F
100
AcDbEntity
  8
0
  6
Continuous
 62
     7
370
    25
100
AcDbLine
 10
-53.4584968495
 20
67.5996153094
 30
0.0
 11
-53.4584968495
 21
69.5996153094
 31
0.0
  0
ARC
  5
128
330
1F
100
AcDbEntity
  8
0
  6
Continuous
 62
     7
370
    25
100
AcDbCircle
 10
-53.4584968495
 20
70.5996153094
 30
0.0
 40
1.0
100
AcDbArc
 50
270.0000000006
 51
180.0
  0
LINE
  5
129
330
1F
100
AcDbEntity
  8
0
  6
Continuous
 62
     7
370
    25
100
AcDbLine
 10
-54.4584968495
 20
70.5996153094
 30
0.0
 11
-110.4584968495
 21
70.5996153094
 31
0.0
  0
LINE
  5
12A
330
1F
100
AcDbEntity
  8
0
  6
Continuous
 62
     7
370
    25
100
AcDbLine
 10
-140.4584968495
 20
320.5996153094
 30
0.0
 11
-110.4584968495
 21
70.5996153094
 31
0.0
  0
LINE
  5
12B
330
1F
100
AcDbEntity
  8
0
  6
Continuous
 62
     7
370
    25
100
AcDbLine
 10
-54.4584968495
 20
320.5996153094
 30
0.0
 11
-140.4584968495
 21
320.5996153094
 31
0.0
  0
LINE
  5
12C
330
1F
100
AcDbEntity
  8
0
  6
Continuous
 62
     7
370
    25
100
AcDbLine
 10
112.8546478151
 20
45.5703372833
 30
0.0
 11
110.2001494149
 21
44.1726111857
 31
0.0
  0
ARC
  5
12D
330
1F
100
AcDbEntity
  8
0
  6
Continuous
 62
     7
370
    25
100
AcDbCircle
 10
109.3153166149
 20
43.7067024865
 30
0.0
 40
1.000000000000013
100
AcDbArc
 50
27.7690473645
 51
297.7690473645
  0
LINE
  5
12E
330
1F
100
AcDbEntity
  8
0
  6
Continuous
 62
     7
370
    25
100
AcDbLine
 10
109.7812253141
 20
42.8218696865
 30
0.0
 11
122.8266688915
 21
18.0465512855
 31
0.0
  0
ARC
  5
12F
330
1F
100
AcDbEntity
  8
0
  6
Continuous
 62
     7
370
    25
100
AcDbCircle
 10
123.2925775907
 20
17.1617184855
 30
0.0
 40
1.000000000000008
100
AcDbArc
 50
117.7690473645
 51
27.7690473645
  0
LINE
  5
130
330
1F
100
AcDbEntity
  8
0
  6
Continuous
 62
     7
370
    25
100
AcDbLine
 10
126.8319087909
 20
19.0253532823
 30
0.0
 11
124.1774103907
 21
17.6276271847
 31
0.0
  0
ARC
  5
131
330
1F
100
AcDbEntity
  8
0
  6
Continuous
 62
     7
370
    25
100
AcDbCircle
 10
127.7167415909
 20
19.4912619815
 30
0.0
 40
1.000000000000014
100
AcDbArc
 50
207.7690473645
 51
117.7690473645
  0
LINE
  5
132
330
1F
100
AcDbEntity
  8
0
  6
Continuous
 62
     7
370
    25
100
AcDbLine
 10
114.2053893143
 20
45.1514131825
 30
0.0
 11
127.2508328917
 21
20.3760947816
 31
0.0
  0
ARC
  5
133
330
1F
100
AcDbEntity
  8
0
  6
Continuous
 62
     7
370
    25
100
AcDbCircle
 10
113.7394806151
 20
46.0362459825
 30
0.0
 40
1.000000000000003
100
AcDbArc
 50
297.7690473645
 51
207.7690473645
  0
LINE
  5
134
330
1F
100
AcDbEntity
  8
0
  6
Continuous
 62
     7
370
    25
100
AcDbLine
 10
85.096293998
 20
60.0002989384
 30
0.0
 11
85.21307689
 21
62.998025036
 31
0.0
  0
ARC
  5
135
330
1F
100
AcDbEntity
  8
0
  6
Continuous
 62
     7
370
    25
100
AcDbCircle
 10
85.2520045207
 20
63.9972670686
 30
0.0
 40
0.999999999999996
100
AcDbArc
 50
267.7690473645
 51
177.7690473645
  0
ARC
  5
136
330
1F
100
AcDbEntity
  8
0
  6
Continuous
 62
     7
370
    25
100
AcDbCircle
 10
55.2747435449
 20
65.1650959887
 30
0.0
 40
1.00000000000001
100
AcDbArc
 50
357.7690473645
 51
267.7690473645
  0
LINE
  5
137
330
1F
100
AcDbEntity
  8
0
  6
Continuous
 62
     7
370
    25
100
AcDbLine
 10
55.1190330222
 20
61.1681278585
 30
0.0
 11
55.2358159142
 21
64.1658539562
 31
0.0
  0
ARC
  5
138
330
1F
100
AcDbEntity
  8
0
  6
Continuous
 62
     7
370
    25
100
AcDbCircle
 10
55.0801053915
 20
60.168885826
 30
0.0
 40
1.000000000000003
100
AcDbArc
 50
87.7690473645
 51
357.7690473645
  0
LINE
  5
139
330
1F
100
AcDbEntity
  8
0
  6
Continuous
 62
     7
370
    25
100
AcDbLine
 10
84.0581243348
 20
59.0399845365
 30
0.0
 11
56.079347424
 21
60.1299581953
 31
0.0
  0
ARC
  5
13A
330
1F
100
AcDbEntity
  8
0
  6
Continuous
 62
     7
370
    25
100
AcDbCircle
 10
85.0573663673
 20
59.0010569058
 30
0.0
 40
0.9999999999999966
100
AcDbArc
 50
177.7690473645
 51
87.7690473645
  0
LINE
  5
13B
330
1F
100
AcDbEntity
  8
0
  6
Continuous
 62
     7
370
    25
100
AcDbLine
 10
111.4721842754
 20
76.8247576837
 30
0.0
 11
114.0098997836
 21
75.2247576836
 31
0.0
  0
ARC
  5
13C
330
1F
100
AcDbEntity
  8
0
  6
Continuous
 62
     7
370
    25
100
AcDbCircle
 10
114.855804953
 20
74.6914243503
 30
0.0
 40
1.000000000000004
100
AcDbArc
 50
147.7690473645
 51
57.7690473645
  0
LINE
  5
13D
330
1F
100
AcDbEntity
  8
0
  6
Continuous
 62
     7
370
    25
100
AcDbLine
 10
115.3891382863
 20
75.5373295197
 30
0.0
 11
130.3224716196
 21
99.2226742618
 31
0.0
  0
ARC
  5
13E
330
1F
100
AcDbEntity
  8
0
  6
Continuous
 62
     7
370
    25
100
AcDbCircle
 10
130.855804953
 20
100.0685794312
 30
0.0
 40
0.9999999999999964
100
AcDbArc
 50
237.7690473645
 51
147.7690473645
  0
LINE
  5
13F
330
1F
100
AcDbEntity
  8
0
  6
Continuous
 62
     7
370
    25
100
AcDbLine
 10
127.4721842755
 20
102.2019127646
 30
0.0
 11
130.0098997836
 21
100.6019127645
 31
0.0
  0
ARC
  5
140
330
1F
100
AcDbEntity
  8
0
  6
Continuous
 62
     7
370
    25
100
AcDbCircle
 10
126.6262791061
 20
102.7352460979
 30
0.0
 40
1.000000000000004
100
AcDbArc
 50
327.7690473645
 51
237.7690473645
  0
LINE
  5
141
330
1F
100
AcDbEntity
  8
0
  6
Continuous
 62
     7
370
    25
100
AcDbLine
 10
111.1596124394
 20
78.2039961864
 30
0.0
 11
126.0929457728
 21
101.8893409285
 31
0.0
  0
ARC
  5
142
330
1F
100
AcDbEntity
  8
0
  6
Continuous
 62
     7
370
    25
100
AcDbCircle
 10
110.6262791061
 20
77.358091017
 30
0.0
 40
1.000000000000004
100
AcDbArc
 50
57.7690473645
 51
327.7690473645
  0
CIRCLE
  5
143
330
1F
100
AcDbEntity
  8
0
  6
Continuous
 62
     7
370
    25
100
AcDbCircle
 10
103.1410420295
 20
60.7984646351
 30
0.0
 40
5.999999999999993
  0
ARC
  5
144
330
1F
100
AcDbEntity
  8
0
  6
Continuous
 62
     7
370
    25
100
AcDbCircle
 10
79.6558049529
 20
102.7352460979
 30
0.0
 40
1.000000000000008
100
AcDbArc
 50
302.2309526355
 51
212.2309526355
  0
LINE
  5
145
330
1F
100
AcDbEntity
  8
0
  6
Continuous
 62
     7
370
    25
100
AcDbLine
 10
76.2721842754
 20
100.6019127645
 30
0.0
 11
78.8098997836
 21
102.2019127646
 31
0.0
  0
ARC
  5
146
330
1F
100
AcDbEntity
  8
0
  6
Continuous
 62
     7
370
    25
100
AcDbCircle
 10
75.426279106
 20
100.0685794312
 30
0.0
 40
0.9999999999999933
100
AcDbArc
 50
32.2309526355
 51
302.2309526355
  0
LINE
  5
147
330
1F
100
AcDbEntity
  8
0
  6
Continuous
 62
     7
370
    25
100
AcDbLine
 10
90.8929457727
 20
75.5373295197
 30
0.0
 11
75.9596124394
 21
99.2226742618
 31
0.0
  0
ARC
  5
148
330
1F
100
AcDbEntity
  8
0
  6
Continuous
 62
     7
370
    25
100
AcDbCircle
 10
91.4262791061
 20
74.6914243503
 30
0.0
 40
1.000000000000008
100
AcDbArc
 50
122.2309526355
 51
32.2309526355
  0
LINE
  5
149
330
1F
100
AcDbEntity
  8
0
  6
Continuous
 62
     7
370
    25
100
AcDbLine
 10
92.2721842754
 20
75.2247576836
 30
0.0
 11
94.8098997836
 21
76.8247576837
 31
0.0
  0
ARC
  5
14A
330
1F
100
AcDbEntity
  8
0
  6
Continuous
 62
     7
370
    25
100
AcDbCircle
 10
95.6558049529
 20
77.358091017
 30
0.0
 40
1.000000000000008
100
AcDbArc
 50
212.2309526355
 51
122.2309526355
  0
LINE
  5
14B
330
1F
100
AcDbEntity
  8
0
  6
Continuous
 62
     7
370
    25
100
AcDbLine
 10
95.1224716196
 20
78.2039961864
 30
0.0
 11
80.1891382863
 21
101.8893409285
 31
0.0
  0
ARC
  5
14C
330
1F
100
AcDbEntity
  8
0
  6
Continuous
 62
     7
370
    25
100
AcDbCircle
 10
78.5653424681
 20
19.4912619815
 30
0.0
 40
0.999999999999994
100
AcDbArc
 50
62.2309526355
 51
332.2309526355
  0
LINE
  5
14D
330
1F
100
AcDbEntity
  8
0
  6
Continuous
 62
     7
370
    25
100
AcDbLine
 10
82.1046736683
 20
17.6276271847
 30
0.0
 11
79.4501752681
 21
19.0253532823
 31
0.0
  0
ARC
  5
14E
330
1F
100
AcDbEntity
  8
0
  6
Continuous
 62
     7
370
    25
100
AcDbCircle
 10
82.9895064683
 20
17.1617184855
 30
0.0
 40
1.000000000000007
100
AcDbArc
 50
152.2309526355
 51
62.2309526355
  0
LINE
  5
14F
330
1F
100
AcDbEntity
  8
0
  6
Continuous
 62
     7
370
    25
100
AcDbLine
 10
96.5008587449
 20
42.8218696865
 30
0.0
 11
83.4554151675
 21
18.0465512855
 31
0.0
  0
ARC
  5
150
330
1F
100
AcDbEntity
  8
0
  6
Continuous
 62
     7
370
    25
100
AcDbCircle
 10
96.9667674441
 20
43.7067024865
 30
0.0
 40
1.000000000000003
100
AcDbArc
 50
242.2309526355
 51
152.2309526355
  0
LINE
  5
151
330
1F
100
AcDbEntity
  8
0
  6
Continuous
 62
     7
370
    25
100
AcDbLine
 10
96.0819346441
 20
44.1726111857
 30
0.0
 11
93.4274362439
 21
45.5703372833
 31
0.0
  0
ARC
  5
152
330
1F
100
AcDbEntity
  8
0
  6
Continuous
 62
     7
370
    25
100
AcDbCircle
 10
92.5426034439
 20
46.0362459825
 30
0.0
 40
0.9999999999999908
100
AcDbArc
 50
332.2309526355
 51
242.2309526355
  0
LINE
  5
153
330
1F
100
AcDbEntity
  8
0
  6
Continuous
 62
     7
370
    25
100
AcDbLine
 10
92.0766947447
 20
45.1514131825
 30
0.0
 11
79.0312511673
 21
20.3760947815
 31
0.0
  0
ARC
  5
154
330
1F
100
AcDbEntity
  8
0
  6
Continuous
 62
     7
370
    25
100
AcDbCircle
 10
151.2019786675
 20
60.168885826
 30
0.0
 40
1.000000000000024
100
AcDbArc
 50
182.2309526355
 51
92.2309526355
  0
LINE
  5
155
330
1F
100
AcDbEntity
  8
0
  6
Continuous
 62
     7
370
    25
100
AcDbLine
 10
151.0462681448
 20
64.1658539562
 30
0.0
 11
151.1630510369
 21
61.1681278585
 31
0.0
  0
ARC
  5
156
330
1F
100
AcDbEntity
  8
0
  6
Continuous
 62
     7
370
    25
100
AcDbCircle
 10
151.0073405142
 20
65.1650959887
 30
0.0
 40
1.00000000000001
100
AcDbArc
 50
272.2309526355
 51
182.2309526355
  0
LINE
  5
157
330
1F
100
AcDbEntity
  8
0
  6
Continuous
 62
     7
370
    25
100
AcDbLine
 10
122.0293215709
 20
64.0361946992
 30
0.0
 11
150.0080984816
 21
65.126168358
 31
0.0
  0
ARC
  5
158
330
1F
100
AcDbEntity
  8
0
  6
Continuous
 62
     7
370
    25
100
AcDbCircle
 10
121.0300795383
 20
63.9972670686
 30
0.0
 40
1.000000000000131
100
AcDbArc
 50
2.2309526355
 51
272.2309526355
  0
LINE
  5
159
330
1F
100
AcDbEntity
  8
0
  6
Continuous
 62
     7
370
    25
100
AcDbLine
 10
121.069007169
 20
62.998025036
 30
0.0
 11
121.185790061
 21
60.0002989384
 31
0.0
  0
ARC
  5
15A
330
1F
100
AcDbEntity
  8
0
  6
Continuous
 62
     7
370
    25
100
AcDbCircle
 10
121.2247176917
 20
59.0010569058
 30
0.0
 40
1.000000000000031
100
AcDbArc
 50
92.2309526355
 51
2.2309526356
  0
LINE
  5
15B
330
1F
100
AcDbEntity
  8
0
  6
Continuous
 62
     7
370
    25
100
AcDbLine
 10
122.2239597242
 20
59.0399845365
 30
0.0
 11
150.202736635
 21
60.1299581953
 31
0.0
  0
ARC
  5
15C
330
1F
100
AcDbEntity
  8
0
  6
Continuous
 62
     7
370
    25
100
AcDbCircle
 10
38.1891367457
 20
23.2984646351
 30
0.0
 40
37.50000000000001
100
AcDbArc
 50
345.0
 51
120.0
  0
ARC
  5
15D
330
1F
100
AcDbEntity
  8
0
  6
Continuous
 62
     7
370
    25
100
AcDbCircle
 10
14.0414094729
 20
65.1235551588
 30
0.0
 40
10.79545454545456
100
AcDbArc
 50
177.2209193319
 51
300.0
  0
ARC
  5
15E
330
1F
100
AcDbEntity
  8
0
  6
Continuous
 62
     7
370
    25
100
AcDbCircle
 10
103.1410420295
 20
60.7984646351
 30
0.0
 40
100.0
100
AcDbArc
 50
160.7542889843
 51
177.2209193319
  0
ARC
  5
15F
330
1F
100
AcDbEntity
  8
0
  6
Continuous
 62
     7
370
    25
100
AcDbCircle
 10
47.5497288979
 20
80.2071515035
 30
0.0
 40
41.1179889808943
100
AcDbArc
 50
45.0
 51
160.7542889843
  0
ARC
  5
160
330
1F
100
AcDbEntity
  8
0
  6
Continuous
 62
     7
370
    25
100
AcDbCircle
 10
103.1410420295
 20
135.7984646351
 30
0.0
 40
37.50000000000002
100
AcDbArc
 50
225.0
 51
0.0
  0
ARC
  5
161
330
1F
100
AcDbEntity
  8
0
  6
Continuous
 62
     7
370
    25
100
AcDbCircle
 10
151.436496575
 20
135.7984646351
 30
0.0
 40
10.79545454545457
100
AcDbArc
 50
57.2209193319
 51
180.0
  0
ARC
  5
162
330
1F
100
AcDbEntity
  8
0
  6
Continuous
 62
     7
370
    25
100
AcDbCircle
 10
103.1410420295
 20
60.7984646351
 30
0.0
 40
100.0
100
AcDbArc
 50
40.7542889843
 51
57.2209193319
  0
ARC
  5
163
330
1F
100
AcDbEntity
  8
0
  6
Continuous
 62
     7
370
    25
100
AcDbCircle
 10
147.7451144774
 20
99.2376106027
 30
0.0
 40
41.11798898089433
100
AcDbArc
 50
285.0
 51
40.7542889843
  0
ARC
  5
164
330
1F
100
AcDbEntity
  8
0
  6
Continuous
 62
     7
370
    25
100
AcDbCircle
 10
168.0929473133
 20
23.2984646351
 30
0.0
 40
37.50000000000001
100
AcDbArc
 50
105.0
 51
240.0
  0
ARC
  5
165
330
1F
100
AcDbEntity
  8
0
  6
Continuous
 62
     7
370
    25
100
AcDbCircle
 10
143.9452200406
 20
-18.5266258886
 30
0.0
 40
10.79545454545456
100
AcDbArc
 50
297.2209193319
 51
60.0
  0
ARC
  5
166
330
1F
100
AcDbEntity
  8
0
  6
Continuous
 62
     7
370
    25
100
AcDbCircle
 10
103.1410420295
 20
60.7984646351
 30
0.0
 40
100.0
100
AcDbArc
 50
280.7542889843
 51
297.2209193319
  0
ARC
  5
167
330
1F
100
AcDbEntity
  8
0
  6
Continuous
 62
     7
370
    25
100
AcDbCircle
 10
114.1282827132
 20
2.9506317992
 30
0.0
 40
41.11798898089432
100
AcDbArc
 50
165.0
 51
280.7542889843
  0
CIRCLE
  5
168
330
1F
100
AcDbEntity
  8
0
  6
Continuous
 62
     7
370
    25
100
AcDbCircle
 10
91.1410420295
 20
60.7984646351
 30
0.0
 40
1.649999999999999
  0
CIRCLE
  5
169
330
1F
100
AcDbEntity
  8
0
  6
Continuous
 62
     7
370
    25
100
AcDbCircle
 10
103.1410420295
 20
48.7984646351
 30
0.0
 40
1.649999999999999
  0
CIRCLE
  5
16A
330
1F
100
AcDbEntity
  8
0
  6
Continuous
 62
     7
370
    25
100
AcDbCircle
 10
115.1410420295
 20
60.7984646351
 30
0.0
 40
1.649999999999999
  0
CIRCLE
  5
16B
330
1F
100
AcDbEntity
  8
0
  6
Continuous
 62
     7
370
    25
100
AcDbCircle
 10
103.1410420295
 20
72.7984646351
 30
0.0
 40
1.650000000000006
  0
LINE
  5
16C
330
1F
100
AcDbEntity
  8
0
  6
Continuous
 62
     7
370
    25
100
AcDbLine
 10
84.2527624882
 20
64.0361946992
 30
0.0
 11
56.2739855774
 21
65.126168358
 31
0.0
  0
ARC
  5
16D
330
1F
100
AcDbEntity
  8
0
  6
Continuous
 62
     7
370
    25
100
AcDbCircle
 10
-160.3953284529
 20
290.762103556
 30
0.0
 40
2.0
100
AcDbArc
 50
270.0
 51
0.0
  0
ARC
  5
16E
330
1F
100
AcDbEntity
  8
0
  6
Continuous
 62
     7
370
    25
100
AcDbCircle
 10
-178.3953284529
 20
286.762103556
 30
0.0
 40
2.0
100
AcDbArc
 50
90.0
 51
180.0
  0
ARC
  5
16F
330
1F
100
AcDbEntity
  8
0
  6
Continuous
 62
     7
370
    25
100
AcDbCircle
 10
-178.3953284529
 20
285.762103556
 30
0.0
 40
2.0
100
AcDbArc
 50
180.0
 51
270.0
  0
ARC
  5
170
330
1F
100
AcDbEntity
  8
0
  6
Continuous
 62
     7
370
    25
100
AcDbCircle
 10
-160.3953284529
 20
281.762103556
 30
0.0
 40
2.000000000000057
100
AcDbArc
 50
0.0
 51
90.0
  0
ARC
  5
171
330
1F
100
AcDbEntity
  8
0
  6
Continuous
 62
     7
370
    25
100
AcDbCircle
 10
-160.3953284529
 20
250.762103556
 30
0.0
 40
2.000000000000028
100
AcDbArc
 50
270.0
 51
0.0
  0
ARC
  5
172
330
1F
100
AcDbEntity
  8
0
  6
Continuous
 62
     7
370
    25
100
AcDbCircle
 10
-178.3953284529
 20
246.762103556
 30
0.0
 40
2.0
100
AcDbArc
 50
90.0
 51
180.0
  0
ARC
  5
173
330
1F
100
AcDbEntity
  8
0
  6
Continuous
 62
     7
370
    25
100
AcDbCircle
 10
-178.3953284529
 20
245.762103556
 30
0.0
 40
2.0
100
AcDbArc
 50
180.0
 51
270.0
  0
ARC
  5
174
330
1F
100
AcDbEntity
  8
0
  6
Continuous
 62
     7
370
    25
100
AcDbCircle
 10
-160.3953284529
 20
241.762103556
 30
0.0
 40
2.0
100
AcDbArc
 50
0.0
 51
90.0
  0
ARC
  5
175
330
1F
100
AcDbEntity
  8
0
  6
Continuous
 62
     7
370
    25
100
AcDbCircle
 10
-160.3953284529
 20
210.762103556
 30
0.0
 40
2.0
100
AcDbArc
 50
270.0
 51
0.0
  0
ARC
  5
176
330
1F
100
AcDbEntity
  8
0
  6
Continuous
 62
     7
370
    25
100
AcDbCircle
 10
-178.3953284529
 20
206.762103556
 30
0.0
 40
2.0
100
AcDbArc
 50
90.0
 51
180.0
  0
ARC
  5
177
330
1F
100
AcDbEntity
  8
0
  6
Continuous
 62
     7
370
    25
100
AcDbCircle
 10
-178.3953284529
 20
205.762103556
 30
0.0
 40
2.0
100
AcDbArc
 50
180.0
 51
270.0
  0
ARC
  5
178
330
1F
100
AcDbEntity
  8
0
  6
Continuous
 62
     7
370
    25
100
AcDbCircle
 10
-160.3953284529
 20
201.762103556
 30
0.0
 40
2.0
100
AcDbArc
 50
0.0
 51
90.0
  0
ARC
  5
179
330
1F
100
AcDbEntity
  8
0
  6
Continuous
 62
     7
370
    25
100
AcDbCircle
 10
-160.3953284529
 20
170.762103556
 30
0.0
 40
2.0
100
AcDbArc
 50
270.0
 51
0.0
  0
ARC
  5
17A
330
1F
100
AcDbEntity
  8
0
  6
Continuous
 62
     7
370
    25
100
AcDbCircle
 10
-178.3953284529
 20
166.762103556
 30
0.0
 40
2.0
100
AcDbArc
 50
90.0
 51
180.0
  0
ARC
  5
17B
330
1F
100
AcDbEntity
  8
0
  6
Continuous
 62
     7
370
    25
100
AcDbCircle
 10
-178.3953284529
 20
165.762103556
 30
0.0
 40
2.0
100
AcDbArc
 50
180.0
 51
270.0
  0
ARC
  5
17C
330
1F
100
AcDbEntity
  8
0
  6
Continuous
 62
     7
370
    25
100
AcDbCircle
 10
-160.3953284529
 20
161.762103556
 30
0.0
 40
2.0
100
AcDbArc
 50
0.0
 51
90.0
  0
ARC
  5
17D
330
1F
100
AcDbEntity
  8
0
  6
Continuous
 62
     7
370
    25
100
AcDbCircle
 10
-160.3953284529
 20
130.762103556
 30
0.0
 40
2.0
100
AcDbArc
 50
270.0
 51
0.0
  0
ARC
  5
17E
330
1F
100
AcDbEntity
  8
0
  6
Continuous
 62
     7
370
    25
100
AcDbCircle
 10
-178.3953284529
 20
126.762103556
 30
0.0
 40
2.000000000000014
100
AcDbArc
 50
90.0
 51
180.0
  0
ARC
  5
17F
330
1F
100
AcDbEntity
  8
0
  6
Continuous
 62
     7
370
    25
100
AcDbCircle
 10
-178.3953284529
 20
125.762103556
 30
0.0
 40
2.0
100
AcDbArc
 50
180.0
 51
270.0
  0
ARC
  5
180
330
1F
100
AcDbEntity
  8
0
  6
Continuous
 62
     7
370
    25
100
AcDbCircle
 10
-160.3953284529
 20
121.762103556
 30
0.0
 40
2.0
100
AcDbArc
 50
0.0
 51
90.0
  0
ARC
  5
181
330
1F
100
AcDbEntity
  8
0
  6
Continuous
 62
     7
370
    25
100
AcDbCircle
 10
-201.3953284529
 20
331.262103556
 30
0.0
 40
1.0
100
AcDbArc
 50
180.0
 51
89.9999999994
  0
LINE
  5
182
330
1F
100
AcDbEntity
  8
0
  6
Continuous
 62
     7
370
    25
100
AcDbLine
 10
-201.3953284529
 20
334.262103556
 30
0.0
 11
-201.3953284529
 21
332.262103556
 31
0.0
  0
LINE
  5
183
330
1F
100
AcDbEntity
  8
0
  6
Continuous
 62
     7
370
    25
100
AcDbLine
 10
-201.3953284529
 20
334.262103556
 30
0.0
 11
-199.3953284529
 21
336.262103556
 31
0.0
  0
LINE
  5
184
330
1F
100
AcDbEntity
  8
0
  6
Continuous
 62
     7
370
    25
100
AcDbLine
 10
-199.3953284529
 20
336.262103556
 30
0.0
 11
-173.3953284529
 21
336.262103556
 31
0.0
  0
LINE
  5
185
330
1F
100
AcDbEntity
  8
0
  6
Continuous
 62
     7
370
    25
100
AcDbLine
 10
-173.3953284529
 20
336.262103556
 30
0.0
 11
-171.3953284529
 21
334.262103556
 31
0.0
  0
LINE
  5
186
330
1F
100
AcDbEntity
  8
0
  6
Continuous
 62
     7
370
    25
100
AcDbLine
 10
-171.3953284529
 20
334.262103556
 30
0.0
 11
-171.3953284529
 21
332.262103556
 31
0.0
  0
ARC
  5
187
330
1F
100
AcDbEntity
  8
0
  6
Continuous
 62
     7
370
    25
100
AcDbCircle
 10
-171.3953284529
 20
331.262103556
 30
0.0
 40
1.0
100
AcDbArc
 50
90.0
 51
359.9999999998
  0
LINE
  5
188
330
1F
100
AcDbEntity
  8
0
  6
Continuous
 62
     7
370
    25
100
AcDbLine
 10
-170.3953284529
 20
331.262103556
 30
0.0
 11
-158.3953284529
 21
331.262103556
 31
0.0
  0
LINE
  5
189
330
1F
100
AcDbEntity
  8
0
  6
Continuous
 62
     7
370
    25
100
AcDbLine
 10
-158.3953284529
 20
290.762103556
 30
0.0
 11
-158.3953284529
 21
331.262103556
 31
0.0
  0
LINE
  5
18A
330
1F
100
AcDbEntity
  8
0
  6
Continuous
 62
     7
370
    25
100
AcDbLine
 10
-178.3953284529
 20
288.762103556
 30
0.0
 11
-160.3953284529
 21
288.762103556
 31
0.0
  0
LINE
  5
18B
330
1F
100
AcDbEntity
  8
0
  6
Continuous
 62
     7
370
    25
100
AcDbLine
 10
-180.3953284529
 20
286.762103556
 30
0.0
 11
-180.3953284529
 21
285.762103556
 31
0.0
  0
LINE
  5
18C
330
1F
100
AcDbEntity
  8
0
  6
Continuous
 62
     7
370
    25
100
AcDbLine
 10
-178.3953284529
 20
283.762103556
 30
0.0
 11
-160.3953284529
 21
283.762103556
 31
0.0
  0
LINE
  5
18D
330
1F
100
AcDbEntity
  8
0
  6
Continuous
 62
     7
370
    25
100
AcDbLine
 10
-158.3953284529
 20
250.762103556
 30
0.0
 11
-158.3953284529
 21
281.762103556
 31
0.0
  0
LINE
  5
18E
330
1F
100
AcDbEntity
  8
0
  6
Continuous
 62
     7
370
    25
100
AcDbLine
 10
-178.3953284529
 20
248.762103556
 30
0.0
 11
-160.3953284529
 21
248.762103556
 31
0.0
  0
LINE
  5
18F
330
1F
100
AcDbEntity
  8
0
  6
Continuous
 62
     7
370
    25
100
AcDbLine
 10
-180.3953284529
 20
246.762103556
 30
0.0
 11
-180.3953284529
 21
245.762103556
 31
0.0
  0
LINE
  5
190
330
1F
100
AcDbEntity
  8
0
  6
Continuous
 62
     7
370
    25
100
AcDbLine
 10
-178.3953284529
 20
243.762103556
 30
0.0
 11
-160.3953284529
 21
243.762103556
 31
0.0
  0
LINE
  5
191
330
1F
100
AcDbEntity
  8
0
  6
Continuous
 62
     7
370
    25
100
AcDbLine
 10
-158.3953284529
 20
210.762103556
 30
0.0
 11
-158.3953284529
 21
241.762103556
 31
0.0
  0
LINE
  5
192
330
1F
100
AcDbEntity
  8
0
  6
Continuous
 62
     7
370
    25
100
AcDbLine
 10
-178.3953284529
 20
208.762103556
 30
0.0
 11
-160.3953284529
 21
208.762103556
 31
0.0
  0
LINE
  5
193
330
1F
100
AcDbEntity
  8
0
  6
Continuous
 62
     7
370
    25
100
AcDbLine
 10
-180.3953284529
 20
206.762103556
 30
0.0
 11
-180.3953284529
 21
205.762103556
 31
0.0
  0
LINE
  5
194
330
1F
100
AcDbEntity
  8
0
  6
Continuous
 62
     7
370
    25
100
AcDbLine
 10
-178.3953284529
 20
203.762103556
 30
0.0
 11
-160.3953284529
 21
203.762103556
 31
0.0
  0
LINE
  5
195
330
1F
100
AcDbEntity
  8
0
  6
Continuous
 62
     7
370
    25
100
AcDbLine
 10
-158.3953284529
 20
170.762103556
 30
0.0
 11
-158.3953284529
 21
201.762103556
 31
0.0
  0
LINE
  5
196
330
1F
100
AcDbEntity
  8
0
  6
Continuous
 62
     7
370
    25
100
AcDbLine
 10
-178.3953284529
 20
168.762103556
 30
0.0
 11
-160.3953284529
 21
168.762103556
 31
0.0
  0
LINE
  5
197
330
1F
100
AcDbEntity
  8
0
  6
Continuous
 62
     7
370
    25
100
AcDbLine
 10
-180.3953284529
 20
166.762103556
 30
0.0
 11
-180.3953284529
 21
165.762103556
 31
0.0
  0
LINE
  5
198
330
1F
100
AcDbEntity
  8
0
  6
Continuous
 62
     7
370
    25
100
AcDbLine
 10
-178.3953284529
 20
163.762103556
 30
0.0
 11
-160.3953284529
 21
163.762103556
 31
0.0
  0
LINE
  5
199
330
1F
100
AcDbEntity
  8
0
  6
Continuous
 62
     7
370
    25
100
AcDbLine
 10
-158.3953284529
 20
130.762103556
 30
0.0
 11
-158.3953284529
 21
161.762103556
 31
0.0
  0
LINE
  5
19A
330
1F
100
AcDbEntity
  8
0
  6
Continuous
 62
     7
370
    25
100
AcDbLine
 10
-178.3953284529
 20
128.762103556
 30
0.0
 11
-160.3953284529
 21
128.762103556
 31
0.0
  0
LINE
  5
19B
330
1F
100
AcDbEntity
  8
0
  6
Continuous
 62
     7
370
    25
100
AcDbLine
 10
-180.3953284529
 20
126.762103556
 30
0.0
 11
-180.3953284529
 21
125.762103556
 31
0.0
  0
LINE
  5
19C
330
1F
100
AcDbEntity
  8
0
  6
Continuous
 62
     7
370
    25
100
AcDbLine
 10
-178.3953284529
 20
123.762103556
 30
0.0
 11
-160.3953284529
 21
123.762103556
 31
0.0
  0
LINE
  5
19D
330
1F
100
AcDbEntity
  8
0
  6
Continuous
 62
     7
370
    25
100
AcDbLine
 10
-158.3953284529
 20
81.262103556
 30
0.0
 11
-158.3953284529
 21
121.762103556
 31
0.0
  0
LINE
  5
19E
330
1F
100
AcDbEntity
  8
0
  6
Continuous
 62
     7
370
    25
100
AcDbLine
 10
-170.3953284529
 20
81.262103556
 30
0.0
 11
-158.3953284529
 21
81.262103556
 31
0.0
  0
ARC
  5
19F
330
1F
100
AcDbEntity
  8
0
  6
Continuous
 62
     7
370
    25
100
AcDbCircle
 10
-171.3953284529
 20
81.262103556
 30
0.0
 40
1.0
100
AcDbArc
 50
0.0000000002
 51
270.0
  0
LINE
  5
1A0
330
1F
100
AcDbEntity
  8
0
  6
Continuous
 62
     7
370
    25
100
AcDbLine
 10
-171.3953284529
 20
78.262103556
 30
0.0
 11
-171.3953284529
 21
80.262103556
 31
0.0
  0
LINE
  5
1A1
330
1F
100
AcDbEntity
  8
0
  6
Continuous
 62
     7
370
    25
100
AcDbLine
 10
-173.3953284529
 20
76.262103556
 30
0.0
 11
-171.3953284529
 21
78.262103556
 31
0.0
  0
LINE
  5
1A2
330
1F
100
AcDbEntity
  8
0
  6
Continuous
 62
     7
370
    25
100
AcDbLine
 10
-199.3953284529
 20
76.262103556
 30
0.0
 11
-173.3953284529
 21
76.262103556
 31
0.0
  0
LINE
  5
1A3
330
1F
100
AcDbEntity
  8
0
  6
Continuous
 62
     7
370
    25
100
AcDbLine
 10
-201.3953284529
 20
78.262103556
 30
0.0
 11
-199.3953284529
 21
76.262103556
 31
0.0
  0
LINE
  5
1A4
330
1F
100
AcDbEntity
  8
0
  6
Continuous
 62
     7
370
    25
100
AcDbLine
 10
-201.3953284529
 20
78.262103556
 30
0.0
 11
-201.3953284529
 21
80.262103556
 31
0.0
  0
ARC
  5
1A5
330
1F
100
AcDbEntity
  8
0
  6
Continuous
 62
     7
370
    25
100
AcDbCircle
 10
-201.3953284529
 20
81.262103556
 30
0.0
 40
1.0
100
AcDbArc
 50
270.0000000006
 51
180.0
  0
LINE
  5
1A6
330
1F
100
AcDbEntity
  8
0
  6
Continuous
 62
     7
370
    25
100
AcDbLine
 10
-202.3953284529
 20
81.262103556
 30
0.0
 11
-258.3953284529
 21
81.262103556
 31
0.0
  0
LINE
  5
1A7
330
1F
100
AcDbEntity
  8
0
  6
Continuous
 62
     7
370
    25
100
AcDbLine
 10
-288.3953284529
 20
331.262103556
 30
0.0
 11
-258.3953284529
 21
81.262103556
 31
0.0
  0
LINE
  5
1A8
330
1F
100
AcDbEntity
  8
0
  6
Continuous
 62
     7
370
    25
100
AcDbLine
 10
-202.3953284529
 20
331.262103556
 30
0.0
 11
-288.3953284529
 21
331.262103556
 31
0.0
  0
ARC
  5
1A9
330
1F
100
AcDbEntity
  8
0
  6
Continuous
 62
     7
370
    25
100
AcDbCircle
 10
-307.8387361812
 20
300.9080428226
 30
0.0
 40
2.0
100
AcDbArc
 50
270.0
 51
0.0
  0
ARC
  5
1AA
330
1F
100
AcDbEntity
  8
0
  6
Continuous
 62
     7
370
    25
100
AcDbCircle
 10
-325.8387361812
 20
296.9080428226
 30
0.0
 40
2.0
100
AcDbArc
 50
90.0
 51
180.0
  0
ARC
  5
1AB
330
1F
100
AcDbEntity
  8
0
  6
Continuous
 62
     7
370
    25
100
AcDbCircle
 10
-325.8387361812
 20
295.9080428226
 30
0.0
 40
2.0
100
AcDbArc
 50
180.0
 51
270.0
  0
ARC
  5
1AC
330
1F
100
AcDbEntity
  8
0
  6
Continuous
 62
     7
370
    25
100
AcDbCircle
 10
-307.8387361812
 20
291.9080428226
 30
0.0
 40
2.0
100
AcDbArc
 50
0.0
 51
90.0
  0
ARC
  5
1AD
330
1F
100
AcDbEntity
  8
0
  6
Continuous
 62
     7
370
    25
100
AcDbCircle
 10
-307.8387361812
 20
260.9080428226
 30
0.0
 40
2.0
100
AcDbArc
 50
270.0
 51
0.0
  0
ARC
  5
1AE
330
1F
100
AcDbEntity
  8
0
  6
Continuous
 62
     7
370
    25
100
AcDbCircle
 10
-325.8387361812
 20
256.9080428226
 30
0.0
 40
2.0
100
AcDbArc
 50
90.0
 51
180.0
  0
ARC
  5
1AF
330
1F
100
AcDbEntity
  8
0
  6
Continuous
 62
     7
370
    25
100
AcDbCircle
 10
-325.8387361812
 20
255.9080428226
 30
0.0
 40
2.0
100
AcDbArc
 50
180.0
 51
270.0
  0
ARC
  5
1B0
330
1F
100
AcDbEntity
  8
0
  6
Continuous
 62
     7
370
    25
100
AcDbCircle
 10
-307.8387361812
 20
251.9080428226
 30
0.0
 40
2.0
100
AcDbArc
 50
0.0
 51
90.0
  0
ARC
  5
1B1
330
1F
100
AcDbEntity
  8
0
  6
Continuous
 62
     7
370
    25
100
AcDbCircle
 10
-307.8387361812
 20
220.9080428226
 30
0.0
 40
2.0
100
AcDbArc
 50
270.0
 51
0.0
  0
ARC
  5
1B2
330
1F
100
AcDbEntity
  8
0
  6
Continuous
 62
     7
370
    25
100
AcDbCircle
 10
-325.8387361812
 20
216.9080428226
 30
0.0
 40
2.0
100
AcDbArc
 50
90.0
 51
180.0
  0
ARC
  5
1B3
330
1F
100
AcDbEntity
  8
0
  6
Continuous
 62
     7
370
    25
100
AcDbCircle
 10
-325.8387361812
 20
215.9080428226
 30
0.0
 40
2.0
100
AcDbArc
 50
180.0
 51
270.0
  0
ARC
  5
1B4
330
1F
100
AcDbEntity
  8
0
  6
Continuous
 62
     7
370
    25
100
AcDbCircle
 10
-307.8387361812
 20
211.9080428226
 30
0.0
 40
2.000000000000028
100
AcDbArc
 50
0.0
 51
90.0
  0
ARC
  5
1B5
330
1F
100
AcDbEntity
  8
0
  6
Continuous
 62
     7
370
    25
100
AcDbCircle
 10
-307.8387361812
 20
180.9080428226
 30
0.0
 40
2.0
100
AcDbArc
 50
270.0
 51
0.0
  0
ARC
  5
1B6
330
1F
100
AcDbEntity
  8
0
  6
Continuous
 62
     7
370
    25
100
AcDbCircle
 10
-325.8387361812
 20
176.9080428226
 30
0.0
 40
2.0
100
AcDbArc
 50
90.0
 51
180.0
  0
ARC
  5
1B7
330
1F
100
AcDbEntity
  8
0
  6
Continuous
 62
     7
370
    25
100
AcDbCircle
 10
-325.8387361812
 20
175.9080428226
 30
0.0
 40
2.0
100
AcDbArc
 50
180.0
 51
270.0
  0
ARC
  5
1B8
330
1F
100
AcDbEntity
  8
0
  6
Continuous
 62
     7
370
    25
100
AcDbCircle
 10
-307.8387361812
 20
171.9080428226
 30
0.0
 40
2.0
100
AcDbArc
 50
0.0
 51
90.0
  0
ARC
  5
1B9
330
1F
100
AcDbEntity
  8
0
  6
Continuous
 62
     7
370
    25
100
AcDbCircle
 10
-307.8387361812
 20
140.9080428226
 30
0.0
 40
2.0
100
AcDbArc
 50
270.0
 51
0.0
  0
ARC
  5
1BA
330
1F
100
AcDbEntity
  8
0
  6
Continuous
 62
     7
370
    25
100
AcDbCircle
 10
-325.8387361812
 20
136.9080428226
 30
0.0
 40
2.0
100
AcDbArc
 50
90.0
 51
180.0
  0
ARC
  5
1BB
330
1F
100
AcDbEntity
  8
0
  6
Continuous
 62
     7
370
    25
100
AcDbCircle
 10
-325.8387361812
 20
135.9080428226
 30
0.0
 40
2.0
100
AcDbArc
 50
180.0
 51
270.0
  0
ARC
  5
1BC
330
1F
100
AcDbEntity
  8
0
  6
Continuous
 62
     7
370
    25
100
AcDbCircle
 10
-307.8387361812
 20
131.9080428226
 30
0.0
 40
2.0
100
AcDbArc
 50
0.0
 51
90.0
  0
ARC
  5
1BD
330
1F
100
AcDbEntity
  8
0
  6
Continuous
 62
     7
370
    25
100
AcDbCircle
 10
-348.8387361812
 20
341.4080428226
 30
0.0
 40
1.0
100
AcDbArc
 50
180.0
 51
89.9999999994
  0
LINE
  5
1BE
330
1F
100
AcDbEntity
  8
0
  6
Continuous
 62
     7
370
    25
100
AcDbLine
 10
-348.8387361812
 20
344.4080428226
 30
0.0
 11
-348.8387361811
 21
342.4080428226
 31
0.0
  0
LINE
  5
1BF
330
1F
100
AcDbEntity
  8
0
  6
Continuous
 62
     7
370
    25
100
AcDbLine
 10
-348.8387361812
 20
344.4080428226
 30
0.0
 11
-346.8387361811
 21
346.4080428226
 31
0.0
  0
LINE
  5
1C0
330
1F
100
AcDbEntity
  8
0
  6
Continuous
 62
     7
370
    25
100
AcDbLine
 10
-346.8387361811
 20
346.4080428226
 30
0.0
 11
-320.8387361812
 21
346.4080428226
 31
0.0
  0
LINE
  5
1C1
330
1F
100
AcDbEntity
  8
0
  6
Continuous
 62
     7
370
    25
100
AcDbLine
 10
-320.8387361812
 20
346.4080428226
 30
0.0
 11
-318.8387361812
 21
344.4080428226
 31
0.0
  0
LINE
  5
1C2
330
1F
100
AcDbEntity
  8
0
  6
Continuous
 62
     7
370
    25
100
AcDbLine
 10
-318.8387361812
 20
344.4080428226
 30
0.0
 11
-318.8387361812
 21
342.4080428226
 31
0.0
  0
ARC
  5
1C3
330
1F
100
AcDbEntity
  8
0
  6
Continuous
 62
     7
370
    25
100
AcDbCircle
 10
-318.8387361812
 20
341.4080428226
 30
0.0
 40
1.0
100
AcDbArc
 50
90.0
 51
359.9999999998
  0
LINE
  5
1C4
330
1F
100
AcDbEntity
  8
0
  6
Continuous
 62
     7
370
    25
100
AcDbLine
 10
-317.8387361812
 20
341.4080428226
 30
0.0
 11
-305.8387361812
 21
341.4080428226
 31
0.0
  0
LINE
  5
1C5
330
1F
100
AcDbEntity
  8
0
  6
Continuous
 62
     7
370
    25
100
AcDbLine
 10
-305.8387361812
 20
300.9080428226
 30
0.0
 11
-305.8387361812
 21
341.4080428226
 31
0.0
  0
LINE
  5
1C6
330
1F
100
AcDbEntity
  8
0
  6
Continuous
 62
     7
370
    25
100
AcDbLine
 10
-325.8387361812
 20
298.9080428226
 30
0.0
 11
-307.8387361812
 21
298.9080428226
 31
0.0
  0
LINE
  5
1C7
330
1F
100
AcDbEntity
  8
0
  6
Continuous
 62
     7
370
    25
100
AcDbLine
 10
-327.8387361812
 20
296.9080428226
 30
0.0
 11
-327.8387361812
 21
295.9080428226
 31
0.0
  0
LINE
  5
1C8
330
1F
100
AcDbEntity
  8
0
  6
Continuous
 62
     7
370
    25
100
AcDbLine
 10
-325.8387361812
 20
293.9080428226
 30
0.0
 11
-307.8387361812
 21
293.9080428226
 31
0.0
  0
LINE
  5
1C9
330
1F
100
AcDbEntity
  8
0
  6
Continuous
 62
     7
370
    25
100
AcDbLine
 10
-305.8387361812
 20
260.9080428226
 30
0.0
 11
-305.8387361812
 21
291.9080428226
 31
0.0
  0
LINE
  5
1CA
330
1F
100
AcDbEntity
  8
0
  6
Continuous
 62
     7
370
    25
100
AcDbLine
 10
-325.8387361812
 20
258.9080428226
 30
0.0
 11
-307.8387361812
 21
258.9080428226
 31
0.0
  0
LINE
  5
1CB
330
1F
100
AcDbEntity
  8
0
  6
Continuous
 62
     7
370
    25
100
AcDbLine
 10
-327.8387361812
 20
256.9080428226
 30
0.0
 11
-327.8387361812
 21
255.9080428226
 31
0.0
  0
LINE
  5
1CC
330
1F
100
AcDbEntity
  8
0
  6
Continuous
 62
     7
370
    25
100
AcDbLine
 10
-325.8387361812
 20
253.9080428226
 30
0.0
 11
-307.8387361812
 21
253.9080428226
 31
0.0
  0
LINE
  5
1CD
330
1F
100
AcDbEntity
  8
0
  6
Continuous
 62
     7
370
    25
100
AcDbLine
 10
-305.8387361812
 20
220.9080428226
 30
0.0
 11
-305.8387361812
 21
251.9080428226
 31
0.0
  0
LINE
  5
1CE
330
1F
100
AcDbEntity
  8
0
  6
Continuous
 62
     7
370
    25
100
AcDbLine
 10
-325.8387361812
 20
218.9080428226
 30
0.0
 11
-307.8387361812
 21
218.9080428226
 31
0.0
  0
LINE
  5
1CF
330
1F
100
AcDbEntity
  8
0
  6
Continuous
 62
     7
370
    25
100
AcDbLine
 10
-327.8387361812
 20
216.9080428226
 30
0.0
 11
-327.8387361812
 21
215.9080428226
 31
0.0
  0
LINE
  5
1D0
330
1F
100
AcDbEntity
  8
0
  6
Continuous
 62
     7
370
    25
100
AcDbLine
 10
-325.8387361812
 20
213.9080428226
 30
0.0
 11
-307.8387361812
 21
213.9080428226
 31
0.0
  0
LINE
  5
1D1
330
1F
100
AcDbEntity
  8
0
  6
Continuous
 62
     7
370
    25
100
AcDbLine
 10
-305.8387361812
 20
180.9080428226
 30
0.0
 11
-305.8387361812
 21
211.9080428226
 31
0.0
  0
LINE
  5
1D2
330
1F
100
AcDbEntity
  8
0
  6
Continuous
 62
     7
370
    25
100
AcDbLine
 10
-325.8387361812
 20
178.9080428226
 30
0.0
 11
-307.8387361812
 21
178.9080428226
 31
0.0
  0
LINE
  5
1D3
330
1F
100
AcDbEntity
  8
0
  6
Continuous
 62
     7
370
    25
100
AcDbLine
 10
-327.8387361812
 20
176.9080428226
 30
0.0
 11
-327.8387361812
 21
175.9080428226
 31
0.0
  0
LINE
  5
1D4
330
1F
100
AcDbEntity
  8
0
  6
Continuous
 62
     7
370
    25
100
AcDbLine
 10
-325.8387361812
 20
173.9080428226
 30
0.0
 11
-307.8387361812
 21
173.9080428226
 31
0.0
  0
LINE
  5
1D5
330
1F
100
AcDbEntity
  8
0
  6
Continuous
 62
     7
370
    25
100
AcDbLine
 10
-305.8387361812
 20
140.9080428226
 30
0.0
 11
-305.8387361812
 21
171.9080428226
 31
0.0
  0
LINE
  5
1D6
330
1F
100
AcDbEntity
  8
0
  6
Continuous
 62
     7
370
    25
100
AcDbLine
 10
-325.8387361812
 20
138.9080428226
 30
0.0
 11
-307.8387361812
 21
138.9080428226
 31
0.0
  0
LINE
  5
1D7
330
1F
100
AcDbEntity
  8
0
  6
Continuous
 62
     7
370
    25
100
AcDbLine
 10
-327.8387361812
 20
136.9080428226
 30
0.0
 11
-327.8387361812
 21
135.9080428226
 31
0.0
  0
LINE
  5
1D8
330
1F
100
AcDbEntity
  8
0
  6
Continuous
 62
     7
370
    25
100
AcDbLine
 10
-325.8387361812
 20
133.9080428226
 30
0.0
 11
-307.8387361812
 21
133.9080428226
 31
0.0
  0
LINE
  5
1D9
330
1F
100
AcDbEntity
  8
0
  6
Continuous
 62
     7
370
    25
100
AcDbLine
 10
-305.8387361812
 20
91.4080428226
 30
0.0
 11
-305.8387361812
 21
131.9080428226
 31
0.0
  0
LINE
  5
1DA
330
1F
100
AcDbEntity
  8
0
  6
Continuous
 62
     7
370
    25
100
AcDbLine
 10
-317.8387361811
 20
91.4080428226
 30
0.0
 11
-305.8387361812
 21
91.4080428226
 31
0.0
  0
ARC
  5
1DB
330
1F
100
AcDbEntity
  8
0
  6
Continuous
 62
     7
370
    25
100
AcDbCircle
 10
-318.8387361811
 20
91.4080428226
 30
0.0
 40
1.0
100
AcDbArc
 50
0.0000000002
 51
270.0
  0
LINE
  5
1DC
330
1F
100
AcDbEntity
  8
0
  6
Continuous
 62
     7
370
    25
100
AcDbLine
 10
-318.8387361811
 20
88.4080428226
 30
0.0
 11
-318.8387361811
 21
90.4080428226
 31
0.0
  0
LINE
  5
1DD
330
1F
100
AcDbEntity
  8
0
  6
Continuous
 62
     7
370
    25
100
AcDbLine
 10
-320.8387361811
 20
86.4080428226
 30
0.0
 11
-318.8387361811
 21
88.4080428226
 31
0.0
  0
LINE
  5
1DE
330
1F
100
AcDbEntity
  8
0
  6
Continuous
 62
     7
370
    25
100
AcDbLine
 10
-346.8387361811
 20
86.4080428226
 30
0.0
 11
-320.8387361811
 21
86.4080428226
 31
0.0
  0
LINE
  5
1DF
330
1F
100
AcDbEntity
  8
0
  6
Continuous
 62
     7
370
    25
100
AcDbLine
 10
-348.8387361811
 20
88.4080428226
 30
0.0
 11
-346.8387361811
 21
86.4080428226
 31
0.0
  0
LINE
  5
1E0
330
1F
100
AcDbEntity
  8
0
  6
Continuous
 62
     7
370
    25
100
AcDbLine
 10
-348.8387361811
 20
88.4080428226
 30
0.0
 11
-348.8387361811
 21
90.4080428226
 31
0.0
  0
ARC
  5
1E1
330
1F
100
AcDbEntity
  8
0
  6
Continuous
 62
     7
370
    25
100
AcDbCircle
 10
-348.8387361811
 20
91.4080428226
 30
0.0
 40
1.0
100
AcDbArc
 50
270.0000000006
 51
180.0
  0
LINE
  5
1E2
330
1F
100
AcDbEntity
  8
0
  6
Continuous
 62
     7
370
    25
100
AcDbLine
 10
-349.8387361811
 20
91.4080428226
 30
0.0
 11
-405.8387361811
 21
91.4080428226
 31
0.0
  0
LINE
  5
1E3
330
1F
100
AcDbEntity
  8
0
  6
Continuous
 62
     7
370
    25
100
AcDbLine
 10
-435.8387361812
 20
341.4080428226
 30
0.0
 11
-405.8387361811
 21
91.4080428226
 31
0.0
  0
LINE
  5
1E4
330
1F
100
AcDbEntity
  8
0
  6
Continuous
 62
     7
370
    25
100
AcDbLine
 10
-349.8387361812
 20
341.4080428226
 30
0.0
 11
-435.8387361812
 21
341.4080428226
 31
0.0
  0
ARC
  5
1E5
330
1F
100
AcDbEntity
  8
0
  6
Continuous
 62
     7
370
    25
100
AcDbCircle
 10
5.6463173056
 20
-1.5309020805
 30
0.0
 40
2.000000000000002
100
AcDbArc
 50
270.0
 51
0.0
  0
ARC
  5
1E6
330
1F
100
AcDbEntity
  8
0
  6
Continuous
 62
     7
370
    25
100
AcDbCircle
 10
-12.3536826944
 20
-5.5309020805
 30
0.0
 40
2.000000000000002
100
AcDbArc
 50
90.0
 51
180.0
  0
ARC
  5
1E7
330
1F
100
AcDbEntity
  8
0
  6
Continuous
 62
     7
370
    25
100
AcDbCircle
 10
-12.3536826944
 20
-6.5309020805
 30
0.0
 40
2.000000000000001
100
AcDbArc
 50
180.0
 51
270.0
  0
ARC
  5
1E8
330
1F
100
AcDbEntity
  8
0
  6
Continuous
 62
     7
370
    25
100
AcDbCircle
 10
5.6463173056
 20
-10.5309020805
 30
0.0
 40
2.000000000000002
100
AcDbArc
 50
0.0
 51
90.0
  0
ARC
  5
1E9
330
1F
100
AcDbEntity
  8
0
  6
Continuous
 62
     7
370
    25
100
AcDbCircle
 10
5.6463173056
 20
-41.5309020805
 30
0.0
 40
2.000000000000007
100
AcDbArc
 50
270.0
 51
0.0
  0
ARC
  5
1EA
330
1F
100
AcDbEntity
  8
0
  6
Continuous
 62
     7
370
    25
100
AcDbCircle
 10
-12.3536826944
 20
-45.5309020805
 30
0.0
 40
2.000000000000007
100
AcDbArc
 50
90.0
 51
180.0
  0
ARC
  5
1EB
330
1F
100
AcDbEntity
  8
0
  6
Continuous
 62
     7
370
    25
100
AcDbCircle
 10
-12.3536826944
 20
-46.5309020805
 30
0.0
 40
2.0
100
AcDbArc
 50
180.0
 51
270.0
  0
ARC
  5
1EC
330
1F
100
AcDbEntity
  8
0
  6
Continuous
 62
     7
370
    25
100
AcDbCircle
 10
5.6463173056
 20
-50.5309020805
 30
0.0
 40
2.000000000000002
100
AcDbArc
 50
0.0
 51
90.0
  0
ARC
  5
1ED
330
1F
100
AcDbEntity
  8
0
  6
Continuous
 62
     7
370
    25
100
AcDbCircle
 10
5.6463173056
 20
-81.5309020805
 30
0.0
 40
2.000000000000014
100
AcDbArc
 50
270.0
 51
0.0
  0
ARC
  5
1EE
330
1F
100
AcDbEntity
  8
0
  6
Continuous
 62
     7
370
    25
100
AcDbCircle
 10
-12.3536826944
 20
-85.5309020805
 30
0.0
 40
2.000000000000014
100
AcDbArc
 50
90.0
 51
180.0
  0
ARC
  5
1EF
330
1F
100
AcDbEntity
  8
0
  6
Continuous
 62
     7
370
    25
100
AcDbCircle
 10
-12.3536826944
 20
-86.5309020805
 30
0.0
 40
2.000000000000014
100
AcDbArc
 50
180.0
 51
270.0
  0
ARC
  5
1F0
330
1F
100
AcDbEntity
  8
0
  6
Continuous
 62
     7
370
    25
100
AcDbCircle
 10
5.6463173056
 20
-90.5309020805
 30
0.0
 40
2.000000000000005
100
AcDbArc
 50
0.0
 51
90.0
  0
ARC
  5
1F1
330
1F
100
AcDbEntity
  8
0
  6
Continuous
 62
     7
370
    25
100
AcDbCircle
 10
5.6463173056
 20
-121.5309020805
 30
0.0
 40
2.000000000000002
100
AcDbArc
 50
270.0
 51
0.0
  0
ARC
  5
1F2
330
1F
100
AcDbEntity
  8
0
  6
Continuous
 62
     7
370
    25
100
AcDbCircle
 10
-12.3536826944
 20
-125.5309020805
 30
0.0
 40
2.000000000000014
100
AcDbArc
 50
90.0
 51
180.0
  0
ARC
  5
1F3
330
1F
100
AcDbEntity
  8
0
  6
Continuous
 62
     7
370
    25
100
AcDbCircle
 10
-12.3536826944
 20
-126.5309020805
 30
0.0
 40
2.0
100
AcDbArc
 50
180.0
 51
270.0
  0
ARC
  5
1F4
330
1F
100
AcDbEntity
  8
0
  6
Continuous
 62
     7
370
    25
100
AcDbCircle
 10
5.6463173056
 20
-130.5309020805
 30
0.0
 40
2.000000000000002
100
AcDbArc
 50
0.0
 51
90.0
  0
ARC
  5
1F5
330
1F
100
AcDbEntity
  8
0
  6
Continuous
 62
     7
370
    25
100
AcDbCircle
 10
5.6463173056
 20
-161.5309020805
 30
0.0
 40
2.000000000000002
100
AcDbArc
 50
270.0
 51
0.0
  0
ARC
  5
1F6
330
1F
100
AcDbEntity
  8
0
  6
Continuous
 62
     7
370
    25
100
AcDbCircle
 10
-12.3536826944
 20
-165.5309020805
 30
0.0
 40
2.0
100
AcDbArc
 50
90.0
 51
180.0
  0
ARC
  5
1F7
330
1F
100
AcDbEntity
  8
0
  6
Continuous
 62
     7
370
    25
100
AcDbCircle
 10
-12.3536826944
 20
-166.5309020805
 30
0.0
 40
2.0
100
AcDbArc
 50
180.0
 51
270.0
  0
ARC
  5
1F8
330
1F
100
AcDbEntity
  8
0
  6
Continuous
 62
     7
370
    25
100
AcDbCircle
 10
5.6463173056
 20
-170.5309020805
 30
0.0
 40
2.000000000000002
100
AcDbArc
 50
0.0
 51
90.0
  0
ARC
  5
1F9
330
1F
100
AcDbEntity
  8
0
  6
Continuous
 62
     7
370
    25
100
AcDbCircle
 10
-35.3536826944
 20
38.9690979195
 30
0.0
 40
1.0
100
AcDbArc
 50
180.0
 51
89.9999999994
  0
LINE
  5
1FA
330
1F
100
AcDbEntity
  8
0
  6
Continuous
 62
     7
370
    25
100
AcDbLine
 10
-35.3536826944
 20
41.9690979195
 30
0.0
 11
-35.3536826944
 21
39.9690979195
 31
0.0
  0
LINE
  5
1FB
330
1F
100
AcDbEntity
  8
0
  6
Continuous
 62
     7
370
    25
100
AcDbLine
 10
-35.3536826944
 20
41.9690979195
 30
0.0
 11
-33.3536826944
 21
43.9690979195
 31
0.0
  0
LINE
  5
1FC
330
1F
100
AcDbEntity
  8
0
  6
Continuous
 62
     7
370
    25
100
AcDbLine
 10
-33.3536826944
 20
43.9690979195
 30
0.0
 11
-7.3536826944
 21
43.9690979195
 31
0.0
  0
LINE
  5
1FD
330
1F
100
AcDbEntity
  8
0
  6
Continuous
 62
     7
370
    25
100
AcDbLine
 10
-7.3536826944
 20
43.9690979195
 30
0.0
 11
-5.3536826944
 21
41.9690979195
 31
0.0
  0
LINE
  5
1FE
330
1F
100
AcDbEntity
  8
0
  6
Continuous
 62
     7
370
    25
100
AcDbLine
 10
-5.3536826944
 20
41.9690979195
 30
0.0
 11
-5.3536826944
 21
39.9690979195
 31
0.0
  0
ARC
  5
1FF
330
1F
100
AcDbEntity
  8
0
  6
Continuous
 62
     7
370
    25
100
AcDbCircle
 10
-5.3536826944
 20
38.9690979195
 30
0.0
 40
1.0
100
AcDbArc
 50
90.0
 51
359.9999999998
  0
LINE
  5
200
330
1F
100
AcDbEntity
  8
0
  6
Continuous
 62
     7
370
    25
100
AcDbLine
 10
-4.3536826944
 20
38.9690979195
 30
0.0
 11
7.6463173056
 21
38.9690979195
 31
0.0
  0
LINE
  5
201
330
1F
100
AcDbEntity
  8
0
  6
Continuous
 62
     7
370
    25
100
AcDbLine
 10
7.6463173056
 20
-1.5309020805
 30
0.0
 11
7.6463173056
 21
38.9690979195
 31
0.0
  0
LINE
  5
202
330
1F
100
AcDbEntity
  8
0
  6
Continuous
 62
     7
370
    25
100
AcDbLine
 10
-12.3536826944
 20
-3.5309020805
 30
0.0
 11
5.6463173056
 21
-3.5309020805
 31
0.0
  0
LINE
  5
203
330
1F
100
AcDbEntity
  8
0
  6
Continuous
 62
     7
370
    25
100
AcDbLine
 10
-14.3536826944
 20
-5.5309020805
 30
0.0
 11
-14.3536826944
 21
-6.5309020805
 31
0.0
  0
LINE
  5
204
330
1F
100
AcDbEntity
  8
0
  6
Continuous
 62
     7
370
    25
100
AcDbLine
 10
-12.3536826944
 20
-8.5309020805
 30
0.0
 11
5.6463173056
 21
-8.5309020805
 31
0.0
  0
LINE
  5
205
330
1F
100
AcDbEntity
  8
0
  6
Continuous
 62
     7
370
    25
100
AcDbLine
 10
7.6463173056
 20
-41.5309020805
 30
0.0
 11
7.6463173056
 21
-10.5309020805
 31
0.0
  0
LINE
  5
206
330
1F
100
AcDbEntity
  8
0
  6
Continuous
 62
     7
370
    25
100
AcDbLine
 10
-12.3536826944
 20
-43.5309020805
 30
0.0
 11
5.6463173056
 21
-43.5309020805
 31
0.0
  0
LINE
  5
207
330
1F
100
AcDbEntity
  8
0
  6
Continuous
 62
     7
370
    25
100
AcDbLine
 10
-14.3536826944
 20
-45.5309020805
 30
0.0
 11
-14.3536826944
 21
-46.5309020805
 31
0.0
  0
LINE
  5
208
330
1F
100
AcDbEntity
  8
0
  6
Continuous
 62
     7
370
    25
100
AcDbLine
 10
-12.3536826944
 20
-48.5309020805
 30
0.0
 11
5.6463173056
 21
-48.5309020805
 31
0.0
  0
LINE
  5
209
330
1F
100
AcDbEntity
  8
0
  6
Continuous
 62
     7
370
    25
100
AcDbLine
 10
7.6463173056
 20
-81.5309020805
 30
0.0
 11
7.6463173056
 21
-50.5309020805
 31
0.0
  0
LINE
  5
20A
330
1F
100
AcDbEntity
  8
0
  6
Continuous
 62
     7
370
    25
100
AcDbLine
 10
-12.3536826944
 20
-83.5309020805
 30
0.0
 11
5.6463173056
 21
-83.5309020805
 31
0.0
  0
LINE
  5
20B
330
1F
100
AcDbEntity
  8
0
  6
Continuous
 62
     7
370
    25
100
AcDbLine
 10
-14.3536826944
 20
-85.5309020805
 30
0.0
 11
-14.3536826944
 21
-86.5309020805
 31
0.0
  0
LINE
  5
20C
330
1F
100
AcDbEntity
  8
0
  6
Continuous
 62
     7
370
    25
100
AcDbLine
 10
-12.3536826944
 20
-88.5309020805
 30
0.0
 11
5.6463173056
 21
-88.5309020805
 31
0.0
  0
LINE
  5
20D
330
1F
100
AcDbEntity
  8
0
  6
Continuous
 62
     7
370
    25
100
AcDbLine
 10
7.6463173056
 20
-121.5309020805
 30
0.0
 11
7.6463173056
 21
-90.5309020805
 31
0.0
  0
LINE
  5
20E
330
1F
100
AcDbEntity
  8
0
  6
Continuous
 62
     7
370
    25
100
AcDbLine
 10
-12.3536826944
 20
-123.5309020805
 30
0.0
 11
5.6463173056
 21
-123.5309020805
 31
0.0
  0
LINE
  5
20F
330
1F
100
AcDbEntity
  8
0
  6
Continuous
 62
     7
370
    25
100
AcDbLine
 10
-14.3536826944
 20
-125.5309020805
 30
0.0
 11
-14.3536826944
 21
-126.5309020805
 31
0.0
  0
LINE
  5
210
330
1F
100
AcDbEntity
  8
0
  6
Continuous
 62
     7
370
    25
100
AcDbLine
 10
-12.3536826944
 20
-128.5309020805
 30
0.0
 11
5.6463173056
 21
-128.5309020805
 31
0.0
  0
LINE
  5
211
330
1F
100
AcDbEntity
  8
0
  6
Continuous
 62
     7
370
    25
100
AcDbLine
 10
7.6463173056
 20
-161.5309020805
 30
0.0
 11
7.6463173056
 21
-130.5309020805
 31
0.0
  0
LINE
  5
212
330
1F
100
AcDbEntity
  8
0
  6
Continuous
 62
     7
370
    25
100
AcDbLine
 10
-12.3536826944
 20
-163.5309020805
 30
0.0
 11
5.6463173056
 21
-163.5309020805
 31
0.0
  0
LINE
  5
213
330
1F
100
AcDbEntity
  8
0
  6
Continuous
 62
     7
370
    25
100
AcDbLine
 10
-14.3536826944
 20
-165.5309020805
 30
0.0
 11
-14.3536826944
 21
-166.5309020805
 31
0.0
  0
LINE
  5
214
330
1F
100
AcDbEntity
  8
0
  6
Continuous
 62
     7
370
    25
100
AcDbLine
 10
-12.3536826944
 20
-168.5309020805
 30
0.0
 11
5.6463173056
 21
-168.5309020805
 31
0.0
  0
LINE
  5
215
330
1F
100
AcDbEntity
  8
0
  6
Continuous
 62
     7
370
    25
100
AcDbLine
 10
7.6463173056
 20
-211.0309020805
 30
0.0
 11
7.6463173056
 21
-170.5309020805
 31
0.0
  0
LINE
  5
216
330
1F
100
AcDbEntity
  8
0
  6
Continuous
 62
     7
370
    25
100
AcDbLine
 10
-4.3536826944
 20
-211.0309020805
 30
0.0
 11
7.6463173056
 21
-211.0309020805
 31
0.0
  0
ARC
  5
217
330
1F
100
AcDbEntity
  8
0
  6
Continuous
 62
     7
370
    25
100
AcDbCircle
 10
-5.3536826944
 20
-211.0309020805
 30
0.0
 40
1.0
100
AcDbArc
 50
0.0000000002
 51
270.0
  0
LINE
  5
218
330
1F
100
AcDbEntity
  8
0
  6
Continuous
 62
     7
370
    25
100
AcDbLine
 10
-5.3536826944
 20
-214.0309020805
 30
0.0
 11
-5.3536826944
 21
-212.0309020805
 31
0.0
  0
LINE
  5
219
330
1F
100
AcDbEntity
  8
0
  6
Continuous
 62
     7
370
    25
100
AcDbLine
 10
-7.3536826944
 20
-216.0309020805
 30
0.0
 11
-5.3536826944
 21
-214.0309020805
 31
0.0
  0
LINE
  5
21A
330
1F
100
AcDbEntity
  8
0
  6
Continuous
 62
     7
370
    25
100
AcDbLine
 10
-33.3536826944
 20
-216.0309020805
 30
0.0
 11
-7.3536826944
 21
-216.0309020805
 31
0.0
  0
LINE
  5
21B
330
1F
100
AcDbEntity
  8
0
  6
Continuous
 62
     7
370
    25
100
AcDbLine
 10
-35.3536826944
 20
-214.0309020805
 30
0.0
 11
-33.3536826944
 21
-216.0309020805
 31
0.0
  0
LINE
  5
21C
330
1F
100
AcDbEntity
  8
0
  6
Continuous
 62
     7
370
    25
100
AcDbLine
 10
-35.3536826944
 20
-214.0309020805
 30
0.0
 11
-35.3536826944
 21
-212.0309020805
 31
0.0
  0
ARC
  5
21D
330
1F
100
AcDbEntity
  8
0
  6
Continuous
 62
     7
370
    25
100
AcDbCircle
 10
-35.3536826944
 20
-211.0309020805
 30
0.0
 40
0.9999999999999929
100
AcDbArc
 50
270.0000000006
 51
180.0
  0
LINE
  5
21E
330
1F
100
AcDbEntity
  8
0
  6
Continuous
 62
     7
370
    25
100
AcDbLine
 10
-36.3536826944
 20
-211.0309020805
 30
0.0
 11
-92.3536826944
 21
-211.0309020805
 31
0.0
  0
LINE
  5
21F
330
1F
100
AcDbEntity
  8
0
  6
Continuous
 62
     7
370
    25
100
AcDbLine
 10
-122.3536826944
 20
38.9690979195
 30
0.0
 11
-92.3536826944
 21
-211.0309020805
 31
0.0
  0
LINE
  5
220
330
1F
100
AcDbEntity
  8
0
  6
Continuous
 62
     7
370
    25
100
AcDbLine
 10
-36.3536826944
 20
38.9690979195
 30
0.0
 11
-122.3536826944
 21
38.9690979195
 31
0.0
  0
ARC
  5
221
330
1F
100
AcDbEntity
  8
0
  6
Continuous
 62
     7
370
    25
100
AcDbCircle
 10
-139.7657183513
 20
6.6067902196
 30
0.0
 40
2.000000000000002
100
AcDbArc
 50
270.0
 51
0.0
  0
ARC
  5
222
330
1F
100
AcDbEntity
  8
0
  6
Continuous
 62
     7
370
    25
100
AcDbCircle
 10
-157.7657183513
 20
2.6067902196
 30
0.0
 40
2.000000000000002
100
AcDbArc
 50
90.0
 51
180.0
  0
ARC
  5
223
330
1F
100
AcDbEntity
  8
0
  6
Continuous
 62
     7
370
    25
100
AcDbCircle
 10
-157.7657183513
 20
1.6067902196
 30
0.0
 40
2.000000000000002
100
AcDbArc
 50
180.0
 51
270.0
  0
ARC
  5
224
330
1F
100
AcDbEntity
  8
0
  6
Continuous
 62
     7
370
    25
100
AcDbCircle
 10
-139.7657183513
 20
-2.3932097804
 30
0.0
 40
2.000000000000002
100
AcDbArc
 50
0.0
 51
90.0
  0
ARC
  5
225
330
1F
100
AcDbEntity
  8
0
  6
Continuous
 62
     7
370
    25
100
AcDbCircle
 10
-139.7657183513
 20
-33.3932097804
 30
0.0
 40
2.0
100
AcDbArc
 50
270.0
 51
0.0
  0
ARC
  5
226
330
1F
100
AcDbEntity
  8
0
  6
Continuous
 62
     7
370
    25
100
AcDbCircle
 10
-157.7657183513
 20
-37.3932097804
 30
0.0
 40
2.0
100
AcDbArc
 50
90.0
 51
180.0
  0
ARC
  5
227
330
1F
100
AcDbEntity
  8
0
  6
Continuous
 62
     7
370
    25
100
AcDbCircle
 10
-157.7657183513
 20
-38.3932097804
 30
0.0
 40
2.0
100
AcDbArc
 50
180.0
 51
270.0
  0
ARC
  5
228
330
1F
100
AcDbEntity
  8
0
  6
Continuous
 62
     7
370
    25
100
AcDbCircle
 10
-139.7657183513
 20
-42.3932097804
 30
0.0
 40
2.000000000000007
100
AcDbArc
 50
0.0
 51
90.0
  0
ARC
  5
229
330
1F
100
AcDbEntity
  8
0
  6
Continuous
 62
     7
370
    25
100
AcDbCircle
 10
-139.7657183513
 20
-73.3932097804
 30
0.0
 40
2.0
100
AcDbArc
 50
270.0
 51
0.0
  0
ARC
  5
22A
330
1F
100
AcDbEntity
  8
0
  6
Continuous
 62
     7
370
    25
100
AcDbCircle
 10
-157.7657183513
 20
-77.3932097804
 30
0.0
 40
2.0
100
AcDbArc
 50
90.0
 51
180.0
  0
ARC
  5
22B
330
1F
100
AcDbEntity
  8
0
  6
Continuous
 62
     7
370
    25
100
AcDbCircle
 10
-157.7657183513
 20
-78.3932097804
 30
0.0
 40
2.0
100
AcDbArc
 50
180.0
 51
270.0
  0
ARC
  5
22C
330
1F
100
AcDbEntity
  8
0
  6
Continuous
 62
     7
370
    25
100
AcDbCircle
 10
-139.7657183513
 20
-82.3932097804
 30
0.0
 40
2.000000000000028
100
AcDbArc
 50
0.0
 51
90.0
  0
ARC
  5
22D
330
1F
100
AcDbEntity
  8
0
  6
Continuous
 62
     7
370
    25
100
AcDbCircle
 10
-139.7657183513
 20
-113.3932097804
 30
0.0
 40
2.0
100
AcDbArc
 50
270.0
 51
0.0
  0
ARC
  5
22E
330
1F
100
AcDbEntity
  8
0
  6
Continuous
 62
     7
370
    25
100
AcDbCircle
 10
-157.7657183513
 20
-117.3932097804
 30
0.0
 40
2.0
100
AcDbArc
 50
90.0
 51
180.0
  0
ARC
  5
22F
330
1F
100
AcDbEntity
  8
0
  6
Continuous
 62
     7
370
    25
100
AcDbCircle
 10
-157.7657183513
 20
-118.3932097804
 30
0.0
 40
2.0
100
AcDbArc
 50
180.0
 51
270.0
  0
ARC
  5
230
330
1F
100
AcDbEntity
  8
0
  6
Continuous
 62
     7
370
    25
100
AcDbCircle
 10
-139.7657183513
 20
-122.3932097804
 30
0.0
 40
2.000000000000014
100
AcDbArc
 50
0.0
 51
90.0
  0
ARC
  5
231
330
1F
100
AcDbEntity
  8
0
  6
Continuous
 62
     7
370
    25
100
AcDbCircle
 10
-139.7657183513
 20
-153.3932097804
 30
0.0
 40
2.0
100
AcDbArc
 50
270.0
 51
0.0
  0
ARC
  5
232
330
1F
100
AcDbEntity
  8
0
  6
Continuous
 62
     7
370
    25
100
AcDbCircle
 10
-157.7657183513
 20
-157.3932097804
 30
0.0
 40
2.0
100
AcDbArc
 50
90.0
 51
180.0
  0
ARC
  5
233
330
1F
100
AcDbEntity
  8
0
  6
Continuous
 62
     7
370
    25
100
AcDbCircle
 10
-157.7657183513
 20
-158.3932097804
 30
0.0
 40
2.0
100
AcDbArc
 50
180.0
 51
270.0
  0
ARC
  5
234
330
1F
100
AcDbEntity
  8
0
  6
Continuous
 62
     7
370
    25
100
AcDbCircle
 10
-139.7657183513
 20
-162.3932097804
 30
0.0
 40
2.0
100
AcDbArc
 50
0.0
 51
90.0
  0
ARC
  5
235
330
1F
100
AcDbEntity
  8
0
  6
Continuous
 62
     7
370
    25
100
AcDbCircle
 10
-180.7657183513
 20
47.1067902196
 30
0.0
 40
1.0
100
AcDbArc
 50
180.0
 51
89.9999999994
  0
LINE
  5
236
330
1F
100
AcDbEntity
  8
0
  6
Continuous
 62
     7
370
    25
100
AcDbLine
 10
-180.7657183513
 20
50.1067902196
 30
0.0
 11
-180.7657183513
 21
48.1067902196
 31
0.0
  0
LINE
  5
237
330
1F
100
AcDbEntity
  8
0
  6
Continuous
 62
     7
370
    25
100
AcDbLine
 10
-180.7657183513
 20
50.1067902196
 30
0.0
 11
-178.7657183513
 21
52.1067902196
 31
0.0
  0
LINE
  5
238
330
1F
100
AcDbEntity
  8
0
  6
Continuous
 62
     7
370
    25
100
AcDbLine
 10
-178.7657183513
 20
52.1067902196
 30
0.0
 11
-152.7657183513
 21
52.1067902196
 31
0.0
  0
LINE
  5
239
330
1F
100
AcDbEntity
  8
0
  6
Continuous
 62
     7
370
    25
100
AcDbLine
 10
-152.7657183513
 20
52.1067902196
 30
0.0
 11
-150.7657183513
 21
50.1067902196
 31
0.0
  0
LINE
  5
23A
330
1F
100
AcDbEntity
  8
0
  6
Continuous
 62
     7
370
    25
100
AcDbLine
 10
-150.7657183513
 20
50.1067902196
 30
0.0
 11
-150.7657183513
 21
48.1067902196
 31
0.0
  0
ARC
  5
23B
330
1F
100
AcDbEntity
  8
0
  6
Continuous
 62
     7
370
    25
100
AcDbCircle
 10
-150.7657183513
 20
47.1067902196
 30
0.0
 40
1.0
100
AcDbArc
 50
90.0
 51
359.9999999998
  0
LINE
  5
23C
330
1F
100
AcDbEntity
  8
0
  6
Continuous
 62
     7
370
    25
100
AcDbLine
 10
-149.7657183513
 20
47.1067902196
 30
0.0
 11
-137.7657183513
 21
47.1067902196
 31
0.0
  0
LINE
  5
23D
330
1F
100
AcDbEntity
  8
0
  6
Continuous
 62
     7
370
    25
100
AcDbLine
 10
-137.7657183513
 20
6.6067902196
 30
0.0
 11
-137.7657183513
 21
47.1067902196
 31
0.0
  0
LINE
  5
23E
330
1F
100
AcDbEntity
  8
0
  6
Continuous
 62
     7
370
    25
100
AcDbLine
 10
-157.7657183513
 20
4.6067902196
 30
0.0
 11
-139.7657183513
 21
4.6067902196
 31
0.0
  0
LINE
  5
23F
330
1F
100
AcDbEntity
  8
0
  6
Continuous
 62
     7
370
    25
100
AcDbLine
 10
-159.7657183513
 20
2.6067902196
 30
0.0
 11
-159.7657183513
 21
1.6067902196
 31
0.0
  0
LINE
  5
240
330
1F
100
AcDbEntity
  8
0
  6
Continuous
 62
     7
370
    25
100
AcDbLine
 10
-157.7657183513
 20
-0.3932097804
 30
0.0
 11
-139.7657183513
 21
-0.3932097804
 31
0.0
  0
LINE
  5
241
330
1F
100
AcDbEntity
  8
0
  6
Continuous
 62
     7
370
    25
100
AcDbLine
 10
-137.7657183513
 20
-33.3932097804
 30
0.0
 11
-137.7657183513
 21
-2.3932097804
 31
0.0
  0
LINE
  5
242
330
1F
100
AcDbEntity
  8
0
  6
Continuous
 62
     7
370
    25
100
AcDbLine
 10
-157.7657183513
 20
-35.3932097804
 30
0.0
 11
-139.7657183513
 21
-35.3932097804
 31
0.0
  0
LINE
  5
243
330
1F
100
AcDbEntity
  8
0
  6
Continuous
 62
     7
370
    25
100
AcDbLine
 10
-159.7657183513
 20
-37.3932097804
 30
0.0
 11
-159.7657183513
 21
-38.3932097804
 31
0.0
  0
LINE
  5
244
330
1F
100
AcDbEntity
  8
0
  6
Continuous
 62
     7
370
    25
100
AcDbLine
 10
-157.7657183513
 20
-40.3932097804
 30
0.0
 11
-139.7657183513
 21
-40.3932097804
 31
0.0
  0
LINE
  5
245
330
1F
100
AcDbEntity
  8
0
  6
Continuous
 62
     7
370
    25
100
AcDbLine
 10
-137.7657183513
 20
-73.3932097804
 30
0.0
 11
-137.7657183513
 21
-42.3932097804
 31
0.0
  0
LINE
  5
246
330
1F
100
AcDbEntity
  8
0
  6
Continuous
 62
     7
370
    25
100
AcDbLine
 10
-157.7657183513
 20
-75.3932097804
 30
0.0
 11
-139.7657183513
 21
-75.3932097804
 31
0.0
  0
LINE
  5
247
330
1F
100
AcDbEntity
  8
0
  6
Continuous
 62
     7
370
    25
100
AcDbLine
 10
-159.7657183513
 20
-77.3932097804
 30
0.0
 11
-159.7657183513
 21
-78.3932097804
 31
0.0
  0
LINE
  5
248
330
1F
100
AcDbEntity
  8
0
  6
Continuous
 62
     7
370
    25
100
AcDbLine
 10
-157.7657183513
 20
-80.3932097804
 30
0.0
 11
-139.7657183513
 21
-80.3932097804
 31
0.0
  0
LINE
  5
249
330
1F
100
AcDbEntity
  8
0
  6
Continuous
 62
     7
370
    25
100
AcDbLine
 10
-137.7657183513
 20
-113.3932097804
 30
0.0
 11
-137.7657183513
 21
-82.3932097804
 31
0.0
  0
LINE
  5
24A
330
1F
100
AcDbEntity
  8
0
  6
Continuous
 62
     7
370
    25
100
AcDbLine
 10
-157.7657183513
 20
-115.3932097804
 30
0.0
 11
-139.7657183513
 21
-115.3932097804
 31
0.0
  0
LINE
  5
24B
330
1F
100
AcDbEntity
  8
0
  6
Continuous
 62
     7
370
    25
100
AcDbLine
 10
-159.7657183513
 20
-117.3932097804
 30
0.0
 11
-159.7657183513
 21
-118.3932097804
 31
0.0
  0
LINE
  5
24C
330
1F
100
AcDbEntity
  8
0
  6
Continuous
 62
     7
370
    25
100
AcDbLine
 10
-157.7657183513
 20
-120.3932097804
 30
0.0
 11
-139.7657183513
 21
-120.3932097804
 31
0.0
  0
LINE
  5
24D
330
1F
100
AcDbEntity
  8
0
  6
Continuous
 62
     7
370
    25
100
AcDbLine
 10
-137.7657183513
 20
-153.3932097804
 30
0.0
 11
-137.7657183513
 21
-122.3932097804
 31
0.0
  0
LINE
  5
24E
330
1F
100
AcDbEntity
  8
0
  6
Continuous
 62
     7
370
    25
100
AcDbLine
 10
-157.7657183513
 20
-155.3932097804
 30
0.0
 11
-139.7657183513
 21
-155.3932097804
 31
0.0
  0
LINE
  5
24F
330
1F
100
AcDbEntity
  8
0
  6
Continuous
 62
     7
370
    25
100
AcDbLine
 10
-159.7657183513
 20
-157.3932097804
 30
0.0
 11
-159.7657183513
 21
-158.3932097804
 31
0.0
  0
LINE
  5
250
330
1F
100
AcDbEntity
  8
0
  6
Continuous
 62
     7
370
    25
100
AcDbLine
 10
-157.7657183513
 20
-160.3932097804
 30
0.0
 11
-139.7657183513
 21
-160.3932097804
 31
0.0
  0
LINE
  5
251
330
1F
100
AcDbEntity
  8
0
  6
Continuous
 62
     7
370
    25
100
AcDbLine
 10
-137.7657183513
 20
-202.8932097804
 30
0.0
 11
-137.7657183513
 21
-162.3932097804
 31
0.0
  0
LINE
  5
252
330
1F
100
AcDbEntity
  8
0
  6
Continuous
 62
     7
370
    25
100
AcDbLine
 10
-149.7657183513
 20
-202.8932097804
 30
0.0
 11
-137.7657183513
 21
-202.8932097804
 31
0.0
  0
ARC
  5
253
330
1F
100
AcDbEntity
  8
0
  6
Continuous
 62
     7
370
    25
100
AcDbCircle
 10
-150.7657183513
 20
-202.8932097804
 30
0.0
 40
1.0
100
AcDbArc
 50
0.0000000001
 51
270.0
  0
LINE
  5
254
330
1F
100
AcDbEntity
  8
0
  6
Continuous
 62
     7
370
    25
100
AcDbLine
 10
-150.7657183513
 20
-205.8932097804
 30
0.0
 11
-150.7657183513
 21
-203.8932097804
 31
0.0
  0
LINE
  5
255
330
1F
100
AcDbEntity
  8
0
  6
Continuous
 62
     7
370
    25
100
AcDbLine
 10
-152.7657183513
 20
-207.8932097804
 30
0.0
 11
-150.7657183513
 21
-205.8932097804
 31
0.0
  0
LINE
  5
256
330
1F
100
AcDbEntity
  8
0
  6
Continuous
 62
     7
370
    25
100
AcDbLine
 10
-178.7657183513
 20
-207.8932097804
 30
0.0
 11
-152.7657183513
 21
-207.8932097804
 31
0.0
  0
LINE
  5
257
330
1F
100
AcDbEntity
  8
0
  6
Continuous
 62
     7
370
    25
100
AcDbLine
 10
-180.7657183513
 20
-205.8932097804
 30
0.0
 11
-178.7657183513
 21
-207.8932097804
 31
0.0
  0
LINE
  5
258
330
1F
100
AcDbEntity
  8
0
  6
Continuous
 62
     7
370
    25
100
AcDbLine
 10
-180.7657183513
 20
-205.8932097804
 30
0.0
 11
-180.7657183513
 21
-203.8932097804
 31
0.0
  0
ARC
  5
259
330
1F
100
AcDbEntity
  8
0
  6
Continuous
 62
     7
370
    25
100
AcDbCircle
 10
-180.7657183513
 20
-202.8932097804
 30
0.0
 40
1.0
100
AcDbArc
 50
270.0000000006
 51
180.0
  0
LINE
  5
25A
330
1F
100
AcDbEntity
  8
0
  6
Continuous
 62
     7
370
    25
100
AcDbLine
 10
-181.7657183513
 20
-202.8932097804
 30
0.0
 11
-237.7657183513
 21
-202.8932097804
 31
0.0
  0
LINE
  5
25B
330
1F
100
AcDbEntity
  8
0
  6
Continuous
 62
     7
370
    25
100
AcDbLine
 10
-267.7657183513
 20
47.1067902196
 30
0.0
 11
-237.7657183513
 21
-202.8932097804
 31
0.0
  0
LINE
  5
25C
330
1F
100
AcDbEntity
  8
0
  6
Continuous
 62
     7
370
    25
100
AcDbLine
 10
-181.7657183513
 20
47.1067902196
 30
0.0
 11
-267.7657183513
 21
47.1067902196
 31
0.0
  0
ARC
  5
25D
330
1F
100
AcDbEntity
  8
0
  6
Continuous
 62
     7
370
    25
100
AcDbCircle
 10
-303.1995004075
 20
13.3863348908
 30
0.0
 40
2.000000000000002
100
AcDbArc
 50
270.0
 51
0.0
  0
ARC
  5
25E
330
1F
100
AcDbEntity
  8
0
  6
Continuous
 62
     7
370
    25
100
AcDbCircle
 10
-321.1995004075
 20
9.3863348908
 30
0.0
 40
2.0
100
AcDbArc
 50
90.0
 51
180.0
  0
ARC
  5
25F
330
1F
100
AcDbEntity
  8
0
  6
Continuous
 62
     7
370
    25
100
AcDbCircle
 10
-321.1995004075
 20
8.3863348908
 30
0.0
 40
2.000000000000002
100
AcDbArc
 50
180.0
 51
270.0
  0
ARC
  5
260
330
1F
100
AcDbEntity
  8
0
  6
Continuous
 62
     7
370
    25
100
AcDbCircle
 10
-303.1995004075
 20
4.3863348908
 30
0.0
 40
2.000000000000002
100
AcDbArc
 50
0.0
 51
90.0
  0
ARC
  5
261
330
1F
100
AcDbEntity
  8
0
  6
Continuous
 62
     7
370
    25
100
AcDbCircle
 10
-303.1995004074
 20
-26.6136651092
 30
0.0
 40
2.0
100
AcDbArc
 50
270.0
 51
0.0
  0
ARC
  5
262
330
1F
100
AcDbEntity
  8
0
  6
Continuous
 62
     7
370
    25
100
AcDbCircle
 10
-321.1995004075
 20
-30.6136651092
 30
0.0
 40
2.0
100
AcDbArc
 50
90.0
 51
180.0
  0
ARC
  5
263
330
1F
100
AcDbEntity
  8
0
  6
Continuous
 62
     7
370
    25
100
AcDbCircle
 10
-321.1995004075
 20
-31.6136651092
 30
0.0
 40
2.0
100
AcDbArc
 50
180.0
 51
270.0
  0
ARC
  5
264
330
1F
100
AcDbEntity
  8
0
  6
Continuous
 62
     7
370
    25
100
AcDbCircle
 10
-303.1995004075
 20
-35.6136651092
 30
0.0
 40
2.000000000000007
100
AcDbArc
 50
0.0
 51
90.0
  0
ARC
  5
265
330
1F
100
AcDbEntity
  8
0
  6
Continuous
 62
     7
370
    25
100
AcDbCircle
 10
-303.1995004074
 20
-66.6136651092
 30
0.0
 40
2.0
100
AcDbArc
 50
270.0
 51
0.0
  0
ARC
  5
266
330
1F
100
AcDbEntity
  8
0
  6
Continuous
 62
     7
370
    25
100
AcDbCircle
 10
-321.1995004075
 20
-70.6136651092
 30
0.0
 40
2.0
100
AcDbArc
 50
90.0
 51
180.0
  0
ARC
  5
267
330
1F
100
AcDbEntity
  8
0
  6
Continuous
 62
     7
370
    25
100
AcDbCircle
 10
-321.1995004075
 20
-71.6136651092
 30
0.0
 40
2.0
100
AcDbArc
 50
180.0
 51
270.0
  0
ARC
  5
268
330
1F
100
AcDbEntity
  8
0
  6
Continuous
 62
     7
370
    25
100
AcDbCircle
 10
-303.1995004075
 20
-75.6136651092
 30
0.0
 40
2.0
100
AcDbArc
 50
0.0
 51
90.0
  0
ARC
  5
269
330
1F
100
AcDbEntity
  8
0
  6
Continuous
 62
     7
370
    25
100
AcDbCircle
 10
-303.1995004074
 20
-106.6136651092
 30
0.0
 40
2.0
100
AcDbArc
 50
270.0
 51
0.0
  0
ARC
  5
26A
330
1F
100
AcDbEntity
  8
0
  6
Continuous
 62
     7
370
    25
100
AcDbCircle
 10
-321.1995004075
 20
-110.6136651092
 30
0.0
 40
2.0
100
AcDbArc
 50
90.0
 51
180.0
  0
ARC
  5
26B
330
1F
100
AcDbEntity
  8
0
  6
Continuous
 62
     7
370
    25
100
AcDbCircle
 10
-321.1995004075
 20
-111.6136651092
 30
0.0
 40
2.0
100
AcDbArc
 50
180.0
 51
270.0
  0
ARC
  5
26C
330
1F
100
AcDbEntity
  8
0
  6
Continuous
 62
     7
370
    25
100
AcDbCircle
 10
-303.1995004075
 20
-115.6136651092
 30
0.0
 40
2.0
100
AcDbArc
 50
0.0
 51
90.0
  0
ARC
  5
26D
330
1F
100
AcDbEntity
  8
0
  6
Continuous
 62
     7
370
    25
100
AcDbCircle
 10
-303.1995004074
 20
-146.6136651092
 30
0.0
 40
2.0
100
AcDbArc
 50
270.0
 51
0.0
  0
ARC
  5
26E
330
1F
100
AcDbEntity
  8
0
  6
Continuous
 62
     7
370
    25
100
AcDbCircle
 10
-321.1995004075
 20
-150.6136651092
 30
0.0
 40
2.0
100
AcDbArc
 50
90.0
 51
180.0
  0
ARC
  5
26F
330
1F
100
AcDbEntity
  8
0
  6
Continuous
 62
     7
370
    25
100
AcDbCircle
 10
-321.1995004075
 20
-151.6136651092
 30
0.0
 40
2.0
100
AcDbArc
 50
180.0
 51
270.0
  0
ARC
  5
270
330
1F
100
AcDbEntity
  8
0
  6
Continuous
 62
     7
370
    25
100
AcDbCircle
 10
-303.1995004075
 20
-155.6136651092
 30
0.0
 40
2.0
100
AcDbArc
 50
0.0
 51
90.0
  0
ARC
  5
271
330
1F
100
AcDbEntity
  8
0
  6
Continuous
 62
     7
370
    25
100
AcDbCircle
 10
-344.1995004075
 20
53.8863348908
 30
0.0
 40
1.000000000000007
100
AcDbArc
 50
180.0
 51
89.9999999994
  0
LINE
  5
272
330
1F
100
AcDbEntity
  8
0
  6
Continuous
 62
     7
370
    25
100
AcDbLine
 10
-344.1995004075
 20
56.8863348908
 30
0.0
 11
-344.1995004074
 21
54.8863348908
 31
0.0
  0
LINE
  5
273
330
1F
100
AcDbEntity
  8
0
  6
Continuous
 62
     7
370
    25
100
AcDbLine
 10
-344.1995004075
 20
56.8863348908
 30
0.0
 11
-342.1995004074
 21
58.8863348908
 31
0.0
  0
LINE
  5
274
330
1F
100
AcDbEntity
  8
0
  6
Continuous
 62
     7
370
    25
100
AcDbLine
 10
-342.1995004074
 20
58.8863348908
 30
0.0
 11
-316.1995004075
 21
58.8863348908
 31
0.0
  0
LINE
  5
275
330
1F
100
AcDbEntity
  8
0
  6
Continuous
 62
     7
370
    25
100
AcDbLine
 10
-316.1995004075
 20
58.8863348908
 30
0.0
 11
-314.1995004075
 21
56.8863348908
 31
0.0
  0
LINE
  5
276
330
1F
100
AcDbEntity
  8
0
  6
Continuous
 62
     7
370
    25
100
AcDbLine
 10
-314.1995004075
 20
56.8863348908
 30
0.0
 11
-314.1995004075
 21
54.8863348908
 31
0.0
  0
ARC
  5
277
330
1F
100
AcDbEntity
  8
0
  6
Continuous
 62
     7
370
    25
100
AcDbCircle
 10
-314.1995004075
 20
53.8863348908
 30
0.0
 40
1.0
100
AcDbArc
 50
90.0
 51
359.9999999998
  0
LINE
  5
278
330
1F
100
AcDbEntity
  8
0
  6
Continuous
 62
     7
370
    25
100
AcDbLine
 10
-313.1995004075
 20
53.8863348908
 30
0.0
 11
-301.1995004075
 21
53.8863348908
 31
0.0
  0
LINE
  5
279
330
1F
100
AcDbEntity
  8
0
  6
Continuous
 62
     7
370
    25
100
AcDbLine
 10
-301.1995004075
 20
13.3863348908
 30
0.0
 11
-301.1995004075
 21
53.8863348908
 31
0.0
  0
LINE
  5
27A
330
1F
100
AcDbEntity
  8
0
  6
Continuous
 62
     7
370
    25
100
AcDbLine
 10
-321.1995004075
 20
11.3863348908
 30
0.0
 11
-303.1995004075
 21
11.3863348908
 31
0.0
  0
LINE
  5
27B
330
1F
100
AcDbEntity
  8
0
  6
Continuous
 62
     7
370
    25
100
AcDbLine
 10
-323.1995004075
 20
9.3863348908
 30
0.0
 11
-323.1995004075
 21
8.3863348908
 31
0.0
  0
LINE
  5
27C
330
1F
100
AcDbEntity
  8
0
  6
Continuous
 62
     7
370
    25
100
AcDbLine
 10
-321.1995004075
 20
6.3863348908
 30
0.0
 11
-303.1995004075
 21
6.3863348908
 31
0.0
  0
LINE
  5
27D
330
1F
100
AcDbEntity
  8
0
  6
Continuous
 62
     7
370
    25
100
AcDbLine
 10
-301.1995004074
 20
-26.6136651092
 30
0.0
 11
-301.1995004075
 21
4.3863348908
 31
0.0
  0
LINE
  5
27E
330
1F
100
AcDbEntity
  8
0
  6
Continuous
 62
     7
370
    25
100
AcDbLine
 10
-321.1995004075
 20
-28.6136651092
 30
0.0
 11
-303.1995004074
 21
-28.6136651092
 31
0.0
  0
LINE
  5
27F
330
1F
100
AcDbEntity
  8
0
  6
Continuous
 62
     7
370
    25
100
AcDbLine
 10
-323.1995004075
 20
-30.6136651092
 30
0.0
 11
-323.1995004075
 21
-31.6136651092
 31
0.0
  0
LINE
  5
280
330
1F
100
AcDbEntity
  8
0
  6
Continuous
 62
     7
370
    25
100
AcDbLine
 10
-321.1995004075
 20
-33.6136651092
 30
0.0
 11
-303.1995004075
 21
-33.6136651092
 31
0.0
  0
LINE
  5
281
330
1F
100
AcDbEntity
  8
0
  6
Continuous
 62
     7
370
    25
100
AcDbLine
 10
-301.1995004074
 20
-66.6136651092
 30
0.0
 11
-301.1995004075
 21
-35.6136651092
 31
0.0
  0
LINE
  5
282
330
1F
100
AcDbEntity
  8
0
  6
Continuous
 62
     7
370
    25
100
AcDbLine
 10
-321.1995004075
 20
-68.6136651092
 30
0.0
 11
-303.1995004074
 21
-68.6136651092
 31
0.0
  0
LINE
  5
283
330
1F
100
AcDbEntity
  8
0
  6
Continuous
 62
     7
370
    25
100
AcDbLine
 10
-323.1995004075
 20
-70.6136651092
 30
0.0
 11
-323.1995004075
 21
-71.6136651092
 31
0.0
  0
LINE
  5
284
330
1F
100
AcDbEntity
  8
0
  6
Continuous
 62
     7
370
    25
100
AcDbLine
 10
-321.1995004075
 20
-73.6136651092
 30
0.0
 11
-303.1995004075
 21
-73.6136651092
 31
0.0
  0
LINE
  5
285
330
1F
100
AcDbEntity
  8
0
  6
Continuous
 62
     7
370
    25
100
AcDbLine
 10
-301.1995004074
 20
-106.6136651092
 30
0.0
 11
-301.1995004075
 21
-75.6136651092
 31
0.0
  0
LINE
  5
286
330
1F
100
AcDbEntity
  8
0
  6
Continuous
 62
     7
370
    25
100
AcDbLine
 10
-321.1995004075
 20
-108.6136651092
 30
0.0
 11
-303.1995004074
 21
-108.6136651092
 31
0.0
  0
LINE
  5
287
330
1F
100
AcDbEntity
  8
0
  6
Continuous
 62
     7
370
    25
100
AcDbLine
 10
-323.1995004075
 20
-110.6136651092
 30
0.0
 11
-323.1995004075
 21
-111.6136651092
 31
0.0
  0
LINE
  5
288
330
1F
100
AcDbEntity
  8
0
  6
Continuous
 62
     7
370
    25
100
AcDbLine
 10
-321.1995004075
 20
-113.6136651092
 30
0.0
 11
-303.1995004075
 21
-113.6136651092
 31
0.0
  0
LINE
  5
289
330
1F
100
AcDbEntity
  8
0
  6
Continuous
 62
     7
370
    25
100
AcDbLine
 10
-301.1995004074
 20
-146.6136651092
 30
0.0
 11
-301.1995004075
 21
-115.6136651092
 31
0.0
  0
LINE
  5
28A
330
1F
100
AcDbEntity
  8
0
  6
Continuous
 62
     7
370
    25
100
AcDbLine
 10
-321.1995004075
 20
-148.6136651092
 30
0.0
 11
-303.1995004074
 21
-148.6136651092
 31
0.0
  0
LINE
  5
28B
330
1F
100
AcDbEntity
  8
0
  6
Continuous
 62
     7
370
    25
100
AcDbLine
 10
-323.1995004075
 20
-150.6136651092
 30
0.0
 11
-323.1995004075
 21
-151.6136651092
 31
0.0
  0
LINE
  5
28C
330
1F
100
AcDbEntity
  8
0
  6
Continuous
 62
     7
370
    25
100
AcDbLine
 10
-321.1995004075
 20
-153.6136651092
 30
0.0
 11
-303.1995004075
 21
-153.6136651092
 31
0.0
  0
LINE
  5
28D
330
1F
100
AcDbEntity
  8
0
  6
Continuous
 62
     7
370
    25
100
AcDbLine
 10
-301.1995004075
 20
-196.1136651092
 30
0.0
 11
-301.1995004075
 21
-155.6136651092
 31
0.0
  0
LINE
  5
28E
330
1F
100
AcDbEntity
  8
0
  6
Continuous
 62
     7
370
    25
100
AcDbLine
 10
-313.1995004074
 20
-196.1136651092
 30
0.0
 11
-301.1995004075
 21
-196.1136651092
 31
0.0
  0
ARC
  5
28F
330
1F
100
AcDbEntity
  8
0
  6
Continuous
 62
     7
370
    25
100
AcDbCircle
 10
-314.1995004074
 20
-196.1136651092
 30
0.0
 40
1.0
100
AcDbArc
 50
0.0000000002
 51
270.0
  0
LINE
  5
290
330
1F
100
AcDbEntity
  8
0
  6
Continuous
 62
     7
370
    25
100
AcDbLine
 10
-314.1995004074
 20
-199.1136651092
 30
0.0
 11
-314.1995004074
 21
-197.1136651092
 31
0.0
  0
LINE
  5
291
330
1F
100
AcDbEntity
  8
0
  6
Continuous
 62
     7
370
    25
100
AcDbLine
 10
-316.1995004074
 20
-201.1136651092
 30
0.0
 11
-314.1995004074
 21
-199.1136651092
 31
0.0
  0
LINE
  5
292
330
1F
100
AcDbEntity
  8
0
  6
Continuous
 62
     7
370
    25
100
AcDbLine
 10
-342.1995004074
 20
-201.1136651092
 30
0.0
 11
-316.1995004074
 21
-201.1136651092
 31
0.0
  0
LINE
  5
293
330
1F
100
AcDbEntity
  8
0
  6
Continuous
 62
     7
370
    25
100
AcDbLine
 10
-344.1995004074
 20
-199.1136651092
 30
0.0
 11
-342.1995004074
 21
-201.1136651092
 31
0.0
  0
LINE
  5
294
330
1F
100
AcDbEntity
  8
0
  6
Continuous
 62
     7
370
    25
100
AcDbLine
 10
-344.1995004074
 20
-199.1136651092
 30
0.0
 11
-344.1995004074
 21
-197.1136651092
 31
0.0
  0
ARC
  5
295
330
1F
100
AcDbEntity
  8
0
  6
Continuous
 62
     7
370
    25
100
AcDbCircle
 10
-344.1995004074
 20
-196.1136651092
 30
0.0
 40
1.0
100
AcDbArc
 50
270.0000000006
 51
180.0
  0
LINE
  5
296
330
1F
100
AcDbEntity
  8
0
  6
Continuous
 62
     7
370
    25
100
AcDbLine
 10
-345.1995004074
 20
-196.1136651092
 30
0.0
 11
-401.1995004074
 21
-196.1136651092
 31
0.0
  0
LINE
  5
297
330
1F
100
AcDbEntity
  8
0
  6
Continuous
 62
     7
370
    25
100
AcDbLine
 10
-431.1995004075
 20
53.8863348908
 30
0.0
 11
-401.1995004074
 21
-196.1136651092
 31
0.0
  0
LINE
  5
298
330
1F
100
AcDbEntity
  8
0
  6
Continuous
 62
     7
370
    25
100
AcDbLine
 10
-345.1995004075
 20
53.8863348908
 30
0.0
 11
-431.1995004075
 21
53.8863348908
 31
0.0
  0
ARC
  5
299
330
1F
100
AcDbEntity
  8
0
  6
Continuous
 62
     7
370
    25
100
AcDbCircle
 10
355.1369352327
 20
247.9980027459
 30
0.0
 40
1.999999999999967
100
AcDbArc
 50
60.0
 51
150.0
  0
ARC
  5
29A
330
1F
100
AcDbEntity
  8
0
  6
Continuous
 62
     7
370
    25
100
AcDbCircle
 10
354.6369352327
 20
247.1319773421
 30
0.0
 40
2.000000000000016
100
AcDbArc
 50
150.0
 51
240.0
  0
ARC
  5
29B
330
1F
100
AcDbEntity
  8
0
  6
Continuous
 62
     7
370
    25
100
AcDbCircle
 10
380.6351796452
 20
227.5030817786
 30
0.0
 40
1.999999999999992
100
AcDbArc
 50
325.6625640547
 51
60.0
  0
ARC
  5
29C
330
1F
100
AcDbEntity
  8
0
  6
Continuous
 62
     7
370
    25
100
AcDbCircle
 10
340.6062305145
 20
202.26529669
 30
0.0
 40
2.000000000000019
100
AcDbArc
 50
184.461905271
 51
278.7993412163
  0
ARC
  5
29D
330
1F
100
AcDbEntity
  8
0
  6
Continuous
 62
     7
370
    25
100
AcDbCircle
 10
334.1032327089
 20
234.185717632
 30
0.0
 40
1.999999999999992
100
AcDbArc
 50
4.461905271
 51
94.461905271
  0
ARC
  5
29E
330
1F
100
AcDbEntity
  8
0
  6
Continuous
 62
     7
370
    25
100
AcDbCircle
 10
333.1062634298
 20
234.1079213824
 30
0.0
 40
2.000000000000021
100
AcDbArc
 50
94.461905271
 51
184.461905271
  0
ARC
  5
29F
330
1F
100
AcDbEntity
  8
0
  6
Continuous
 62
     7
370
    25
100
AcDbCircle
 10
334.5559989254
 20
164.1130079889
 30
0.0
 40
2.00000000000002
100
AcDbArc
 50
271.8028992788
 51
4.461905271
  0
ARC
  5
2A0
330
1F
100
AcDbEntity
  8
0
  6
Continuous
 62
     7
370
    25
100
AcDbCircle
 10
331.5042493306
 20
261.064990044
 30
0.0
 40
99.00000000000003
100
AcDbArc
 50
264.0657872671
 51
271.8028992788
  0
ARC
  5
2A1
330
1F
100
AcDbEntity
  8
0
  6
Continuous
 62
     7
370
    25
100
AcDbCircle
 10
285.3792881103
 20
173.4665428407
 30
0.0
 40
37.50000000000003
100
AcDbArc
 50
343.1483699513
 51
141.3135353197
  0
ARC
  5
2A2
330
1F
100
AcDbEntity
  8
0
  6
Continuous
 62
     7
370
    25
100
AcDbCircle
 10
331.5042493306
 20
261.064990044
 30
0.0
 40
99.00000000000006
100
AcDbArc
 50
212.6590059923
 51
220.3961180039
  0
ARC
  5
2A3
330
1F
100
AcDbEntity
  8
0
  6
Continuous
 62
     7
370
    25
100
AcDbCircle
 10
249.8402308354
 20
208.72009456
 30
0.0
 40
1.999999999999992
100
AcDbArc
 50
120.0
 51
212.6590059923
  0
ARC
  5
2A4
330
1F
100
AcDbEntity
  8
0
  6
Continuous
 62
     7
370
    25
100
AcDbCircle
 10
308.3715634284
 20
247.1319773421
 30
0.0
 40
2.000000000000016
100
AcDbArc
 50
300.0
 51
30.0
  0
ARC
  5
2A5
330
1F
100
AcDbEntity
  8
0
  6
Continuous
 62
     7
370
    25
100
AcDbCircle
 10
307.8715634284
 20
247.9980027459
 30
0.0
 40
2.000000000000016
100
AcDbArc
 50
30.0
 51
120.0
  0
ARC
  5
2A6
330
1F
100
AcDbEntity
  8
0
  6
Continuous
 62
     7
370
    25
100
AcDbCircle
 10
277.8733190159
 20
235.2973104126
 30
0.0
 40
2.000000000000054
100
AcDbArc
 50
205.6625640547
 51
300.0
  0
ARC
  5
2A7
330
1F
100
AcDbEntity
  8
0
  6
Continuous
 62
     7
370
    25
100
AcDbCircle
 10
276.0312305593
 20
282.582289791
 30
0.0
 40
2.00000000000004
100
AcDbArc
 50
64.461905271
 51
158.7993412163
  0
ARC
  5
2A8
330
1F
100
AcDbEntity
  8
0
  6
Continuous
 62
     7
370
    25
100
AcDbCircle
 10
306.9266248973
 20
272.2538406203
 30
0.0
 40
2.000000000000064
100
AcDbArc
 50
244.461905271
 51
334.461905271
  0
ARC
  5
2A9
330
1F
100
AcDbEntity
  8
0
  6
Continuous
 62
     7
370
    25
100
AcDbCircle
 10
307.3577360085
 20
273.1561394676
 30
0.0
 40
2.000000000000012
100
AcDbArc
 50
334.461905271
 51
64.461905271
  0
ARC
  5
2AA
330
1F
100
AcDbEntity
  8
0
  6
Continuous
 62
     7
370
    25
100
AcDbCircle
 10
246.0154951262
 20
306.8980883964
 30
0.0
 40
1.99999999999999
100
AcDbArc
 50
151.8028992788
 51
244.461905271
  0
ARC
  5
2AB
330
1F
100
AcDbEntity
  8
0
  6
Continuous
 62
     7
370
    25
100
AcDbCircle
 10
331.5042493306
 20
261.064990044
 30
0.0
 40
99.00000000000007
100
AcDbArc
 50
144.0657872671
 51
151.8028992788
  0
ARC
  5
2AC
330
1F
100
AcDbEntity
  8
0
  6
Continuous
 62
     7
370
    25
100
AcDbCircle
 10
278.7042493306
 20
344.809601811
 30
0.0
 40
37.50000000000002
100
AcDbArc
 50
223.1483699513
 51
21.3135353197
  0
ARC
  5
2AD
330
1F
100
AcDbEntity
  8
0
  6
Continuous
 62
     7
370
    25
100
AcDbCircle
 10
331.5042493306
 20
261.064990044
 30
0.0
 40
99.00000000000004
100
AcDbArc
 50
92.6590059922
 51
100.3961180039
  0
ARC
  5
2AE
330
1F
100
AcDbEntity
  8
0
  6
Continuous
 62
     7
370
    25
100
AcDbCircle
 10
327.0042493306
 20
357.9605523779
 30
0.0
 40
2.0
100
AcDbArc
 50
0.0
 51
92.6590059922
  0
ARC
  5
2AF
330
1F
100
AcDbEntity
  8
0
  6
Continuous
 62
     7
370
    25
100
AcDbCircle
 10
332.0042493306
 20
288.064990044
 30
0.0
 40
2.0
100
AcDbArc
 50
270.0
 51
0.0
  0
ARC
  5
2B0
330
1F
100
AcDbEntity
  8
0
  6
Continuous
 62
     7
370
    25
100
AcDbCircle
 10
336.0042493306
 20
320.3945779408
 30
0.0
 40
2.00000000000003
100
AcDbArc
 50
85.6625640547
 51
180.0
  0
ARC
  5
2B1
330
1F
100
AcDbEntity
  8
0
  6
Continuous
 62
     7
370
    25
100
AcDbCircle
 10
377.8752869179
 20
298.347383651
 30
0.0
 40
2.000000000000036
100
AcDbArc
 50
304.461905271
 51
38.7993412163
  0
ARC
  5
2B2
330
1F
100
AcDbEntity
  8
0
  6
Continuous
 62
     7
370
    25
100
AcDbCircle
 10
353.4828903854
 20
276.7554118797
 30
0.0
 40
2.000000000000036
100
AcDbArc
 50
124.461905271
 51
214.461905271
  0
ARC
  5
2B3
330
1F
100
AcDbEntity
  8
0
  6
Continuous
 62
     7
370
    25
100
AcDbCircle
 10
354.0487485535
 20
275.9309092819
 30
0.0
 40
2.000000000000036
100
AcDbArc
 50
214.461905271
 51
304.461905271
  0
ARC
  5
2B4
330
1F
100
AcDbEntity
  8
0
  6
Continuous
 62
     7
370
    25
100
AcDbCircle
 10
413.9412539401
 20
312.1838737466
 30
0.0
 40
1.999999999999971
100
AcDbArc
 50
31.8028992788
 51
124.461905271
  0
ARC
  5
2B5
330
1F
100
AcDbEntity
  8
0
  6
Continuous
 62
     7
370
    25
100
AcDbCircle
 10
331.5042493306
 20
261.064990044
 30
0.0
 40
99.00000000000006
100
AcDbArc
 50
24.0657872671
 51
31.8028992788
  0
ARC
  5
2B6
330
1F
100
AcDbEntity
  8
0
  6
Continuous
 62
     7
370
    25
100
AcDbCircle
 10
430.4292105508
 20
264.9188254803
 30
0.0
 40
37.50000000000003
100
AcDbArc
 50
103.1483699513
 51
261.3135353197
  0
ARC
  5
2B7
330
1F
100
AcDbEntity
  8
0
  6
Continuous
 62
     7
370
    25
100
AcDbCircle
 10
331.5042493306
 20
261.064990044
 30
0.0
 40
99.00000000000001
100
AcDbArc
 50
332.6590059923
 51
340.3961180039
  0
ARC
  5
2B8
330
1F
100
AcDbEntity
  8
0
  6
Continuous
 62
     7
370
    25
100
AcDbCircle
 10
417.6682678257
 20
216.5143231941
 30
0.0
 40
2.00000000000002
100
AcDbArc
 50
240.0
 51
332.6590059923
  0
ARC
  5
2B9
330
1F
100
AcDbEntity
  8
0
  6
Continuous
 62
     7
370
    25
100
AcDbCircle
 10
331.0042493306
 20
288.064990044
 30
0.0
 40
2.0
100
AcDbArc
 50
180.0
 51
270.0
  0
ARC
  5
2BA
330
1F
100
AcDbEntity
  8
0
  6
Continuous
 62
     7
370
    25
100
AcDbCircle
 10
331.5042493306
 20
261.064990044
 30
0.0
 40
61.49999999999999
100
AcDbArc
 50
278.7993412163
 51
325.6625640547
  0
LINE
  5
2BB
330
1F
100
AcDbEntity
  8
0
  6
Continuous
 62
     7
370
    25
100
AcDbLine
 10
381.6351796452
 20
229.2351325861
 30
0.0
 11
353.6369352327
 21
245.3999265345
 31
0.0
  0
LINE
  5
2BC
330
1F
100
AcDbEntity
  8
0
  6
Continuous
 62
     7
370
    25
100
AcDbLine
 10
353.4048844252
 20
248.9980027459
 30
0.0
 11
352.9048844252
 21
248.1319773421
 31
0.0
  0
LINE
  5
2BD
330
1F
100
AcDbEntity
  8
0
  6
Continuous
 62
     7
370
    25
100
AcDbLine
 10
416.6682678257
 20
214.7822723865
 30
0.0
 11
356.1369352327
 21
249.7300535534
 31
0.0
  0
LINE
  5
2BE
330
1F
100
AcDbEntity
  8
0
  6
Continuous
 62
     7
370
    25
100
AcDbLine
 10
355.1804648895
 20
274.2819040864
 30
0.0
 11
412.8095376041
 21
313.8328789421
 31
0.0
  0
LINE
  5
2BF
330
1F
100
AcDbEntity
  8
0
  6
Continuous
 62
     7
370
    25
100
AcDbLine
 10
351.83388519
 20
275.6236955436
 30
0.0
 11
352.399743358
 21
274.7991929459
 31
0.0
  0
LINE
  5
2C0
330
1F
100
AcDbEntity
  8
0
  6
Continuous
 62
     7
370
    25
100
AcDbLine
 10
352.3511740494
 20
278.4044170751
 30
0.0
 11
379.007003254
 21
296.6983784556
 31
0.0
  0
ARC
  5
2C1
330
1F
100
AcDbEntity
  8
0
  6
Continuous
 62
     7
370
    25
100
AcDbCircle
 10
331.5042493306
 20
261.064990044
 30
0.0
 40
61.50000000000003
100
AcDbArc
 50
38.7993412163
 51
85.6625640547
  0
LINE
  5
2C2
330
1F
100
AcDbEntity
  8
0
  6
Continuous
 62
     7
370
    25
100
AcDbLine
 10
334.0042493306
 20
320.3945779408
 30
0.0
 11
334.0042493306
 21
288.064990044
 31
0.0
  0
LINE
  5
2C3
330
1F
100
AcDbEntity
  8
0
  6
Continuous
 62
     7
370
    25
100
AcDbLine
 10
331.0042493306
 20
286.064990044
 30
0.0
 11
332.0042493306
 21
286.064990044
 31
0.0
  0
LINE
  5
2C4
330
1F
100
AcDbEntity
  8
0
  6
Continuous
 62
     7
370
    25
100
AcDbLine
 10
329.0042493306
 20
357.9605523779
 30
0.0
 11
329.0042493306
 21
288.064990044
 31
0.0
  0
LINE
  5
2C5
330
1F
100
AcDbEntity
  8
0
  6
Continuous
 62
     7
370
    25
100
AcDbLine
 10
308.2199582307
 20
274.9607371623
 30
0.0
 11
245.153272904
 21
305.0934907018
 31
0.0
  0
LINE
  5
2C6
330
1F
100
AcDbEntity
  8
0
  6
Continuous
 62
     7
370
    25
100
AcDbLine
 10
308.731222592
 20
271.3916183981
 30
0.0
 11
309.1623337031
 21
272.2939172454
 31
0.0
  0
LINE
  5
2C7
330
1F
100
AcDbEntity
  8
0
  6
Continuous
 62
     7
370
    25
100
AcDbLine
 10
306.0644026751
 20
270.4492429257
 30
0.0
 11
276.8934527815
 21
284.3868874856
 31
0.0
  0
ARC
  5
2C8
330
1F
100
AcDbEntity
  8
0
  6
Continuous
 62
     7
370
    25
100
AcDbCircle
 10
331.5042493306
 20
261.064990044
 30
0.0
 40
61.50000000000002
100
AcDbArc
 50
158.7993412163
 51
205.6625640547
  0
LINE
  5
2C9
330
1F
100
AcDbEntity
  8
0
  6
Continuous
 62
     7
370
    25
100
AcDbLine
 10
278.8733190159
 20
233.5652596051
 30
0.0
 11
306.8715634284
 21
249.7300535534
 31
0.0
  0
LINE
  5
2CA
330
1F
100
AcDbEntity
  8
0
  6
Continuous
 62
     7
370
    25
100
AcDbLine
 10
310.103614236
 20
248.1319773421
 30
0.0
 11
309.603614236
 21
248.9980027459
 31
0.0
  0
LINE
  5
2CB
330
1F
100
AcDbEntity
  8
0
  6
Continuous
 62
     7
370
    25
100
AcDbLine
 10
248.8402308354
 20
210.4521453676
 30
0.0
 11
309.3715634284
 21
245.3999265345
 31
0.0
  0
LINE
  5
2CC
330
1F
100
AcDbEntity
  8
0
  6
Continuous
 62
     7
370
    25
100
AcDbLine
 10
331.1123248715
 20
233.9523288832
 30
0.0
 11
336.5499374837
 21
164.2686004881
 31
0.0
  0
LINE
  5
2CD
330
1F
100
AcDbEntity
  8
0
  6
Continuous
 62
     7
370
    25
100
AcDbLine
 10
333.9476402097
 20
236.1796561903
 30
0.0
 11
332.9506709306
 21
236.1018599407
 31
0.0
  0
LINE
  5
2CE
330
1F
100
AcDbEntity
  8
0
  6
Continuous
 62
     7
370
    25
100
AcDbLine
 10
336.0971712672
 20
234.3413101311
 30
0.0
 11
338.6122919562
 21
202.1097041908
 31
0.0
  0
ARC
  5
2CF
330
1F
100
AcDbEntity
  8
0
  6
Continuous
 62
     7
370
    25
100
AcDbCircle
 10
263.6602008731
 20
106.5742094251
 30
0.0
 40
2.000000000000028
100
AcDbArc
 50
64.461905271
 51
156.9659159615
  0
ARC
  5
2D0
330
1F
100
AcDbEntity
  8
0
  6
Continuous
 62
     7
370
    25
100
AcDbCircle
 10
333.8706184956
 20
77.4613592526
 30
0.0
 40
1.999999999999988
100
AcDbArc
 50
244.461905271
 51
334.461905271
  0
ARC
  5
2D1
330
1F
100
AcDbEntity
  8
0
  6
Continuous
 62
     7
370
    25
100
AcDbCircle
 10
277.0244232016
 20
110.1634141242
 30
0.0
 40
2.000000000000038
100
AcDbArc
 50
151.673442381
 51
244.461905271
  0
ARC
  5
2D2
330
1F
100
AcDbEntity
  8
0
  6
Continuous
 62
     7
370
    25
100
AcDbCircle
 10
358.4482429288
 20
66.2725086763
 30
0.0
 40
94.49999999999999
100
AcDbArc
 50
145.1192592091
 51
151.673442381
  0
ARC
  5
2D3
330
1F
100
AcDbEntity
  8
0
  6
Continuous
 62
     7
370
    25
100
AcDbCircle
 10
308.0482429288
 20
146.2105471811
 30
0.0
 40
37.50000000000004
100
AcDbArc
 50
223.6751059223
 51
20.7867993487
  0
ARC
  5
2D4
330
1F
100
AcDbEntity
  8
0
  6
Continuous
 62
     7
370
    25
100
AcDbCircle
 10
358.4482429288
 20
66.2725086763
 30
0.0
 40
94.50000000000001
100
AcDbArc
 50
92.78846289
 51
99.3426460619
  0
ARC
  5
2D5
330
1F
100
AcDbEntity
  8
0
  6
Continuous
 62
     7
370
    25
100
AcDbCircle
 10
353.9482429288
 20
158.6629843759
 30
0.0
 40
2.000000000000019
100
AcDbArc
 50
0.0
 51
92.78846289
  0
ARC
  5
2D6
330
1F
100
AcDbEntity
  8
0
  6
Continuous
 62
     7
370
    25
100
AcDbCircle
 10
357.9482429288
 20
93.2725086763
 30
0.0
 40
2.000000000000014
100
AcDbArc
 50
180.0
 51
270.0
  0
ARC
  5
2D7
330
1F
100
AcDbEntity
  8
0
  6
Continuous
 62
     7
370
    25
100
AcDbCircle
 10
358.9482429288
 20
93.2725086763
 30
0.0
 40
2.000000000000014
100
AcDbArc
 50
270.0
 51
0.0
  0
ARC
  5
2D8
330
1F
100
AcDbEntity
  8
0
  6
Continuous
 62
     7
370
    25
100
AcDbCircle
 10
362.9482429288
 20
169.1741607524
 30
0.0
 40
2.000000000000008
100
AcDbArc
 50
87.4959893095
 51
180.0
  0
ARC
  5
2D9
330
1F
100
AcDbEntity
  8
0
  6
Continuous
 62
     7
370
    25
100
AcDbCircle
 10
358.4482429288
 20
66.2725086763
 30
0.0
 40
105.0
100
AcDbArc
 50
36.9659159615
 51
87.4959893095
  0
ARC
  5
2DA
330
1F
100
AcDbEntity
  8
0
  6
Continuous
 62
     7
370
    25
100
AcDbCircle
 10
440.7445606208
 20
128.2105106971
 30
0.0
 40
2.00000000000006
100
AcDbArc
 50
304.461905271
 51
36.9659159615
  0
ARC
  5
2DB
330
1F
100
AcDbEntity
  8
0
  6
Continuous
 62
     7
370
    25
100
AcDbCircle
 10
380.4268839836
 20
81.962930512
 30
0.0
 40
2.000000000000004
100
AcDbArc
 50
124.461905271
 51
214.461905271
  0
ARC
  5
2DC
330
1F
100
AcDbEntity
  8
0
  6
Continuous
 62
     7
370
    25
100
AcDbCircle
 10
380.9927421517
 20
81.1384279142
 30
0.0
 40
2.000000000000028
100
AcDbArc
 50
214.461905271
 51
304.461905271
  0
ARC
  5
2DD
330
1F
100
AcDbEntity
  8
0
  6
Continuous
 62
     7
370
    25
100
AcDbCircle
 10
437.1707919053
 20
114.8421523093
 30
0.0
 40
2.000000000000024
100
AcDbArc
 50
31.673442381
 51
124.461905271
  0
ARC
  5
2DE
330
1F
100
AcDbEntity
  8
0
  6
Continuous
 62
     7
370
    25
100
AcDbCircle
 10
358.4482429288
 20
66.2725086763
 30
0.0
 40
94.50000000000007
100
AcDbArc
 50
25.1192592091
 51
31.673442381
  0
ARC
  5
2DF
330
1F
100
AcDbEntity
  8
0
  6
Continuous
 62
     7
370
    25
100
AcDbCircle
 10
452.8766150027
 20
69.9511697746
 30
0.0
 40
37.50000000000001
100
AcDbArc
 50
103.6751059223
 51
260.7867993487
  0
ARC
  5
2E0
330
1F
100
AcDbEntity
  8
0
  6
Continuous
 62
     7
370
    25
100
AcDbCircle
 10
358.4482429288
 20
66.2725086763
 30
0.0
 40
94.50000000000007
100
AcDbArc
 50
332.78846289
 51
339.3426460619
  0
ARC
  5
2E1
330
1F
100
AcDbEntity
  8
0
  6
Continuous
 62
     7
370
    25
100
AcDbCircle
 10
440.7107419524
 20
23.9743851435
 30
0.0
 40
2.000000000000025
100
AcDbArc
 50
240.0
 51
332.78846289
  0
ARC
  5
2E2
330
1F
100
AcDbEntity
  8
0
  6
Continuous
 62
     7
370
    25
100
AcDbCircle
 10
382.080928831
 20
53.2055213782
 30
0.0
 40
2.00000000000002
100
AcDbArc
 50
60.0
 51
150.0
  0
ARC
  5
2E3
330
1F
100
AcDbEntity
  8
0
  6
Continuous
 62
     7
370
    25
100
AcDbCircle
 10
381.580928831
 20
52.3394959744
 30
0.0
 40
2.000000000000013
100
AcDbArc
 50
150.0
 51
240.0
  0
ARC
  5
2E4
330
1F
100
AcDbEntity
  8
0
  6
Continuous
 62
     7
370
    25
100
AcDbCircle
 10
445.3136877181
 20
10.9245683212
 30
0.0
 40
2.000000000000043
100
AcDbArc
 50
327.4959893095
 51
60.0
  0
ARC
  5
2E5
330
1F
100
AcDbEntity
  8
0
  6
Continuous
 62
     7
370
    25
100
AcDbCircle
 10
358.4482429288
 20
66.2725086763
 30
0.0
 40
105.0000000000001
100
AcDbArc
 50
276.9659159615
 51
327.4959893095
  0
ARC
  5
2E6
330
1F
100
AcDbEntity
  8
0
  6
Continuous
 62
     7
370
    25
100
AcDbCircle
 10
370.9399672925
 20
-35.9671940933
 30
0.0
 40
2.00000000000002
100
AcDbArc
 50
184.461905271
 51
276.9659159615
  0
ARC
  5
2E7
330
1F
100
AcDbEntity
  8
0
  6
Continuous
 62
     7
370
    25
100
AcDbCircle
 10
361.0472263071
 20
39.3932362643
 30
0.0
 40
2.000000000000019
100
AcDbArc
 50
4.461905271
 51
94.461905271
  0
ARC
  5
2E8
330
1F
100
AcDbEntity
  8
0
  6
Continuous
 62
     7
370
    25
100
AcDbCircle
 10
360.050257028
 20
39.3154400147
 30
0.0
 40
1.999999999999995
100
AcDbArc
 50
94.461905271
 51
184.461905271
  0
ARC
  5
2E9
330
1F
100
AcDbEntity
  8
0
  6
Continuous
 62
     7
370
    25
100
AcDbCircle
 10
361.1495136794
 20
-26.1880404046
 30
0.0
 40
2.000000000000019
100
AcDbArc
 50
271.673442381
 51
4.461905271
  0
ARC
  5
2EA
330
1F
100
AcDbEntity
  8
0
  6
Continuous
 62
     7
370
    25
100
AcDbCircle
 10
358.4482429288
 20
66.2725086763
 30
0.0
 40
94.50000000000001
100
AcDbArc
 50
265.1192592091
 51
271.673442381
  0
ARC
  5
2EB
330
1F
100
AcDbEntity
  8
0
  6
Continuous
 62
     7
370
    25
100
AcDbCircle
 10
314.4198708549
 20
-17.3441909269
 30
0.0
 40
37.50000000000004
100
AcDbArc
 50
343.6751059223
 51
140.7867993487
  0
ARC
  5
2EC
330
1F
100
AcDbEntity
  8
0
  6
Continuous
 62
     7
370
    25
100
AcDbCircle
 10
358.4482429288
 20
66.2725086763
 30
0.0
 40
94.49999999999997
100
AcDbArc
 50
212.78846289
 51
219.3426460619
  0
ARC
  5
2ED
330
1F
100
AcDbEntity
  8
0
  6
Continuous
 62
     7
370
    25
100
AcDbCircle
 10
280.6857439052
 20
16.1801565095
 30
0.0
 40
2.000000000000001
100
AcDbArc
 50
120.0
 51
212.78846289
  0
ARC
  5
2EE
330
1F
100
AcDbEntity
  8
0
  6
Continuous
 62
     7
370
    25
100
AcDbCircle
 10
335.3155570266
 20
52.3394959744
 30
0.0
 40
2.000000000000016
100
AcDbArc
 50
300.0
 51
30.0
  0
ARC
  5
2EF
330
1F
100
AcDbEntity
  8
0
  6
Continuous
 62
     7
370
    25
100
AcDbCircle
 10
334.8155570266
 20
53.2055213782
 30
0.0
 40
2.000000000000016
100
AcDbArc
 50
30.0
 51
120.0
  0
ARC
  5
2F0
330
1F
100
AcDbEntity
  8
0
  6
Continuous
 62
     7
370
    25
100
AcDbCircle
 10
267.0827981395
 20
18.7187969552
 30
0.0
 40
2.000000000000013
100
AcDbArc
 50
207.4959893095
 51
300.0
  0
ARC
  5
2F1
330
1F
100
AcDbEntity
  8
0
  6
Continuous
 62
     7
370
    25
100
AcDbCircle
 10
358.4482429288
 20
66.2725086763
 30
0.0
 40
105.0
100
AcDbArc
 50
156.9659159615
 51
207.4959893095
  0
ARC
  5
2F2
330
1F
100
AcDbEntity
  8
0
  6
Continuous
 62
     7
370
    25
100
AcDbCircle
 10
334.3017296067
 20
78.3636581
 30
0.0
 40
2.00000000000004
100
AcDbArc
 50
334.461905271
 51
64.461905271
  0
LINE
  5
2F3
330
1F
100
AcDbEntity
  8
0
  6
Continuous
 62
     7
370
    25
100
AcDbLine
 10
446.3136877181
 20
12.6566191288
 30
0.0
 11
380.580928831
 21
50.6074451668
 31
0.0
  0
LINE
  5
2F4
330
1F
100
AcDbEntity
  8
0
  6
Continuous
 62
     7
370
    25
100
AcDbLine
 10
380.3488780234
 20
54.2055213782
 30
0.0
 11
379.8488780234
 21
53.3394959744
 31
0.0
  0
LINE
  5
2F5
330
1F
100
AcDbEntity
  8
0
  6
Continuous
 62
     7
370
    25
100
AcDbLine
 10
439.7107419524
 20
22.2423343359
 30
0.0
 11
383.080928831
 21
54.9375721858
 31
0.0
  0
LINE
  5
2F6
330
1F
100
AcDbEntity
  8
0
  6
Continuous
 62
     7
370
    25
100
AcDbLine
 10
382.1244584877
 20
79.4894227188
 30
0.0
 11
436.0390755693
 21
116.4911575047
 31
0.0
  0
LINE
  5
2F7
330
1F
100
AcDbEntity
  8
0
  6
Continuous
 62
     7
370
    25
100
AcDbLine
 10
378.7778787882
 20
80.8312141759
 30
0.0
 11
379.3437369562
 21
80.0067115782
 31
0.0
  0
LINE
  5
2F8
330
1F
100
AcDbEntity
  8
0
  6
Continuous
 62
     7
370
    25
100
AcDbLine
 10
379.2951676476
 20
83.6119357074
 30
0.0
 11
441.8762769569
 21
126.5615055017
 31
0.0
  0
LINE
  5
2F9
330
1F
100
AcDbEntity
  8
0
  6
Continuous
 62
     7
370
    25
100
AcDbLine
 10
360.9482429288
 20
169.1741607524
 30
0.0
 11
360.9482429288
 21
93.2725086763
 31
0.0
  0
LINE
  5
2FA
330
1F
100
AcDbEntity
  8
0
  6
Continuous
 62
     7
370
    25
100
AcDbLine
 10
357.9482429288
 20
91.2725086763
 30
0.0
 11
358.9482429288
 21
91.2725086763
 31
0.0
  0
LINE
  5
2FB
330
1F
100
AcDbEntity
  8
0
  6
Continuous
 62
     7
370
    25
100
AcDbLine
 10
355.9482429288
 20
158.6629843759
 30
0.0
 11
355.9482429288
 21
93.2725086763
 31
0.0
  0
LINE
  5
2FC
330
1F
100
AcDbEntity
  8
0
  6
Continuous
 62
     7
370
    25
100
AcDbLine
 10
335.1639518289
 20
80.1682557946
 30
0.0
 11
276.1622009794
 21
108.3588164295
 31
0.0
  0
LINE
  5
2FD
330
1F
100
AcDbEntity
  8
0
  6
Continuous
 62
     7
370
    25
100
AcDbLine
 10
335.6752161902
 20
76.5991370304
 30
0.0
 11
336.1063273013
 21
77.5014358777
 31
0.0
  0
LINE
  5
2FE
330
1F
100
AcDbEntity
  8
0
  6
Continuous
 62
     7
370
    25
100
AcDbLine
 10
333.0083962733
 20
75.656761558
 30
0.0
 11
264.5224230953
 21
108.3788071197
 31
0.0
  0
LINE
  5
2FF
330
1F
100
AcDbEntity
  8
0
  6
Continuous
 62
     7
370
    25
100
AcDbLine
 10
268.0827981395
 20
16.9867461477
 30
0.0
 11
333.8155570266
 21
54.9375721858
 31
0.0
  0
LINE
  5
300
330
1F
100
AcDbEntity
  8
0
  6
Continuous
 62
     7
370
    25
100
AcDbLine
 10
337.0476078342
 20
53.3394959744
 30
0.0
 11
336.5476078342
 21
54.2055213782
 31
0.0
  0
LINE
  5
301
330
1F
100
AcDbEntity
  8
0
  6
Continuous
 62
     7
370
    25
100
AcDbLine
 10
279.6857439052
 20
17.912207317
 30
0.0
 11
336.3155570266
 21
50.6074451668
 31
0.0
  0
LINE
  5
302
330
1F
100
AcDbEntity
  8
0
  6
Continuous
 62
     7
370
    25
100
AcDbLine
 10
358.0563184697
 20
39.1598475155
 30
0.0
 11
363.1434522377
 21
-26.0324479054
 31
0.0
  0
LINE
  5
303
330
1F
100
AcDbEntity
  8
0
  6
Continuous
 62
     7
370
    25
100
AcDbLine
 10
360.891633808
 20
41.3871748226
 30
0.0
 11
359.8946645288
 21
41.309378573
 31
0.0
  0
LINE
  5
304
330
1F
100
AcDbEntity
  8
0
  6
Continuous
 62
     7
370
    25
100
AcDbLine
 10
363.0411648654
 20
39.5488287634
 30
0.0
 11
368.9460287342
 21
-36.1227865925
 31
0.0
  0
ARC
  5
305
330
1F
100
AcDbEntity
  8
0
  6
Continuous
 62
     7
370
    25
100
AcDbCircle
 10
345.8727468059
 20
-129.874113965
 30
0.0
 40
2.000000000000016
100
AcDbArc
 50
60.0
 51
150.0
  0
ARC
  5
306
330
1F
100
AcDbEntity
  8
0
  6
Continuous
 62
     7
370
    25
100
AcDbCircle
 10
345.3727468059
 20
-130.7401393687
 30
0.0
 40
2.000000000000016
100
AcDbArc
 50
150.0
 51
240.0
  0
ARC
  5
307
330
1F
100
AcDbEntity
  8
0
  6
Continuous
 62
     7
370
    25
100
AcDbCircle
 10
363.1156043786
 20
-145.602785118
 30
0.0
 40
2.000000000000021
100
AcDbArc
 50
324.8363929092
 51
60.0
  0
ARC
  5
308
330
1F
100
AcDbEntity
  8
0
  6
Continuous
 62
     7
370
    25
100
AcDbCircle
 10
330.6004493674
 20
-166.1032107379
 30
0.0
 40
2.000000000000012
100
AcDbArc
 50
184.461905271
 51
279.6255123619
  0
ARC
  5
309
330
1F
100
AcDbEntity
  8
0
  6
Continuous
 62
     7
370
    25
100
AcDbCircle
 10
324.8390442821
 20
-143.6863990789
 30
0.0
 40
1.999999999999988
100
AcDbArc
 50
4.461905271
 51
94.461905271
  0
ARC
  5
30A
330
1F
100
AcDbEntity
  8
0
  6
Continuous
 62
     7
370
    25
100
AcDbCircle
 10
323.842075003
 20
-143.7641953284
 30
0.0
 40
2.000000000000021
100
AcDbArc
 50
94.461905271
 51
184.461905271
  0
ARC
  5
30B
330
1F
100
AcDbEntity
  8
0
  6
Continuous
 62
     7
370
    25
100
AcDbCircle
 10
324.5518628885
 20
-204.2765817445
 30
0.0
 40
2.00000000000002
100
AcDbArc
 50
271.5139647063
 51
4.461905271
  0
ARC
  5
30C
330
1F
100
AcDbEntity
  8
0
  6
Continuous
 62
     7
370
    25
100
AcDbCircle
 10
322.2400609037
 20
-116.8071266669
 30
0.0
 40
89.50000000000004
100
AcDbArc
 50
266.4167304535
 51
271.5139647063
  0
ARC
  5
30D
330
1F
100
AcDbEntity
  8
0
  6
Continuous
 62
     7
370
    25
100
AcDbCircle
 10
280.5412323258
 20
-195.9996622698
 30
0.0
 40
37.50000000000004
100
AcDbArc
 50
344.3238415445
 51
140.1380637265
  0
ARC
  5
30E
330
1F
100
AcDbEntity
  8
0
  6
Continuous
 62
     7
370
    25
100
AcDbCircle
 10
322.2400609037
 20
-116.8071266669
 30
0.0
 40
89.50000000000003
100
AcDbArc
 50
212.9479405647
 51
218.0451748175
  0
ARC
  5
30F
330
1F
100
AcDbEntity
  8
0
  6
Continuous
 62
     7
370
    25
100
AcDbCircle
 10
248.8131159337
 20
-164.3963455338
 30
0.0
 40
1.999999999999991
100
AcDbArc
 50
120.0
 51
212.9479405647
  0
ARC
  5
310
330
1F
100
AcDbEntity
  8
0
  6
Continuous
 62
     7
370
    25
100
AcDbCircle
 10
299.1073750016
 20
-130.7401393687
 30
0.0
 40
2.000000000000016
100
AcDbArc
 50
300.0
 51
30.0
  0
ARC
  5
311
330
1F
100
AcDbEntity
  8
0
  6
Continuous
 62
     7
370
    25
100
AcDbCircle
 10
298.6073750016
 20
-129.874113965
 30
0.0
 40
2.000000000000016
100
AcDbArc
 50
30.0
 51
120.0
  0
ARC
  5
312
330
1F
100
AcDbEntity
  8
0
  6
Continuous
 62
     7
370
    25
100
AcDbCircle
 10
276.8645174289
 20
-137.808556484
 30
0.0
 40
2.000000000000016
100
AcDbArc
 50
204.8363929092
 51
300.0
  0
ARC
  5
313
330
1F
100
AcDbEntity
  8
0
  6
Continuous
 62
     7
370
    25
100
AcDbCircle
 10
275.3682055593
 20
-99.3993934264
 30
0.0
 40
2.000000000000038
100
AcDbArc
 50
64.461905271
 51
159.6255123619
  0
ARC
  5
314
330
1F
100
AcDbEntity
  8
0
  6
Continuous
 62
     7
370
    25
100
AcDbCircle
 10
297.6624364705
 20
-105.6182760905
 30
0.0
 40
2.000000000000001
100
AcDbArc
 50
244.461905271
 51
334.461905271
  0
ARC
  5
315
330
1F
100
AcDbEntity
  8
0
  6
Continuous
 62
     7
370
    25
100
AcDbCircle
 10
298.0935475816
 20
-104.7159772432
 30
0.0
 40
2.000000000000014
100
AcDbArc
 50
334.461905271
 51
64.461905271
  0
ARC
  5
316
330
1F
100
AcDbEntity
  8
0
  6
Continuous
 62
     7
370
    25
100
AcDbCircle
 10
245.3333897589
 20
-75.0744783753
 30
0.0
 40
2.000000000000001
100
AcDbArc
 50
151.5139647063
 51
244.461905271
  0
ARC
  5
317
330
1F
100
AcDbEntity
  8
0
  6
Continuous
 62
     7
370
    25
100
AcDbCircle
 10
322.2400609037
 20
-116.8071266669
 30
0.0
 40
89.50000000000006
100
AcDbArc
 50
146.4167304535
 51
151.5139647063
  0
ARC
  5
318
330
1F
100
AcDbEntity
  8
0
  6
Continuous
 62
     7
370
    25
100
AcDbCircle
 10
274.5067275704
 20
-41.0986140088
 30
0.0
 40
37.50000000000001
100
AcDbArc
 50
224.3238415445
 51
20.1380637265
  0
ARC
  5
319
330
1F
100
AcDbEntity
  8
0
  6
Continuous
 62
     7
370
    25
100
AcDbCircle
 10
322.2400609037
 20
-116.8071266669
 30
0.0
 40
89.50000000000004
100
AcDbArc
 50
92.9479405647
 51
98.0451748175
  0
ARC
  5
31A
330
1F
100
AcDbEntity
  8
0
  6
Continuous
 62
     7
370
    25
100
AcDbCircle
 10
317.7400609037
 20
-29.422917567
 30
0.0
 40
2.000000000000004
100
AcDbArc
 50
0.0
 51
92.9479405647
  0
ARC
  5
31B
330
1F
100
AcDbEntity
  8
0
  6
Continuous
 62
     7
370
    25
100
AcDbCircle
 10
322.7400609037
 20
-89.8071266669
 30
0.0
 40
2.0
100
AcDbArc
 50
270.0
 51
0.0
  0
ARC
  5
31C
330
1F
100
AcDbEntity
  8
0
  6
Continuous
 62
     7
370
    25
100
AcDbCircle
 10
326.7400609037
 20
-67.0100383986
 30
0.0
 40
2.000000000000002
100
AcDbArc
 50
84.8363929092
 51
180.0
  0
ARC
  5
31D
330
1F
100
AcDbEntity
  8
0
  6
Continuous
 62
     7
370
    25
100
AcDbCircle
 10
360.7515277845
 20
-84.9187758363
 30
0.0
 40
2.000000000000041
100
AcDbArc
 50
304.461905271
 51
39.6255123619
  0
ARC
  5
31E
330
1F
100
AcDbEntity
  8
0
  6
Continuous
 62
     7
370
    25
100
AcDbCircle
 10
344.2187019586
 20
-101.1167048312
 30
0.0
 40
2.00000000000002
100
AcDbArc
 50
124.461905271
 51
214.461905271
  0
ARC
  5
31F
330
1F
100
AcDbEntity
  8
0
  6
Continuous
 62
     7
370
    25
100
AcDbCircle
 10
344.7845601266
 20
-101.9412074289
 30
0.0
 40
2.000000000000012
100
AcDbArc
 50
214.461905271
 51
304.461905271
  0
ARC
  5
320
330
1F
100
AcDbEntity
  8
0
  6
Continuous
 62
     7
370
    25
100
AcDbCircle
 10
396.8349300638
 20
-71.0703198807
 30
0.0
 40
2.0
100
AcDbArc
 50
31.5139647063
 51
124.461905271
  0
ARC
  5
321
330
1F
100
AcDbEntity
  8
0
  6
Continuous
 62
     7
370
    25
100
AcDbCircle
 10
322.2400609037
 20
-116.8071266669
 30
0.0
 40
89.50000000000006
100
AcDbArc
 50
26.4167304535
 51
31.5139647063
  0
ARC
  5
322
330
1F
100
AcDbEntity
  8
0
  6
Continuous
 62
     7
370
    25
100
AcDbCircle
 10
411.672222815
 20
-113.3231037219
 30
0.0
 40
37.5
100
AcDbArc
 50
104.3238415445
 51
260.1380637265
  0
ARC
  5
323
330
1F
100
AcDbEntity
  8
0
  6
Continuous
 62
     7
370
    25
100
AcDbCircle
 10
322.2400609037
 20
-116.8071266669
 30
0.0
 40
89.5
100
AcDbArc
 50
332.9479405647
 51
338.0451748175
  0
ARC
  5
324
330
1F
100
AcDbEntity
  8
0
  6
Continuous
 62
     7
370
    25
100
AcDbCircle
 10
400.1670058738
 20
-156.6021168997
 30
0.0
 40
2.000000000000016
100
AcDbArc
 50
240.0
 51
332.9479405647
  0
ARC
  5
325
330
1F
100
AcDbEntity
  8
0
  6
Continuous
 62
     7
370
    25
100
AcDbCircle
 10
321.7400609037
 20
-89.8071266669
 30
0.0
 40
2.0
100
AcDbArc
 50
180.0
 51
270.0
  0
ARC
  5
326
330
1F
100
AcDbEntity
  8
0
  6
Continuous
 62
     7
370
    25
100
AcDbCircle
 10
322.2400609037
 20
-116.8071266669
 30
0.0
 40
52.0
100
AcDbArc
 50
279.6255123619
 51
324.8363929092
  0
LINE
  5
327
330
1F
100
AcDbEntity
  8
0
  6
Continuous
 62
     7
370
    25
100
AcDbLine
 10
364.1156043786
 20
-143.8707343105
 30
0.0
 11
344.3727468059
 21
-132.4721901763
 31
0.0
  0
LINE
  5
328
330
1F
100
AcDbEntity
  8
0
  6
Continuous
 62
     7
370
    25
100
AcDbLine
 10
344.1406959984
 20
-128.874113965
 30
0.0
 11
343.6406959984
 21
-129.7401393687
 31
0.0
  0
LINE
  5
329
330
1F
100
AcDbEntity
  8
0
  6
Continuous
 62
     7
370
    25
100
AcDbLine
 10
399.1670058738
 20
-158.3341677073
 30
0.0
 11
346.8727468059
 21
-128.1420631574
 31
0.0
  0
LINE
  5
32A
330
1F
100
AcDbEntity
  8
0
  6
Continuous
 62
     7
370
    25
100
AcDbLine
 10
345.9162764627
 20
-103.5902126244
 30
0.0
 11
395.7032137278
 21
-69.4213146852
 31
0.0
  0
LINE
  5
32B
330
1F
100
AcDbEntity
  8
0
  6
Continuous
 62
     7
370
    25
100
AcDbLine
 10
342.5696967631
 20
-102.2484211672
 30
0.0
 11
343.1355549312
 21
-103.072923765
 31
0.0
  0
LINE
  5
32C
330
1F
100
AcDbEntity
  8
0
  6
Continuous
 62
     7
370
    25
100
AcDbLine
 10
343.0869856226
 20
-99.4676996357
 30
0.0
 11
361.8832441206
 21
-86.5677810318
 31
0.0
  0
ARC
  5
32D
330
1F
100
AcDbEntity
  8
0
  6
Continuous
 62
     7
370
    25
100
AcDbCircle
 10
322.2400609037
 20
-116.8071266669
 30
0.0
 40
52.00000000000003
100
AcDbArc
 50
39.6255123619
 51
84.8363929092
  0
LINE
  5
32E
330
1F
100
AcDbEntity
  8
0
  6
Continuous
 62
     7
370
    25
100
AcDbLine
 10
324.7400609037
 20
-67.0100383986
 30
0.0
 11
324.7400609037
 21
-89.8071266669
 31
0.0
  0
LINE
  5
32F
330
1F
100
AcDbEntity
  8
0
  6
Continuous
 62
     7
370
    25
100
AcDbLine
 10
321.7400609037
 20
-91.8071266669
 30
0.0
 11
322.7400609037
 21
-91.8071266669
 31
0.0
  0
LINE
  5
330
330
1F
100
AcDbEntity
  8
0
  6
Continuous
 62
     7
370
    25
100
AcDbLine
 10
319.7400609037
 20
-29.422917567
 30
0.0
 11
319.7400609037
 21
-89.8071266669
 31
0.0
  0
LINE
  5
331
330
1F
100
AcDbEntity
  8
0
  6
Continuous
 62
     7
370
    25
100
AcDbLine
 10
298.9557698039
 20
-102.9113795486
 30
0.0
 11
244.4711675367
 21
-76.87907607
 31
0.0
  0
LINE
  5
332
330
1F
100
AcDbEntity
  8
0
  6
Continuous
 62
     7
370
    25
100
AcDbLine
 10
299.4670341652
 20
-106.4804983127
 30
0.0
 11
299.8981452763
 21
-105.5781994654
 31
0.0
  0
LINE
  5
333
330
1F
100
AcDbEntity
  8
0
  6
Continuous
 62
     7
370
    25
100
AcDbLine
 10
296.8002142483
 20
-107.4228737852
 30
0.0
 11
276.2304277816
 21
-97.5947957317
 31
0.0
  0
ARC
  5
334
330
1F
100
AcDbEntity
  8
0
  6
Continuous
 62
     7
370
    25
100
AcDbCircle
 10
322.2400609037
 20
-116.8071266669
 30
0.0
 40
52.00000000000003
100
AcDbArc
 50
159.6255123619
 51
204.8363929092
  0
LINE
  5
335
330
1F
100
AcDbEntity
  8
0
  6
Continuous
 62
     7
370
    25
100
AcDbLine
 10
277.8645174289
 20
-139.5406072915
 30
0.0
 11
297.6073750016
 21
-128.1420631574
 31
0.0
  0
LINE
  5
336
330
1F
100
AcDbEntity
  8
0
  6
Continuous
 62
     7
370
    25
100
AcDbLine
 10
300.8394258091
 20
-129.7401393687
 30
0.0
 11
300.3394258091
 21
-128.874113965
 31
0.0
  0
LINE
  5
337
330
1F
100
AcDbEntity
  8
0
  6
Continuous
 62
     7
370
    25
100
AcDbLine
 10
247.8131159337
 20
-162.6642947262
 30
0.0
 11
300.1073750016
 21
-132.4721901763
 31
0.0
  0
LINE
  5
338
330
1F
100
AcDbEntity
  8
0
  6
Continuous
 62
     7
370
    25
100
AcDbLine
 10
321.8481364447
 20
-143.9197878276
 30
0.0
 11
326.5458014468
 21
-204.1209892453
 31
0.0
  0
LINE
  5
339
330
1F
100
AcDbEntity
  8
0
  6
Continuous
 62
     7
370
    25
100
AcDbLine
 10
324.6834517829
 20
-141.6924605206
 30
0.0
 11
323.6864825038
 21
-141.7702567702
 31
0.0
  0
LINE
  5
33A
330
1F
100
AcDbEntity
  8
0
  6
Continuous
 62
     7
370
    25
100
AcDbLine
 10
326.8329828404
 20
-143.5308065797
 30
0.0
 11
328.6065108091
 21
-166.258803237
 31
0.0
  0
ARC
  5
33B
330
1F
100
AcDbEntity
  8
0
  6
Continuous
 62
     7
370
    25
100
AcDbCircle
 10
576.0575325253
 20
257.6780634476
 30
0.0
 40
2.000000000000016
100
AcDbArc
 50
60.0
 51
150.0
  0
ARC
  5
33C
330
1F
100
AcDbEntity
  8
0
  6
Continuous
 62
     7
370
    25
100
AcDbCircle
 10
575.5575325253
 20
256.8120380438
 30
0.0
 40
2.000000000000016
100
AcDbArc
 50
150.0
 51
240.0
  0
ARC
  5
33D
330
1F
100
AcDbEntity
  8
0
  6
Continuous
 62
     7
370
    25
100
AcDbCircle
 10
588.9506444873
 20
244.4607190937
 30
0.0
 40
1.999999999999999
100
AcDbArc
 50
324.2608295227
 51
60.0
  0
ARC
  5
33E
330
1F
100
AcDbEntity
  8
0
  6
Continuous
 62
     7
370
    25
100
AcDbCircle
 10
560.3944914738
 20
226.4563980121
 30
0.0
 40
2.000000000000041
100
AcDbArc
 50
184.461905271
 51
280.2010757483
  0
ARC
  5
33F
330
1F
100
AcDbEntity
  8
0
  6
Continuous
 62
     7
370
    25
100
AcDbCircle
 10
555.0238300015
 20
243.8657783337
 30
0.0
 40
2.000000000000021
100
AcDbArc
 50
4.461905271
 51
94.461905271
  0
ARC
  5
340
330
1F
100
AcDbEntity
  8
0
  6
Continuous
 62
     7
370
    25
100
AcDbCircle
 10
554.0268607223
 20
243.7879820841
 30
0.0
 40
2.000000000000019
100
AcDbArc
 50
94.461905271
 51
184.461905271
  0
ARC
  5
341
330
1F
100
AcDbEntity
  8
0
  6
Continuous
 62
     7
370
    25
100
AcDbCircle
 10
554.347120624
 20
188.2674485578
 30
0.0
 40
2.000000000000039
100
AcDbArc
 50
271.3351291574
 51
4.461905271
  0
ARC
  5
342
330
1F
100
AcDbEntity
  8
0
  6
Continuous
 62
     7
370
    25
100
AcDbCircle
 10
552.4248466231
 20
270.7450507457
 30
0.0
 40
84.50000000000007
100
AcDbArc
 50
267.8714950746
 51
271.3351291574
  0
ARC
  5
343
330
1F
100
AcDbEntity
  8
0
  6
Continuous
 62
     7
370
    25
100
AcDbCircle
 10
513.0555615412
 20
195.9766791429
 30
0.0
 40
37.50000000000008
100
AcDbArc
 50
345.0512238551
 51
139.4106814159
  0
ARC
  5
344
330
1F
100
AcDbEntity
  8
0
  6
Continuous
 62
     7
370
    25
100
AcDbCircle
 10
552.4248466231
 20
270.7450507457
 30
0.0
 40
84.50000000000004
100
AcDbArc
 50
213.1267761136
 51
216.5904101964
  0
ARC
  5
345
330
1F
100
AcDbEntity
  8
0
  6
Continuous
 62
     7
370
    25
100
AcDbCircle
 10
483.3341149196
 20
225.6593457754
 30
0.0
 40
2.000000000000016
100
AcDbArc
 50
120.0
 51
213.1267761136
  0
ARC
  5
346
330
1F
100
AcDbEntity
  8
0
  6
Continuous
 62
     7
370
    25
100
AcDbCircle
 10
529.2921607209
 20
256.8120380438
 30
0.0
 40
2.000000000000037
100
AcDbArc
 50
300.0
 51
30.0
  0
ARC
  5
347
330
1F
100
AcDbEntity
  8
0
  6
Continuous
 62
     7
370
    25
100
AcDbCircle
 10
528.7921607209
 20
257.6780634476
 30
0.0
 40
2.000000000000073
100
AcDbArc
 50
30.0
 51
120.0
  0
ARC
  5
348
330
1F
100
AcDbEntity
  8
0
  6
Continuous
 62
     7
370
    25
100
AcDbCircle
 10
511.399048759
 20
252.2549477278
 30
0.0
 40
2.000000000000016
100
AcDbArc
 50
204.2608295227
 51
300.0
  0
ARC
  5
349
330
1F
100
AcDbEntity
  8
0
  6
Continuous
 62
     7
370
    25
100
AcDbCircle
 10
510.0849258311
 20
285.9874622126
 30
0.0
 40
2.000000000000013
100
AcDbArc
 50
64.461905271
 51
160.2010757483
  0
ARC
  5
34A
330
1F
100
AcDbEntity
  8
0
  6
Continuous
 62
     7
370
    25
100
AcDbCircle
 10
527.8472221899
 20
281.933901322
 30
0.0
 40
2.000000000000012
100
AcDbArc
 50
244.461905271
 51
334.461905271
  0
ARC
  5
34B
330
1F
100
AcDbEntity
  8
0
  6
Continuous
 62
     7
370
    25
100
AcDbCircle
 10
528.278333301
 20
282.8362001693
 30
0.0
 40
1.999999999999964
100
AcDbArc
 50
334.461905271
 51
64.461905271
  0
ARC
  5
34C
330
1F
100
AcDbEntity
  8
0
  6
Continuous
 62
     7
370
    25
100
AcDbCircle
 10
480.0360108848
 20
310.3191137218
 30
0.0
 40
2.000000000000064
100
AcDbArc
 50
151.3351291574
 51
244.461905271
  0
ARC
  5
34D
330
1F
100
AcDbEntity
  8
0
  6
Continuous
 62
     7
370
    25
100
AcDbCircle
 10
552.4248466231
 20
270.7450507457
 30
0.0
 40
84.50000000000003
100
AcDbArc
 50
147.8714950746
 51
151.3351291574
  0
ARC
  5
34E
330
1F
100
AcDbEntity
  8
0
  6
Continuous
 62
     7
370
    25
100
AcDbCircle
 10
507.3581799565
 20
342.2240375569
 30
0.0
 40
37.50000000000005
100
AcDbArc
 50
225.0512238551
 51
19.4106814159
  0
ARC
  5
34F
330
1F
100
AcDbEntity
  8
0
  6
Continuous
 62
     7
370
    25
100
AcDbCircle
 10
552.4248466231
 20
270.7450507457
 30
0.0
 40
84.50000000000003
100
AcDbArc
 50
93.1267761136
 51
96.5904101964
  0
ARC
  5
350
330
1F
100
AcDbEntity
  8
0
  6
Continuous
 62
     7
370
    25
100
AcDbCircle
 10
547.9248466231
 20
353.1222320521
 30
0.0
 40
2.000000000000012
100
AcDbArc
 50
0.0
 51
93.1267761136
  0
ARC
  5
351
330
1F
100
AcDbEntity
  8
0
  6
Continuous
 62
     7
370
    25
100
AcDbCircle
 10
552.9248466231
 20
297.7450507457
 30
0.0
 40
2.0
100
AcDbArc
 50
270.0
 51
0.0
  0
ARC
  5
352
330
1F
100
AcDbEntity
  8
0
  6
Continuous
 62
     7
370
    25
100
AcDbCircle
 10
556.9248466231
 20
315.5194854155
 30
0.0
 40
2.000000000000013
100
AcDbArc
 50
84.2608295227
 51
180.0
  0
ARC
  5
353
330
1F
100
AcDbEntity
  8
0
  6
Continuous
 62
     7
370
    25
100
AcDbCircle
 10
586.7951225644
 20
299.7912920123
 30
0.0
 40
2.000000000000004
100
AcDbArc
 50
304.461905271
 51
40.2010757483
  0
ARC
  5
354
330
1F
100
AcDbEntity
  8
0
  6
Continuous
 62
     7
370
    25
100
AcDbCircle
 10
574.403487678
 20
286.4354725813
 30
0.0
 40
2.000000000000004
100
AcDbArc
 50
124.461905271
 51
214.461905271
  0
ARC
  5
355
330
1F
100
AcDbEntity
  8
0
  6
Continuous
 62
     7
370
    25
100
AcDbCircle
 10
574.969345846
 20
285.6109699836
 30
0.0
 40
2.000000000000068
100
AcDbArc
 50
214.461905271
 51
304.461905271
  0
ARC
  5
356
330
1F
100
AcDbEntity
  8
0
  6
Continuous
 62
     7
370
    25
100
AcDbCircle
 10
622.8914083607
 20
313.6485899574
 30
0.0
 40
2.000000000000004
100
AcDbArc
 50
31.3351291574
 51
124.461905271
  0
ARC
  5
357
330
1F
100
AcDbEntity
  8
0
  6
Continuous
 62
     7
370
    25
100
AcDbCircle
 10
552.4248466231
 20
270.7450507457
 30
0.0
 40
84.49999999999997
100
AcDbArc
 50
27.8714950746
 51
31.3351291574
  0
ARC
  5
358
330
1F
100
AcDbEntity
  8
0
  6
Continuous
 62
     7
370
    25
100
AcDbCircle
 10
636.8607983717
 20
274.0344355373
 30
0.0
 40
37.50000000000001
100
AcDbArc
 50
105.0512238551
 51
259.4106814159
  0
ARC
  5
359
330
1F
100
AcDbEntity
  8
0
  6
Continuous
 62
     7
370
    25
100
AcDbCircle
 10
552.4248466231
 20
270.7450507457
 30
0.0
 40
84.50000000000011
100
AcDbArc
 50
333.1267761136
 51
336.5904101964
  0
ARC
  5
35A
330
1F
100
AcDbEntity
  8
0
  6
Continuous
 62
     7
370
    25
100
AcDbCircle
 10
626.0155783267
 20
233.4535744095
 30
0.0
 40
2.000000000000148
100
AcDbArc
 50
240.0
 51
333.1267761136
  0
ARC
  5
35B
330
1F
100
AcDbEntity
  8
0
  6
Continuous
 62
     7
370
    25
100
AcDbCircle
 10
551.9248466231
 20
297.7450507457
 30
0.0
 40
2.0
100
AcDbArc
 50
180.0
 51
270.0
  0
ARC
  5
35C
330
1F
100
AcDbEntity
  8
0
  6
Continuous
 62
     7
370
    25
100
AcDbCircle
 10
552.4248466231
 20
270.7450507457
 30
0.0
 40
47.00000000000005
100
AcDbArc
 50
280.2010757483
 51
324.2608295227
  0
LINE
  5
35D
330
1F
100
AcDbEntity
  8
0
  6
Continuous
 62
     7
370
    25
100
AcDbLine
 10
589.9506444873
 20
246.1927699013
 30
0.0
 11
574.5575325253
 21
255.0799872362
 31
0.0
  0
LINE
  5
35E
330
1F
100
AcDbEntity
  8
0
  6
Continuous
 62
     7
370
    25
100
AcDbLine
 10
574.3254817177
 20
258.6780634476
 30
0.0
 11
573.8254817177
 21
257.8120380438
 31
0.0
  0
LINE
  5
35F
330
1F
100
AcDbEntity
  8
0
  6
Continuous
 62
     7
370
    25
100
AcDbLine
 10
625.0155783267
 20
231.7215236019
 30
0.0
 11
577.0575325253
 21
259.4101142551
 31
0.0
  0
LINE
  5
360
330
1F
100
AcDbEntity
  8
0
  6
Continuous
 62
     7
370
    25
100
AcDbLine
 10
576.1010621821
 20
283.9619647881
 30
0.0
 11
621.7596920246
 21
315.2975951529
 31
0.0
  0
LINE
  5
361
330
1F
100
AcDbEntity
  8
0
  6
Continuous
 62
     7
370
    25
100
AcDbLine
 10
572.7544824825
 20
285.3037562453
 30
0.0
 11
573.3203406506
 21
284.4792536475
 31
0.0
  0
LINE
  5
362
330
1F
100
AcDbEntity
  8
0
  6
Continuous
 62
     7
370
    25
100
AcDbLine
 10
573.2717713419
 20
288.0844777768
 30
0.0
 11
587.9268389005
 21
298.1422868168
 31
0.0
  0
ARC
  5
363
330
1F
100
AcDbEntity
  8
0
  6
Continuous
 62
     7
370
    25
100
AcDbCircle
 10
552.4248466231
 20
270.7450507457
 30
0.0
 40
46.99999999999999
100
AcDbArc
 50
40.2010757483
 51
84.2608295227
  0
LINE
  5
364
330
1F
100
AcDbEntity
  8
0
  6
Continuous
 62
     7
370
    25
100
AcDbLine
 10
554.9248466231
 20
315.5194854155
 30
0.0
 11
554.9248466231
 21
297.7450507457
 31
0.0
  0
LINE
  5
365
330
1F
100
AcDbEntity
  8
0
  6
Continuous
 62
     7
370
    25
100
AcDbLine
 10
551.9248466231
 20
295.7450507457
 30
0.0
 11
552.9248466231
 21
295.7450507457
 31
0.0
  0
LINE
  5
366
330
1F
100
AcDbEntity
  8
0
  6
Continuous
 62
     7
370
    25
100
AcDbLine
 10
549.9248466231
 20
353.1222320521
 30
0.0
 11
549.9248466231
 21
297.7450507457
 31
0.0
  0
LINE
  5
367
330
1F
100
AcDbEntity
  8
0
  6
Continuous
 62
     7
370
    25
100
AcDbLine
 10
529.1405555232
 20
284.640797864
 30
0.0
 11
479.1737886625
 21
308.5145160272
 31
0.0
  0
LINE
  5
368
330
1F
100
AcDbEntity
  8
0
  6
Continuous
 62
     7
370
    25
100
AcDbLine
 10
529.6518198846
 20
281.0716790998
 30
0.0
 11
530.0829309957
 21
281.9739779471
 31
0.0
  0
LINE
  5
369
330
1F
100
AcDbEntity
  8
0
  6
Continuous
 62
     7
370
    25
100
AcDbLine
 10
526.9849999677
 20
280.1293036274
 30
0.0
 11
510.9471480534
 21
287.7920599072
 31
0.0
  0
ARC
  5
36A
330
1F
100
AcDbEntity
  8
0
  6
Continuous
 62
     7
370
    25
100
AcDbCircle
 10
552.4248466231
 20
270.7450507457
 30
0.0
 40
47.00000000000002
100
AcDbArc
 50
160.2010757483
 51
204.2608295227
  0
LINE
  5
36B
330
1F
100
AcDbEntity
  8
0
  6
Continuous
 62
     7
370
    25
100
AcDbLine
 10
512.399048759
 20
250.5228969202
 30
0.0
 11
527.7921607209
 21
259.4101142551
 31
0.0
  0
LINE
  5
36C
330
1F
100
AcDbEntity
  8
0
  6
Continuous
 62
     7
370
    25
100
AcDbLine
 10
531.0242115285
 20
257.8120380438
 30
0.0
 11
530.5242115285
 21
258.6780634476
 31
0.0
  0
LINE
  5
36D
330
1F
100
AcDbEntity
  8
0
  6
Continuous
 62
     7
370
    25
100
AcDbLine
 10
482.3341149196
 20
227.391396583
 30
0.0
 11
530.2921607209
 21
255.0799872362
 31
0.0
  0
LINE
  5
36E
330
1F
100
AcDbEntity
  8
0
  6
Continuous
 62
     7
370
    25
100
AcDbLine
 10
552.0329221641
 20
243.6323895849
 30
0.0
 11
556.3410591823
 21
188.4230410569
 31
0.0
  0
LINE
  5
36F
330
1F
100
AcDbEntity
  8
0
  6
Continuous
 62
     7
370
    25
100
AcDbLine
 10
554.8682375023
 20
245.8597168919
 30
0.0
 11
553.8712682232
 21
245.7819206424
 31
0.0
  0
LINE
  5
370
330
1F
100
AcDbEntity
  8
0
  6
Continuous
 62
     7
370
    25
100
AcDbLine
 10
557.0177685598
 20
244.0213708328
 30
0.0
 11
558.4005529156
 21
226.3008055129
 31
0.0
  0
ARC
  5
371
330
1F
100
AcDbEntity
  8
0
  6
Continuous
 62
     7
370
    25
100
AcDbCircle
 10
548.8559113486
 20
19.779708274
 30
0.0
 40
2.000000000000068
100
AcDbArc
 50
60.0
 51
150.0
  0
ARC
  5
372
330
1F
100
AcDbEntity
  8
0
  6
Continuous
 62
     7
370
    25
100
AcDbCircle
 10
548.3559113486
 20
18.9136828703
 30
0.0
 40
2.000000000000001
100
AcDbArc
 50
150.0
 51
240.0
  0
ARC
  5
373
330
1F
100
AcDbEntity
  8
0
  6
Continuous
 62
     7
370
    25
100
AcDbCircle
 10
557.8300755622
 20
8.8249694576
 30
0.0
 40
1.999999999999998
100
AcDbArc
 50
323.6206297916
 51
60.0
  0
ARC
  5
374
330
1F
100
AcDbEntity
  8
0
  6
Continuous
 62
     7
370
    25
100
AcDbCircle
 10
532.8408258469
 20
-6.9304607382
 30
0.0
 40
2.00000000000002
100
AcDbArc
 50
184.461905271
 51
280.8412754794
  0
ARC
  5
375
330
1F
100
AcDbEntity
  8
0
  6
Continuous
 62
     7
370
    25
100
AcDbCircle
 10
527.8222088247
 20
5.9674231601
 30
0.0
 40
2.00000000000002
100
AcDbArc
 50
4.461905271
 51
94.461905271
  0
ARC
  5
376
330
1F
100
AcDbEntity
  8
0
  6
Continuous
 62
     7
370
    25
100
AcDbCircle
 10
526.8252395456
 20
5.8896269106
 30
0.0
 40
2.000000000000021
100
AcDbArc
 50
94.461905271
 51
184.461905271
  0
ARC
  5
377
330
1F
100
AcDbEntity
  8
0
  6
Continuous
 62
     7
370
    25
100
AcDbCircle
 10
526.7948641892
 20
-45.1374691772
 30
0.0
 40
1.999999999999994
100
AcDbArc
 50
271.1545430913
 51
4.461905271
  0
ARC
  5
378
330
1F
100
AcDbEntity
  8
0
  6
Continuous
 62
     7
370
    25
100
AcDbCircle
 10
525.2232254464
 20
32.8466955722
 30
0.0
 40
80.00000000000003
100
AcDbArc
 50
269.3405207099
 51
271.1545430913
  0
ARC
  5
379
330
1F
100
AcDbEntity
  8
0
  6
Continuous
 62
     7
370
    25
100
AcDbCircle
 10
487.9505295108
 20
-37.9399284305
 30
0.0
 40
37.49999999999999
100
AcDbArc
 50
345.7857366727
 51
138.6761685983
  0
ARC
  5
37A
330
1F
100
AcDbEntity
  8
0
  6
Continuous
 62
     7
370
    25
100
AcDbCircle
 10
525.2232254464
 20
32.8466955722
 30
0.0
 40
79.99999999999994
100
AcDbArc
 50
213.3073621797
 51
215.1213845611
  0
ARC
  5
37B
330
1F
100
AcDbEntity
  8
0
  6
Continuous
 62
     7
370
    25
100
AcDbCircle
 10
460.0357544084
 20
-9.9854608021
 30
0.0
 40
1.999999999999995
100
AcDbArc
 50
120.0
 51
213.3073621797
  0
ARC
  5
37C
330
1F
100
AcDbEntity
  8
0
  6
Continuous
 62
     7
370
    25
100
AcDbCircle
 10
502.0905395442
 20
18.9136828703
 30
0.0
 40
2.000000000000016
100
AcDbArc
 50
300.0
 51
30.0
  0
ARC
  5
37D
330
1F
100
AcDbEntity
  8
0
  6
Continuous
 62
     7
370
    25
100
AcDbCircle
 10
501.5905395442
 20
19.779708274
 30
0.0
 40
2.000000000000018
100
AcDbArc
 50
30.0
 51
120.0
  0
ARC
  5
37E
330
1F
100
AcDbEntity
  8
0
  6
Continuous
 62
     7
370
    25
100
AcDbCircle
 10
488.1163753305
 20
16.6191980917
 30
0.0
 40
2.000000000000041
100
AcDbArc
 50
203.6206297916
 51
300.0
  0
ARC
  5
37F
330
1F
100
AcDbEntity
  8
0
  6
Continuous
 62
     7
370
    25
100
AcDbCircle
 10
486.966397391
 20
46.1382382646
 30
0.0
 40
2.000000000000014
100
AcDbArc
 50
64.461905271
 51
160.8412754794
  0
ARC
  5
380
330
1F
100
AcDbEntity
  8
0
  6
Continuous
 62
     7
370
    25
100
AcDbCircle
 10
500.6456010132
 20
44.0355461485
 30
0.0
 40
2.000000000000091
100
AcDbArc
 50
244.461905271
 51
334.461905271
  0
ARC
  5
381
330
1F
100
AcDbEntity
  8
0
  6
Continuous
 62
     7
370
    25
100
AcDbCircle
 10
501.0767121243
 20
44.9378449958
 30
0.0
 40
2.000000000000001
100
AcDbArc
 50
334.461905271
 51
64.461905271
  0
ARC
  5
382
330
1F
100
AcDbEntity
  8
0
  6
Continuous
 62
     7
370
    25
100
AcDbCircle
 10
456.9011383091
 20
70.47769887
 30
0.0
 40
2.000000000000001
100
AcDbArc
 50
151.1545430913
 51
244.461905271
  0
ARC
  5
383
330
1F
100
AcDbEntity
  8
0
  6
Continuous
 62
     7
370
    25
100
AcDbCircle
 10
525.2232254464
 20
32.8466955722
 30
0.0
 40
79.99999999999997
100
AcDbArc
 50
149.3405207099
 51
151.1545430913
  0
ARC
  5
384
330
1F
100
AcDbEntity
  8
0
  6
Continuous
 62
     7
370
    25
100
AcDbCircle
 10
482.5565587797
 20
100.5191091212
 30
0.0
 40
37.50000000000004
100
AcDbArc
 50
225.7857366727
 51
18.6761685983
  0
ARC
  5
385
330
1F
100
AcDbEntity
  8
0
  6
Continuous
 62
     7
370
    25
100
AcDbCircle
 10
525.2232254464
 20
32.8466955722
 30
0.0
 40
80.00000000000006
100
AcDbArc
 50
93.3073621797
 51
95.1213845611
  0
ARC
  5
386
330
1F
100
AcDbEntity
  8
0
  6
Continuous
 62
     7
370
    25
100
AcDbCircle
 10
520.7232254464
 20
110.7167796867
 30
0.0
 40
2.000000000000012
100
AcDbArc
 50
0.0
 51
93.3073621797
  0
ARC
  5
387
330
1F
100
AcDbEntity
  8
0
  6
Continuous
 62
     7
370
    25
100
AcDbCircle
 10
525.7232254464
 20
59.8466955722
 30
0.0
 40
2.000000000000007
100
AcDbArc
 50
270.0
 51
0.0
  0
ARC
  5
388
330
1F
100
AcDbEntity
  8
0
  6
Continuous
 62
     7
370
    25
100
AcDbCircle
 10
529.7232254464
 20
73.0959191672
 30
0.0
 40
2.0
100
AcDbArc
 50
83.6206297916
 51
180.0
  0
ARC
  5
389
330
1F
100
AcDbEntity
  8
0
  6
Continuous
 62
     7
370
    25
100
AcDbCircle
 10
555.8624531012
 20
59.3323091901
 30
0.0
 40
1.999999999999999
100
AcDbArc
 50
304.461905271
 51
40.8412754794
  0
ARC
  5
38A
330
1F
100
AcDbEntity
  8
0
  6
Continuous
 62
     7
370
    25
100
AcDbCircle
 10
547.2018665012
 20
48.5371174078
 30
0.0
 40
1.999999999999974
100
AcDbArc
 50
124.461905271
 51
214.461905271
  0
ARC
  5
38B
330
1F
100
AcDbEntity
  8
0
  6
Continuous
 62
     7
370
    25
100
AcDbCircle
 10
547.7677246693
 20
47.7126148101
 30
0.0
 40
2.000000000000044
100
AcDbArc
 50
214.461905271
 51
304.461905271
  0
ARC
  5
38C
330
1F
100
AcDbEntity
  8
0
  6
Continuous
 62
     7
370
    25
100
AcDbCircle
 10
591.9736738409
 20
73.1998570237
 30
0.0
 40
2.000000000000033
100
AcDbArc
 50
31.1545430913
 51
124.461905271
  0
ARC
  5
38D
330
1F
100
AcDbEntity
  8
0
  6
Continuous
 62
     7
370
    25
100
AcDbCircle
 10
525.2232254464
 20
32.8466955722
 30
0.0
 40
80.00000000000013
100
AcDbArc
 50
29.3405207099
 51
31.1545430913
  0
ARC
  5
38E
330
1F
100
AcDbEntity
  8
0
  6
Continuous
 62
     7
370
    25
100
AcDbCircle
 10
605.1625880486
 20
35.9609060258
 30
0.0
 40
37.50000000000003
100
AcDbArc
 50
105.7857366727
 51
258.6761685983
  0
ARC
  5
38F
330
1F
100
AcDbEntity
  8
0
  6
Continuous
 62
     7
370
    25
100
AcDbCircle
 10
525.2232254464
 20
32.8466955722
 30
0.0
 40
80.00000000000011
100
AcDbArc
 50
333.3073621797
 51
335.1213845611
  0
ARC
  5
390
330
1F
100
AcDbEntity
  8
0
  6
Continuous
 62
     7
370
    25
100
AcDbCircle
 10
594.9106964844
 20
-2.1912321681
 30
0.0
 40
2.000000000000012
100
AcDbArc
 50
240.0
 51
333.3073621797
  0
ARC
  5
391
330
1F
100
AcDbEntity
  8
0
  6
Continuous
 62
     7
370
    25
100
AcDbCircle
 10
524.7232254464
 20
59.8466955722
 30
0.0
 40
2.000000000000007
100
AcDbArc
 50
180.0
 51
270.0
  0
ARC
  5
392
330
1F
100
AcDbEntity
  8
0
  6
Continuous
 62
     7
370
    25
100
AcDbCircle
 10
525.2232254464
 20
32.8466955722
 30
0.0
 40
42.50000000000002
100
AcDbArc
 50
280.8412754794
 51
323.6206297916
  0
LINE
  5
393
330
1F
100
AcDbEntity
  8
0
  6
Continuous
 62
     7
370
    25
100
AcDbLine
 10
558.8300755622
 20
10.5570202652
 30
0.0
 11
547.3559113486
 21
17.1816320627
 31
0.0
  0
LINE
  5
394
330
1F
100
AcDbEntity
  8
0
  6
Continuous
 62
     7
370
    25
100
AcDbLine
 10
547.123860541
 20
20.779708274
 30
0.0
 11
546.623860541
 21
19.9136828703
 31
0.0
  0
LINE
  5
395
330
1F
100
AcDbEntity
  8
0
  6
Continuous
 62
     7
370
    25
100
AcDbLine
 10
593.9106964844
 20
-3.9232829756
 30
0.0
 11
549.8559113486
 21
21.5117590816
 31
0.0
  0
LINE
  5
396
330
1F
100
AcDbEntity
  8
0
  6
Continuous
 62
     7
370
    25
100
AcDbLine
 10
548.8994410053
 20
46.0636096146
 30
0.0
 11
590.8419575048
 21
74.8488622192
 31
0.0
  0
LINE
  5
397
330
1F
100
AcDbEntity
  8
0
  6
Continuous
 62
     7
370
    25
100
AcDbLine
 10
545.5528613058
 20
47.4054010718
 30
0.0
 11
546.1187194738
 21
46.580898474
 31
0.0
  0
LINE
  5
398
330
1F
100
AcDbEntity
  8
0
  6
Continuous
 62
     7
370
    25
100
AcDbLine
 10
546.0701501652
 20
50.1861226033
 30
0.0
 11
556.9941694372
 21
57.6833039946
 31
0.0
  0
ARC
  5
399
330
1F
100
AcDbEntity
  8
0
  6
Continuous
 62
     7
370
    25
100
AcDbCircle
 10
525.2232254464
 20
32.8466955722
 30
0.0
 40
42.50000000000007
100
AcDbArc
 50
40.8412754794
 51
83.6206297916
  0
LINE
  5
39A
330
1F
100
AcDbEntity
  8
0
  6
Continuous
 62
     7
370
    25
100
AcDbLine
 10
527.7232254464
 20
73.0959191672
 30
0.0
 11
527.7232254464
 21
59.8466955722
 31
0.0
  0
LINE
  5
39B
330
1F
100
AcDbEntity
  8
0
  6
Continuous
 62
     7
370
    25
100
AcDbLine
 10
524.7232254464
 20
57.8466955722
 30
0.0
 11
525.7232254464
 21
57.8466955722
 31
0.0
  0
LINE
  5
39C
330
1F
100
AcDbEntity
  8
0
  6
Continuous
 62
     7
370
    25
100
AcDbLine
 10
522.7232254464
 20
110.7167796867
 30
0.0
 11
522.7232254464
 21
59.8466955722
 31
0.0
  0
LINE
  5
39D
330
1F
100
AcDbEntity
  8
0
  6
Continuous
 62
     7
370
    25
100
AcDbLine
 10
501.9389343465
 20
46.7424426905
 30
0.0
 11
456.0389160869
 21
68.6731011754
 31
0.0
  0
LINE
  5
39E
330
1F
100
AcDbEntity
  8
0
  6
Continuous
 62
     7
370
    25
100
AcDbLine
 10
502.4501987078
 20
43.1733239263
 30
0.0
 11
502.8813098189
 21
44.0756227736
 31
0.0
  0
LINE
  5
39F
330
1F
100
AcDbEntity
  8
0
  6
Continuous
 62
     7
370
    25
100
AcDbLine
 10
499.7833787909
 20
42.2309484539
 30
0.0
 11
487.8286196133
 21
47.9428359593
 31
0.0
  0
ARC
  5
3A0
330
1F
100
AcDbEntity
  8
0
  6
Continuous
 62
     7
370
    25
100
AcDbCircle
 10
525.2232254464
 20
32.8466955722
 30
0.0
 40
42.49999999999998
100
AcDbArc
 50
160.8412754794
 51
203.6206297916
  0
LINE
  5
3A1
330
1F
100
AcDbEntity
  8
0
  6
Continuous
 62
     7
370
    25
100
AcDbLine
 10
489.1163753305
 20
14.8871472841
 30
0.0
 11
500.5905395442
 21
21.5117590816
 31
0.0
  0
LINE
  5
3A2
330
1F
100
AcDbEntity
  8
0
  6
Continuous
 62
     7
370
    25
100
AcDbLine
 10
503.8225903518
 20
19.9136828703
 30
0.0
 11
503.3225903518
 21
20.779708274
 31
0.0
  0
LINE
  5
3A3
330
1F
100
AcDbEntity
  8
0
  6
Continuous
 62
     7
370
    25
100
AcDbLine
 10
459.0357544084
 20
-8.2534099946
 30
0.0
 11
503.0905395442
 21
17.1816320627
 31
0.0
  0
LINE
  5
3A4
330
1F
100
AcDbEntity
  8
0
  6
Continuous
 62
     7
370
    25
100
AcDbLine
 10
524.8313009873
 20
5.7340344114
 30
0.0
 11
528.7888027475
 21
-44.9818766781
 31
0.0
  0
LINE
  5
3A5
330
1F
100
AcDbEntity
  8
0
  6
Continuous
 62
     7
370
    25
100
AcDbLine
 10
527.6666163256
 20
7.9613617184
 30
0.0
 11
526.6696470464
 21
7.8835654688
 31
0.0
  0
LINE
  5
3A6
330
1F
100
AcDbEntity
  8
0
  6
Continuous
 62
     7
370
    25
100
AcDbLine
 10
529.816147383
 20
6.1230156593
 30
0.0
 11
530.8468872886
 21
-7.0860532374
 31
0.0
  0
ENDSEC
  0
SECTION
  2
OBJECTS
  0
DICTIONARY
  5
C
330
0
100
AcDbDictionary
281
     1
  3
ACAD_GROUP
350
D
  3
ACAD_LAYOUT
350
1A
  3
ACAD_MLINESTYLE
350
17
  3
ACAD_PLOTSETTINGS
350
19
  3
ACAD_PLOTSTYLENAME
350
E
  3
ACAD_SCALELIST
350
47
  3
DWGPROPS
350
3A7
  0
DICTIONARY
  5
D
102
{ACAD_REACTORS
330
C
102
}
330
C
100
AcDbDictionary
281
     1
  0
DICTIONARY
  5
1A
102
{ACAD_REACTORS
330
C
102
}
330
C
100
AcDbDictionary
281
     1
  3
Layout1
350
1E
  3
Layout2
350
26
  3
Model
350
22
  0
DICTIONARY
  5
17
102
{ACAD_REACTORS
330
C
102
}
330
C
100
AcDbDictionary
281
     1
  3
Standard
350
18
  0
DICTIONARY
  5
19
102
{ACAD_REACTORS
330
C
102
}
330
C
100
AcDbDictionary
281
     1
  0
ACDBDICTIONARYWDFLT
  5
E
102
{ACAD_REACTORS
330
C
102
}
330
C
100
AcDbDictionary
281
     1
  3
Normal
350
F
100
AcDbDictionaryWithDefault
340
F
  0
DICTIONARY
  5
47
102
{ACAD_REACTORS
330
C
102
}
330
C
100
AcDbDictionary
281
     1
  3
A0
350
48
  3
A1
350
49
  3
A2
350
4A
  3
A3
350
4B
  3
A4
350
4C
  3
A5
350
4D
  3
A6
350
4E
  3
A7
350
4F
  3
A8
350
50
  3
A9
350
51
  3
B0
350
52
  3
B1
350
53
  3
B2
350
54
  3
B3
350
55
  3
B4
350
56
  3
B5
350
57
  3
B6
350
58
  3
B7
350
59
  3
B8
350
5A
  3
B9
350
5B
  3
C0
350
5C
  3
C1
350
5D
  3
C2
350
5E
  3
C3
350
5F
  3
C4
350
60
  3
C5
350
61
  3
C6
350
62
  3
C7
350
63
  3
C8
350
64
  3
C9
350
65
  3
D0
350
66
  3
D1
350
67
  3
D2
350
68
  0
XRECORD
  5
3A7
102
{ACAD_REACTORS
330
C
102
}
330
C
100
AcDbXrecord
280
     1
  1
DWGPROPS COOKIE
  2

  3

  4

  6

  7

  8
lygfyby
  9

300
=
301
=
302
=
303
=
304
=
305
=
306
=
307
=
308
=
309
=
 40
0.0
 41
2460595.180389225
 42
2460595.180389711
  1

 90
        0
  0
LAYOUT
  5
1E
102
{ACAD_REACTORS
330
1A
102
}
330
1A
100
AcDbPlotSettings
  1

  2
none_device
  4

  6

 40
0.0
 41
0.0
 42
0.0
 43
0.0
 44
0.0
 45
0.0
 46
0.0
 47
0.0
 48
0.0
 49
0.0
140
0.0
141
0.0
142
1.0
143
1.0
 70
   688
 72
     1
 73
     0
 74
     5
  7

 75
    16
147
1.0
148
0.0
149
0.0
100
AcDbLayout
  1
Layout1
 70
     1
 71
     1
 10
0.0
 20
0.0
 11
420.0
 21
297.0
 12
0.0
 22
0.0
 32
0.0
 14
1.0000000000E+20
 24
1.0000000000E+20
 34
1.0000000000E+20
 15
-1.0000000000E+20
 25
-1.0000000000E+20
 35
-1.0000000000E+20
146
0.0
 13
0.0
 23
0.0
 33
0.0
 16
1.0
 26
0.0
 36
0.0
 17
0.0
 27
1.0
 37
0.0
 76
     0
330
1B
  0
LAYOUT
  5
26
102
{ACAD_REACTORS
330
1A
102
}
330
1A
100
AcDbPlotSettings
  1

  2
none_device
  4

  6

 40
0.0
 41
0.0
 42
0.0
 43
0.0
 44
0.0
 45
0.0
 46
0.0
 47
0.0
 48
0.0
 49
0.0
140
0.0
141
0.0
142
1.0
143
1.0
 70
   688
 72
     1
 73
     0
 74
     5
  7

 75
    16
147
1.0
148
0.0
149
0.0
100
AcDbLayout
  1
Layout2
 70
     1
 71
     2
 10
0.0
 20
0.0
 11
0.0
 21
0.0
 12
0.0
 22
0.0
 32
0.0
 14
0.0
 24
0.0
 34
0.0
 15
0.0
 25
0.0
 35
0.0
146
0.0
 13
0.0
 23
0.0
 33
0.0
 16
1.0
 26
0.0
 36
0.0
 17
0.0
 27
1.0
 37
0.0
 76
     0
330
23
  0
LAYOUT
  5
22
102
{ACAD_REACTORS
330
1A
102
}
330
1A
100
AcDbPlotSettings
  1

  2
none_device
  4
Letter_(8.50_x_11.00_Inches)
  6

 40
6.35
 41
6.35
 42
6.35000508
 43
6.35000508
 44
215.9
 45
279.4
 46
0.0
 47
0.0
 48
0.0
 49
0.0
140
0.0
141
0.0
142
1.0
143
1.0
 70
  1712
 72
     1
 73
     0
 74
     0
  7

 75
     0
147
1.0
148
0.0
149
0.0
100
AcDbLayout
  1
Model
 70
     1
 71
     0
 10
0.0
 20
0.0
 11
420.0
 21
297.0
 12
0.0
 22
0.0
 32
0.0
 14
0.0
 24
0.0
 34
0.0
 15
420.0
 25
297.0
 35
0.0
146
0.0
 13
0.0
 23
0.0
 33
0.0
 16
1.0
 26
0.0
 36
0.0
 17
0.0
 27
1.0
 37
0.0
 76
     0
330
1F
331
29
  0
MLINESTYLE
  5
18
102
{ACAD_REACTORS
330
17
102
}
330
17
100
AcDbMlineStyle
  2
Standard
 70
     0
  3

 62
   256
 51
90.0
 52
90.0
 71
     2
 49
0.5
 62
   256
  6
BYLAYER
 49
-0.5
 62
   256
  6
BYLAYER
  0
ACDBPLACEHOLDER
  5
F
102
{ACAD_REACTORS
330
E
102
}
330
E
  0
SCALE
  5
48
102
{ACAD_REACTORS
330
47
102
}
330
47
100
AcDbScale
 70
     0
300
1:1
140
1.0
141
1.0
290
     1
  0
SCALE
  5
49
102
{ACAD_REACTORS
330
47
102
}
330
47
100
AcDbScale
 70
     0
300
1:2
140
1.0
141
2.0
290
     0
  0
SCALE
  5
4A
102
{ACAD_REACTORS
330
47
102
}
330
47
100
AcDbScale
 70
     0
300
1:4
140
1.0
141
4.0
290
     0
  0
SCALE
  5
4B
102
{ACAD_REACTORS
330
47
102
}
330
47
100
AcDbScale
 70
     0
300
1:5
140
1.0
141
5.0
290
     0
  0
SCALE
  5
4C
102
{ACAD_REACTORS
330
47
102
}
330
47
100
AcDbScale
 70
     0
300
1:8
140
1.0
141
8.0
290
     0
  0
SCALE
  5
4D
102
{ACAD_REACTORS
330
47
102
}
330
47
100
AcDbScale
 70
     0
300
1:10
140
1.0
141
10.0
290
     0
  0
SCALE
  5
4E
102
{ACAD_REACTORS
330
47
102
}
330
47
100
AcDbScale
 70
     0
300
1:16
140
1.0
141
16.0
290
     0
  0
SCALE
  5
4F
102
{ACAD_REACTORS
330
47
102
}
330
47
100
AcDbScale
 70
     0
300
1:20
140
1.0
141
20.0
290
     0
  0
SCALE
  5
50
102
{ACAD_REACTORS
330
47
102
}
330
47
100
AcDbScale
 70
     0
300
1:30
140
1.0
141
30.0
290
     0
  0
SCALE
  5
51
102
{ACAD_REACTORS
330
47
102
}
330
47
100
AcDbScale
 70
     0
300
1:40
140
1.0
141
40.0
290
     0
  0
SCALE
  5
52
102
{ACAD_REACTORS
330
47
102
}
330
47
100
AcDbScale
 70
     0
300
1:50
140
1.0
141
50.0
290
     0
  0
SCALE
  5
53
102
{ACAD_REACTORS
330
47
102
}
330
47
100
AcDbScale
 70
     0
300
1:100
140
1.0
141
100.0
290
     0
  0
SCALE
  5
54
102
{ACAD_REACTORS
330
47
102
}
330
47
100
AcDbScale
 70
     0
300
2:1
140
2.0
141
1.0
290
     0
  0
SCALE
  5
55
102
{ACAD_REACTORS
330
47
102
}
330
47
100
AcDbScale
 70
     0
300
4:1
140
4.0
141
1.0
290
     0
  0
SCALE
  5
56
102
{ACAD_REACTORS
330
47
102
}
330
47
100
AcDbScale
 70
     0
300
8:1
140
8.0
141
1.0
290
     0
  0
SCALE
  5
57
102
{ACAD_REACTORS
330
47
102
}
330
47
100
AcDbScale
 70
     0
300
10:1
140
10.0
141
1.0
290
     0
  0
SCALE
  5
58
102
{ACAD_REACTORS
330
47
102
}
330
47
100
AcDbScale
 70
     0
300
100:1
140
100.0
141
1.0
290
     0
  0
SCALE
  5
59
102
{ACAD_REACTORS
330
47
102
}
330
47
100
AcDbScale
 70
     0
300
1/128" = 1'-0"
140
0.0078125
141
12.0
290
     0
  0
SCALE
  5
5A
102
{ACAD_REACTORS
330
47
102
}
330
47
100
AcDbScale
 70
     0
300
1/64" = 1'-0"
140
0.015625
141
12.0
290
     0
  0
SCALE
  5
5B
102
{ACAD_REACTORS
330
47
102
}
330
47
100
AcDbScale
 70
     0
300
1/32" = 1'-0"
140
0.03125
141
12.0
290
     0
  0
SCALE
  5
5C
102
{ACAD_REACTORS
330
47
102
}
330
47
100
AcDbScale
 70
     0
300
1/16" = 1'-0"
140
0.0625
141
12.0
290
     0
  0
SCALE
  5
5D
102
{ACAD_REACTORS
330
47
102
}
330
47
100
AcDbScale
 70
     0
300
3/32" = 1'-0"
140
0.09375
141
12.0
290
     0
  0
SCALE
  5
5E
102
{ACAD_REACTORS
330
47
102
}
330
47
100
AcDbScale
 70
     0
300
1/8" = 1'-0"
140
0.125
141
12.0
290
     0
  0
SCALE
  5
5F
102
{ACAD_REACTORS
330
47
102
}
330
47
100
AcDbScale
 70
     0
300
3/16" = 1'-0"
140
0.1875
141
12.0
290
     0
  0
SCALE
  5
60
102
{ACAD_REACTORS
330
47
102
}
330
47
100
AcDbScale
 70
     0
300
1/4" = 1'-0"
140
0.25
141
12.0
290
     0
  0
SCALE
  5
61
102
{ACAD_REACTORS
330
47
102
}
330
47
100
AcDbScale
 70
     0
300
3/8" = 1'-0"
140
0.375
141
12.0
290
     0
  0
SCALE
  5
62
102
{ACAD_REACTORS
330
47
102
}
330
47
100
AcDbScale
 70
     0
300
1/2" = 1'-0"
140
0.5
141
12.0
290
     0
  0
SCALE
  5
63
102
{ACAD_REACTORS
330
47
102
}
330
47
100
AcDbScale
 70
     0
300
3/4" = 1'-0"
140
0.75
141
12.0
290
     0
  0
SCALE
  5
64
102
{ACAD_REACTORS
330
47
102
}
330
47
100
AcDbScale
 70
     0
300
1" = 1'-0"
140
1.0
141
12.0
290
     0
  0
SCALE
  5
65
102
{ACAD_REACTORS
330
47
102
}
330
47
100
AcDbScale
 70
     0
300
1-1/2" = 1'-0"
140
1.5
141
12.0
290
     0
  0
SCALE
  5
66
102
{ACAD_REACTORS
330
47
102
}
330
47
100
AcDbScale
 70
     0
300
3" = 1'-0"
140
3.0
141
12.0
290
     0
  0
SCALE
  5
67
102
{ACAD_REACTORS
330
47
102
}
330
47
100
AcDbScale
 70
     0
300
6" = 1'-0"
140
6.0
141
12.0
290
     0
  0
SCALE
  5
68
102
{ACAD_REACTORS
330
47
102
}
330
47
100
AcDbScale
 70
     0
300
1'-0" = 1'-0"
140
12.0
141
12.0
290
     0
  0
ENDSEC
  0
EOF
